SplineFontDB: 3.2
FontName: Kritzelei-01-Regular
FullName: Kritzelei-01 Regular
FamilyName: Kritzelei-01
Weight: Regular
Copyright: FONT_LICENSE
UComments: "FONT_COMMENT"
Version: 1.0
ItalicAngle: 0
UnderlinePosition: -204.8
UnderlineWidth: 102.4
Ascent: 1638
Descent: 410
InvalidEm: 0
LayerCount: 2
Layer: 0 0 "Back" 1
Layer: 1 0 "Fore" 0
XUID: [1021 999 -1553214875 10922442]
OS2Version: 0
OS2_WeightWidthSlopeOnly: 0
OS2_UseTypoMetrics: 1
CreationTime: 1682329128
ModificationTime: 1682329128
OS2TypoAscent: 0
OS2TypoAOffset: 1
OS2TypoDescent: 0
OS2TypoDOffset: 1
OS2TypoLinegap: 0
OS2WinAscent: 0
OS2WinAOffset: 1
OS2WinDescent: 0
OS2WinDOffset: 1
HheadAscent: 0
HheadAOffset: 1
HheadDescent: 0
HheadDOffset: 1
OS2Vendor: 'PfEd'
Lookup: 4 0 0 "extra-ligatures" { "dlig"  } ['dlig' ('latn' <'dflt' > ) ]
Lookup: 4 0 1 "ligatures" { "liga"  } ['liga' ('latn' <'dflt' > ) ]
Lookup: 1 0 0 "+ACIA-ss02+ACIA Style Set 2 lookup" { "ss02"  } ['ss02' ('latn' <'dflt' > ) ]
Lookup: 1 1 0 "+ACIA-ss01+ACIA Style Set 1 lookup" { "ss01"  } ['ss01' ('latn' <'dflt' > ) ]
DEI: 91125
Encoding: UnicodeFull
UnicodeInterp: none
NameList: AGL For New Fonts
DisplaySize: -48
AntiAlias: 1
FitToEm: 0
Grid
-2048 775.89 m 1
 3686.4 775.89 l 1025
-2048 1502.8 m 1
 3686.4 1502.8 l 1025
EndSplineSet
BeginChars: 1114112 170

StartChar: A
Encoding: 65 65 14
Width: 1711
VWidth: 2985
Flags: HW
LayerCount: 2
Fore
SplineSet
615 720 m 0
 605 720 604 698 612 669 c 0
 618 639 649 588 679 558 c 0
 707.400692044 529.599307956 722.148010375 516.952508658 731.527537518 516.952508658 c 0
 738.000346022 516.952508658 741.916810842 522.975389275 746 534 c 0
 747 537 748 541 748 545 c 0
 748 566 731 602 697 642 c 0
 662 687 625 720 615 720 c 0
1023 536 m 0
 1023 598 1020 758 983 758 c 0
 973 758 954 728 938 690 c 0
 922 652 909 592 909 557 c 0
 909 499 953 432 1001 432 c 0
 1017 432 1023 469 1023 536 c 0
1089 1563 m 0
 1118 1563 1152 1531 1152 1491 c 0
 1152 1472 1148 1445 1140 1408 c 0
 1120 1313 1105 1085 1105 894 c 0
 1105 797 1108 710 1117 654 c 0
 1128 569 1147 491 1157 480 c 0
 1160 476 1165 474 1172 474 c 0
 1199 474 1260 501 1381 562 c 0
 1491 618 1601 662 1620 662 c 0
 1635 662 1663 654 1663 644 c 0
 1663 621 1277 417 1255 403 c 2
 1173 354 l 1
 1186 243 l 2
 1189 214 1191 191 1191 173 c 0
 1191 137 1184 121 1167 107 c 0
 1160 101 1154 98 1147 98 c 0
 1125 98 1094 129 1012 218 c 0
 942 295 871 355 852 355 c 0
 826 355 796 316 754 238 c 0
 671 88 577 -24 361 -24 c 0
 190 -24 114 63 73 219 c 0
 55 273 48 327 48 404 c 0
 48 438 50 477 52 523 c 0
 58 638 72 731 85 749 c 0
 98 765 119 778 135 778 c 0
 148 778 170 760 183 738 c 0
 191 722 196 692 196 659 c 0
 196 645 195 630 193 616 c 0
 183 558 163 396 163 287 c 0
 163 256 165 229 169 210 c 0
 177 183 206 141 233 115 c 0
 271 78 303 69 377 69 c 0
 444 69 489 80 527 109 c 0
 557 130 611 192 641 246 c 0
 671 302 698 357 698 373 c 0
 698 389 662 430 620 467 c 0
 532 544 487 609 487 755 c 0
 487 827 500 888 549 888 c 0
 561 888 575 885 591 877 c 0
 617 866 669 818 709 770 c 0
 749 722 794 682 805 682 c 0
 818 682 850 744 877 821 c 0
 931 973 991 1201 1013 1371 c 0
 1023 1446 1035 1563 1089 1563 c 0
EndSplineSet
EndChar

StartChar: B
Encoding: 66 66 15
Width: 1108
VWidth: 3343
Flags: HW
LayerCount: 2
Fore
SplineSet
560 1452 m 0
 492 1452 300 1409 300 1351 c 0
 300 1347 301 1342 303 1338 c 0
 311 1322 316 1167 316 968 c 0
 316 915 316 859 315 802 c 2
 306 304 l 1
 364 238 l 1
 422 173 541 56 646 56 c 0
 760 56 842 168 893 255 c 0
 934 321 947 376 949 452 c 0
 949 528 937 575 906 617 c 0
 884 648 808 700 742 734 c 0
 674 766 606 806 587 823 c 0
 568 837 555 865 555 884 c 0
 555 903 608 969 674 1032 c 0
 739 1095 797 1171 804 1200 c 0
 808 1216 811 1232 811 1248 c 0
 811 1322 766 1389 718 1418 c 0
 684 1438 620 1452 560 1452 c 0
498 1549 m 0
 690 1549 808 1518 876 1406 c 0
 900 1367 918 1306 918 1265 c 0
 918 1224 910 1172 900 1146 c 0
 890 1120 841 1055 788 1001 c 0
 739 952 702 902 702 884 c 0
 702 869 737 841 769 824 c 0
 903 758 1060 680 1060 479 c 0
 1060 428 1045 341 1026 287 c 0
 1004 222 957 153 886 82 c 0
 784 -20 774 -26 675 -26 c 0
 527 -26 498 11 408 82 c 0
 367 114 305 147 269 155 c 0
 208 167 200 177 176 284 c 0
 162 347 136 429 119 461 c 0
 106 487 99 501 99 512 c 0
 99 526 111 531 140 542 c 0
 171.482074274 553.301257432 184.067035453 566.557388631 184.067035453 589.132570834 c 0
 184.067035453 594.523528926 183.349371284 600.445910905 182 607 c 0
 175 633 165 696 158 750 c 0
 144 862 48 1092 48 1216 c 0
 48 1291 59 1312 124 1375 c 0
 165 1416 251 1474 312 1503 c 0
 387 1538 426 1549 498 1549 c 0
EndSplineSet
EndChar

StartChar: C
Encoding: 67 67 16
Width: 1956
VWidth: 3957
Flags: HW
LayerCount: 2
Fore
SplineSet
1583 1356 m 0
 1583 1459 1537 1486 1426 1486 c 0
 1271 1486 1023 1381 926 1314 c 0
 876 1276 766 1188 688 1114 c 0
 510 948 355 776 250 551 c 0
 208 463 174 371 174 344 c 0
 174 239 265 171 357 123 c 0
 440 80 489 70 689 70 c 0
 905 70 1208 95 1470 127 c 0
 1643 151 1768 162 1836 162 c 0
 1869 162 1889 160 1894 155 c 0
 1907 142 1912 125 1904 117 c 0
 1896 109 1778 87 1642 64 c 0
 1274 10 1058 -31 618 -31 c 0
 443 -31 404 -19 294 35 c 0
 214 75 125 135 98 171 c 0
 71 207 48 270 48 308 c 0
 48 348 69 436 94 501 c 0
 193 745 329 912 531 1114 c 0
 640 1219 787 1346 861 1394 c 0
 1014 1499 1214 1581 1447 1587 c 1
 1623 1587 1732 1544 1732 1389 c 0
 1732 1244 1640 1164 1535 1112 c 0
 1452 1067 1268 1015 1135 1015 c 0
 1103.81929032 1015 1062.53916938 1027.1192935 1062.53916938 1045.28073153 c 0
 1062.53916938 1049.25267828 1064.51362479 1053.51362479 1069 1058 c 0
 1082 1068 1156 1091 1234 1108 c 0
 1360 1135 1583 1232 1583 1356 c 0
EndSplineSet
EndChar

StartChar: D
Encoding: 68 68 17
Width: 1460
VWidth: 3546
Flags: HW
LayerCount: 2
Fore
SplineSet
338 725 m 0
 338 821 325 1055 325 1155 c 0
 325 1254 330 1309 340 1331 c 0
 355 1358 380 1378 399 1378 c 0
 438 1378 460 1341 460 1296 c 0
 460 1279 457 1262 451 1245 c 0
 441 1218 437 1152 437 1066 c 0
 437 827 466 442 473 366 c 0
 488 231 491 231 582 204 c 0
 631 189 747 176 838 176 c 1
 1004 174 l 1
 1118 288 l 2
 1183 353 1247 436 1266 480 c 0
 1281 524 1298 609 1298 670 c 0
 1298 875 1133 1101 1009 1228 c 0
 939 1300 836 1386 781 1416 c 0
 710 1458 613 1487 518 1487 c 0
 460 1487 402 1476 352 1452 c 0
 303 1427 234 1378 207 1342 c 0
 173 1300 162 1276 162 1212 c 0
 162 1055 191 911 240 780 c 0
 272 702 313 612 325 612 c 0
 333 612 338 649 338 725 c 0
492 1598 m 0
 724 1598 887 1481 1026 1350 c 0
 1174 1206 1279 1071 1359 879 c 0
 1389 809 1412 706 1412 641 c 0
 1412 573 1395 489 1365 430 c 0
 1312 320 1129 143 1011 105 c 0
 976 93 914 88 847 88 c 0
 742 88 623 101 576 117 c 0
 562.052668078 121.358541226 551.904712479 124.028470752 544.525749485 124.028470752 c 0
 526.509875265 124.028470752 525 108.112988022 525 62 c 0
 525 9 502 -28 468 -28 c 0
 455 -28 440 -23 424 -11 c 0
 409 2 380 60 365 115 c 0
 344 193 316 233 236 288 c 0
 147 354 92 404 92 518 c 0
 92 541 105 559 124 559 c 0
 143 559 173 537 192 510 c 0
 213 483 228 464 228 474 c 0
 228 482 193 584 147 702 c 0
 82 865 64 958 54 1110 c 0
 51 1163 48 1202 48 1234 c 0
 48 1306 59 1336 88 1384 c 0
 143 1471 283 1549 382 1585 c 0
 405 1593 449 1598 492 1598 c 0
EndSplineSet
EndChar

StartChar: E
Encoding: 69 69 18
Width: 1627
VWidth: 3954
Flags: HW
LayerCount: 2
Fore
SplineSet
1023 815 m 0
 1025 815 1026 815 1028 815 c 0
 1064 815 1102 785 1102 752 c 0
 1102 740 1098 728 1086 716 c 0
 1071 701 938 679 789 664 c 0
 617 649 481 619 424 590 c 0
 372 563 325 542 317 542 c 0
 307 542 305 569 309 598 c 0
 332 772 764 739 915 794 c 0
 942 807 991 815 1023 815 c 0
1556 378 m 0
 1571 378 1579 342 1579 321 c 0
 1579 296 1560 258 1537 237 c 0
 1440 159 1062 42 913 4 c 0
 823 -17 659 -32 546 -32 c 0
 380 -32 323 -19 243 25 c 0
 188 54 123 109 96 147 c 0
 63 192 48 245 48 335 c 0
 48 341 48 347 48 353 c 0
 48 429 67 556 90 636 c 0
 113 716 182 896 243 1037 c 0
 304 1180 353 1313 353 1334 c 0
 353 1378 229 1384 229 1432 c 0
 229 1453 243 1470 260 1470 c 0
 275 1472 317 1472 346 1472 c 0
 347.19848487 1471.9250947 348.410996752 1471.88806232 349.636117204 1471.88806232 c 0
 381.122176865 1471.88806232 420.936316305 1496.34829548 445 1531 c 0
 470 1563 506 1594 527 1594 c 0
 548 1594 586 1571 613 1546 c 0
 644 1518 666 1506 763 1506 c 0
 877 1506 1271 1533 1377 1533 c 0
 1409 1533 1429 1532 1432 1529 c 0
 1445 1521 1453 1497 1453 1480 c 0
 1453 1459 1427 1436 1398 1432 c 0
 1366 1424 1178 1415 983 1407 c 0
 773 1399 613 1382 592 1367 c 0
 571 1352 539 1279 516 1210 c 0
 491 1136 448 1058 416 1031 c 0
 384 1004 330 918 294 842 c 0
 258 766 212 624 189 521 c 0
 170 436 160 388 160 351 c 0
 160 315 169 290 187 252 c 0
 210 208 258 151 296 126 c 0
 346 93 402 82 551 82 c 0
 862 82 1208 181 1403 304 c 0
 1474 346 1540 378 1556 378 c 0
EndSplineSet
EndChar

StartChar: F
Encoding: 70 70 19
Width: 1617
VWidth: 3469
Flags: HW
LayerCount: 2
Fore
SplineSet
281 1049 m 0
 281 1121 273 1295 273 1369 c 0
 273 1476 283 1509 309 1552 c 0
 330.529316272 1589.67630348 344.363618086 1606.07815521 358.725417941 1606.07815521 c 0
 365.710213098 1606.07815521 372.819778338 1602.19859506 381 1595 c 0
 399 1581 412 1556 412 1538 c 0
 412 1521 428 1514 500 1514 c 0
 538 1514 591 1516 665 1520 c 0
 802 1529 1036 1547 1184 1565 c 0
 1332 1583 1478 1595 1510 1595 c 0
 1546 1595 1569 1585 1569 1565 c 0
 1569 1509 1416 1487 1348 1487 c 0
 1299 1487 1200 1477 1124 1466 c 0
 1052 1453 876 1435 734 1424 c 0
 595 1413 460 1394 437 1381 c 0
 396 1359 392 1338 392 1135 c 0
 392 955 398 910 421 910 c 0
 439 910 501 920 566 933 c 0
 719 960 930 1008 1078 1048 c 0
 1126 1061 1160 1068 1183 1068 c 0
 1209.45389068 1068 1224.86544081 1054.19707432 1224.86544081 1033.76921014 c 0
 1224.86544081 1024.08102399 1221.39898755 1012.9027191 1214 1001 c 0
 1201 979 1139 951 1074 937 c 0
 901 897 779 873 595 830 c 0
 514 810 428 782 408 764 c 0
 376 739 370 698 370 559 c 0
 370 462 383 332 401 267 c 0
 419 202 433 112 433 69 c 0
 433 10 429 -27 392 -27 c 0
 345 -27 324 8 307 58 c 0
 296 96 282 180 273 245 c 0
 260 375 190 605 145 695 c 0
 127 727 100 764 82 778 c 0
 62 796 48 827 48 850 c 0
 48 889 69 903 99 903 c 0
 119 903 141 897 165 888 c 0
 187.795796796 879.557112298 203.997975963 875.034753997 216.841367834 875.034753997 c 0
 234.422144385 875.034753997 245.709320858 883.508620324 259 902 c 0
 275 923 281 962 281 1049 c 0
EndSplineSet
EndChar

StartChar: G
Encoding: 71 71 20
Width: 1072
Flags: HW
LayerCount: 2
Fore
SplineSet
352 -150 m 0
 352 -189 412 -221 450 -221 c 0
 520 -221 550 -145 568 -76 c 0
 579 -36 584 14 584 63 c 0
 584 71 584 79 584 87 c 2
 581 176 l 1
 531 130 l 2
 480 83 369 -47 355 -122 c 0
 353 -134 352 -142 352 -150 c 0
667 908 m 0
 667 881 632 812 611 812 c 0
 604 812 598 822 598 850 c 0
 598 887 592 894 572 894 c 0
 522 894 491 885 436 860 c 0
 393 840 334 795 272 736 c 0
 200 666 168 626 143 570 c 0
 119 517 103 469 103 418 c 0
 103 361 119 317 165 317 c 0
 178 317 193 321 211 328 c 0
 264 352 366 433 417 458 c 0
 438 470 473 478 495 478 c 0
 556 478 584 427 600 377 c 0
 607 353 620 318 628 318 c 0
 640 318 681 341 731 374 c 0
 785 410 871 462 922 490 c 0
 968 514 1007 533 1018 533 c 0
 1022 533 1024 528 1024 525 c 0
 1024 503 954 464 915 441 c 0
 868 414 800 369 764 342 c 0
 728 314 688 280 675 265 c 0
 656 244 652 215 645 84 c 0
 641 -14 630 -95 617 -134 c 0
 592 -212 539 -278 442 -278 c 0
 398 -278 323 -224 303 -204 c 0
 296 -194 292 -177 292 -152 c 0
 292 -92 306 -57 343 -4 c 0
 367 30 429 101 480 152 c 0
 553 225 570 242 570 268 c 0
 570 302 553 344 537 375 c 0
 520 408 509 419 485 419 c 0
 467 419 411 388 348 345 c 0
 246 274 237 271 170 271 c 0
 105 271 95 274 73 304 c 0
 53 331 48 355 48 422 c 0
 48 493 55 520 87 590 c 0
 117 653 150 695 226 770 c 0
 296 837 348 878 404 905 c 0
 468 934 524 954 591 954 c 0
 636 954 667 941 667 908 c 0
EndSplineSet
EndChar

StartChar: H
Encoding: 72 72 21
Width: 1925
VWidth: 3174
Flags: HW
LayerCount: 2
Fore
SplineSet
970 281 m 0
 1025 281 1026 319 1026 440 c 2
 1026 582 l 1
 956 581 l 1
 904 577 524 509 524 462 c 0
 524 448 571 413 630 390 c 0
 688 367 781 329 842 307 c 0
 889 292 940 281 970 281 c 0
442 376 m 0
 424 376 416 332 416 302 c 0
 416 243 444 102 500 102 c 0
 554 102 604 190 660 190 c 0
 682 190 698 175 698 161 c 0
 698 147 663 95 614 50 c 0
 566 2 516 -27 472 -27 c 0
 366 -27 329 119 326 251 c 0
 324 336 309 400 291 420 c 0
 273 438 247 451 234 451 c 0
 220 451 171 463 126 476 c 0
 71.3177076601 488.975459199 47.5591474201 504.527896074 47.5591474201 528.230222069 c 0
 47.5591474201 530.101755067 47.7072740569 532.024099884 48 534 c 0
 55 563 85 570 198 572 c 1
 338 572 l 1
 376 757 l 1
 396 860 424 1081 437 1248 c 0
 450 1414 467 1560 471 1569 c 0
 478 1578 504 1585 527 1585 c 0
 565 1585 569 1570 569 1446 c 0
 569 1293 484 829 466 698 c 0
 463 671 461 652 461 638 c 0
 461 605 473 604 516 604 c 0
 563 604 1016 697 1038 719 c 0
 1045 726 1062 856 1080 1009 c 0
 1094 1164 1118 1344 1125 1405 c 0
 1133 1465 1157 1582 1200 1582 c 0
 1238.0952381 1582 1239.00226757 1533.92743764 1239.00226757 1464.56127848 c 0
 1239.00226757 1461.09297052 1239 1457.57142857 1239 1454 c 0
 1239 1270 1203 927 1203 808 c 0
 1203 799.578947368 1202.84610649 792.727608495 1202.84610649 787.154395685 c 0
 1202.84610649 764.489996922 1205.39116309 762.962962963 1231.18106996 762.962962963 c 0
 1235.19753086 762.962962963 1239.77777778 763 1245 763 c 0
 1353 763 1642 792 1754 792 c 0
 1786 792 1810 791 1820 788 c 0
 1851 781 1877 766 1877 757 c 0
 1877 748 1856 735 1829 726 c 0
 1800 719 1736 714 1686 714 c 0
 1578 714 1275 673 1208 635 c 0
 1163 606 1157 586 1157 388 c 0
 1157 226 1149 167 1127 147 c 0
 1117 140 1105 136 1088 136 c 0
 1059 136 1013 148 932 174 c 0
 842 205 700 266 614 307 c 0
 537 346 463 376 442 376 c 0
EndSplineSet
EndChar

StartChar: I
Encoding: 73 73 22
Width: 464
VWidth: 3647
Flags: HW
LayerCount: 2
Fore
SplineSet
239 379 m 0
 239 339 241 291 241 256 c 0
 241 139 233 79 212 45 c 0
 195 16 148 -30 104 -30 c 0
 62.6868933908 -30 47.3280174508 3.85334435115 47.3280174508 52.4883945409 c 0
 47.3280174508 68.6010232352 49.0137687147 86.3360544671 52 105 c 0
 102 459 154 997 228 1325 c 0
 250 1413 276 1505 288 1537 c 0
 298 1567 330 1591 356 1591 c 0
 386 1591 416 1572 416 1538 c 0
 416 1486 392 1338 356 1175 c 0
 314 983 272 775 260 707 c 0
 249 647 239 505 239 379 c 0
EndSplineSet
EndChar

StartChar: J
Encoding: 74 74 23
Width: 738
Flags: HW
LayerCount: 2
Fore
SplineSet
367 927 m 0
 371 927 389 915 408 902 c 0
 429 886 445 879 471 879 c 0
 512 879 560 894 589 908 c 0
 611 919 639 927 652 927 c 0
 664 927 679 914 685 897 c 0
 688 889 690 858 690 810 c 0
 690 663 670 280 661 192 c 0
 650 89 631 -63 583 -118 c 0
 558 -146 551 -150 470 -150 c 0
 460 -150 449 -150 436 -150 c 0
 321 -150 168 -126 98 -93 c 0
 81 -86 48 -64 48 -41 c 0
 48 -35 51 -28 57 -22 c 0
 68 -11 78 -13 108 -35 c 0
 153 -69 338 -97 423 -97 c 0
 477 -97 499 -91 523 -69 c 0
 546 -50 559 -21 572 36 c 0
 600 182 612 483 617 666 c 2
 622 845 l 1
 584 838 l 2
 549 832 506 822 464 822 c 0
 416 822 362 840 353 873 c 0
 348 896 351 927 367 927 c 0
EndSplineSet
EndChar

StartChar: K
Encoding: 75 75 24
Width: 1841
VWidth: 3395
Flags: HW
LayerCount: 2
Fore
SplineSet
1793 14 m 0
 1793 2 1780 -24 1760 -24 c 0
 1739 -24 1692 -7 1645 22 c 0
 1477 112 1283 172 1033 202 c 0
 911 216 785 244 751 258 c 0
 736 265 724 269 712 269 c 0
 680 269 648 237 557 138 c 0
 459 28 403 -14 339 -26 c 0
 325 -28 311 -30 297 -30 c 0
 194 -30 93 32 65 102 c 0
 54 129 48 181 48 245 c 0
 48 277 50 312 53 348 c 0
 73 626 139 812 155 1126 c 0
 165 1270 181 1410 193 1434 c 0
 205 1456 229 1474 245 1474 c 0
 304 1474 307 1390 307 1302 c 0
 307 1291 307 1281 307 1270 c 0
 307 1025 166 465 166 221 c 0
 166 170 175 148 197 126 c 0
 221 104 265 84 293 84 c 0
 381 84 547 302 579 366 c 0
 601 404 637 492 663 564 c 0
 687 636 755 778 815 876 c 0
 873 974 1003 1178 1099 1326 c 0
 1213 1500 1291 1594 1317 1594 c 0
 1343 1594 1375 1565 1375 1530 c 0
 1375 1486 1327 1398 1187 1190 c 0
 1075 1024 937 796 885 684 c 1
 829 574 787 464 787 440 c 0
 787 418 809 386 835 372 c 0
 859 358 973 332 1083 312 c 0
 1327 270 1513 208 1681 102 c 0
 1743 64 1793 24 1793 14 c 0
EndSplineSet
EndChar

StartChar: L
Encoding: 76 76 25
Width: 1434
VWidth: 3664
Flags: HW
LayerCount: 2
Fore
SplineSet
473 1538 m 0
 489 1538 532 1508 532 1468 c 0
 532 1426 496 1336 416 1156 c 0
 342 992 256 774 228 676 c 0
 197 574 185 501 185 421 c 0
 185 396 186 371 188 344 c 0
 200 174 226 98 384 98 c 0
 440 98 660 130 880 170 c 0
 1100 208 1300 242 1332 242 c 0
 1360 242 1386 226 1386 210 c 0
 1386 190 1360 164 1326 150 c 0
 1229 102 516 -30 377 -30 c 0
 295 -30 239 -18 198 8 c 0
 100 66 82 136 58 288 c 0
 51 327 48 360 48 393 c 0
 48 459 62 527 94 654 c 0
 150 876 300 1306 398 1466 c 0
 425 1512 450 1538 473 1538 c 0
EndSplineSet
EndChar

StartChar: M
Encoding: 77 77 26
Width: 1794
VWidth: 3285
Flags: HW
LayerCount: 2
Fore
SplineSet
1458 740 m 0
 1458 829 1469 942 1469 1023 c 0
 1469 1074 1463 1108 1445 1108 c 0
 1436 1108 1424 1101 1409 1084 c 0
 1395 1066 1312 996 1226 931 c 0
 1140 866 992 774 898 724 c 0
 772 659 731 640 659 640 c 0
 642 640 622 641 599 643 c 0
 482 652 465 660 389 743 c 0
 349 786 309 819 298 819 c 0
 291 819 271 714 252 619 c 0
 232 520 218 383 218 313 c 0
 218 207 212 76 131 76 c 0
 102 76 75 97 61 133 c 0
 52 155 48 207 48 305 c 0
 48 455 89 1361 101 1379 c 0
 108 1390 132 1399 155 1399 c 0
 229 1399 231 1550 308 1550 c 0
 357 1550 355 1425 360 1283 c 0
 364 1162 383 1012 401 949 c 0
 435 830 497 747 628 747 c 0
 673 747 763 778 846 819 c 0
 1051 922 1197 1018 1357 1184 c 0
 1427 1260 1507 1350 1532 1384 c 0
 1555 1419 1574 1436 1589 1436 c 0
 1610 1436 1622 1402 1622 1344 c 0
 1622 1325 1621 1304 1618 1280 c 0
 1600 1075 1564 949 1564 706 c 0
 1564 696 1564 687 1564 677 c 0
 1564 438 1607 257 1699 112 c 0
 1731 59 1746 22 1746 1 c 0
 1746 -18.0868495867 1733.19230295 -26.1448489376 1716.06505424 -26.1448489376 c 0
 1704.47766588 -26.1448489376 1690.91315041 -22.4565752066 1678 -16 c 0
 1655 -3 1602 74 1566 157 c 0
 1491 317 1458 513 1458 740 c 0
EndSplineSet
EndChar

StartChar: N
Encoding: 78 78 27
Width: 1728
VWidth: 3245
Flags: HW
LayerCount: 2
Fore
SplineSet
330 1311 m 0
 330 1395 348 1505 428 1505 c 0
 458 1505 500 1486 523 1463 c 0
 544 1438 569 1349 582 1250 c 0
 593 1157 605 990 605 880 c 0
 605 770 620 601 641 502 c 0
 683 306 687 277 784 173 c 0
 816 137 859 108 882 108 c 0
 903 108 930 124 943 139 c 0
 956 152 998 270 1040 395 c 0
 1165 802 1290 1151 1508 1455 c 0
 1567 1533 1627 1596 1646 1596 c 0
 1665 1596 1680 1577 1680 1552 c 0
 1680 1529 1633 1441 1574 1355 c 0
 1432 1146 1283 786 1209 507 c 0
 1177 385 1132 243 1109 188 c 0
 1067 93 1010 -6 894 -6 c 0
 786 -6 681 93 632 163 c 0
 577 249 491 543 491 684 c 0
 491 728 477 832 451 832 c 0
 446 832 440 828 434 819 c 0
 424 804 398 711 377 614 c 0
 354 517 311 357 284 256 c 0
 257 155 219 52 200 25 c 0
 179 -5 143 -28 113 -28 c 0
 85 -28 48 -14 48 6 c 0
 48 33 71 158 105 293 c 0
 141 437 210 707 254 893 c 0
 298 1079 330 1267 330 1311 c 0
EndSplineSet
EndChar

StartChar: O
Encoding: 79 79 28
Width: 1494
VWidth: 3256
Flags: HW
LayerCount: 2
Fore
SplineSet
729 1498 m 0
 612 1498 555 1476 479 1434 c 1
 309 1354 207 1133 161 919 c 0
 152 877 148 829 148 780 c 0
 148 620 189 437 231 332 c 0
 255 264 306 181 343 142 c 0
 406 79 417 75 548 75 c 0
 669 75 709 85 837 150 c 0
 942 201 1030 264 1125 364 c 0
 1222 464 1273 536 1305 621 c 0
 1336 703 1351 783 1351 890 c 0
 1351 1087 1314 1160 1222 1262 c 0
 1185 1303 1145 1337 1128 1337 c 0
 1111 1337 1099 1317 1099 1293 c 0
 1099 1206 1016 1109 948 1080 c 0
 909 1063 851 1053 820 1053 c 0
 789 1053 742 1064 715 1078 c 0
 689.305244826 1089.41989119 670.855707138 1111.70760861 670.855707138 1122.45451185 c 0
 670.855707138 1135.67003883 700.60046885 1137.58024691 733.510288066 1137.58024691 c 0
 759.617283951 1137.58024691 788.555555556 1136 809 1136 c 0
 859 1136 888 1148 922 1175 c 0
 962 1207 975 1224 975 1268 c 0
 975 1278 974 1290 973 1304 c 0
 966 1382 961 1395 895 1395 c 0
 857 1395 784 1377 725 1357 c 0
 662 1333 569 1282 520 1243 c 0
 469 1204 417 1175 407 1175 c 0
 395 1175 387 1187 387 1201 c 0
 387 1215 433 1261 486 1303 c 0
 540 1344 635 1400 698 1429 c 0
 763 1456 815 1483 815 1490 c 0
 815 1495.57082066 790.932783087 1498.60825007 756.911417607 1498.60825007 c 0
 748.183326093 1498.60825007 738.800086881 1498.40833695 729 1498 c 0
788 1597 m 0
 922 1594 941 1587 1002 1527 c 0
 1097 1437 1191 1415 1290 1321 c 0
 1387 1224 1446 1082 1446 893 c 0
 1446 563 1322 420 1140 250 c 0
 1070 187 950 101 870 60 c 0
 734 -9 664 -26 500 -26 c 0
 430 -26 389 -17 351 2 c 0
 246 58 188 163 135 291 c 0
 85 415 48 579 48 750 c 0
 48 801 52 853 59 905 c 0
 96 1185 222 1407 418 1517 c 1
 511 1560 599 1598 744 1598 c 0
 758 1598 773 1598 788 1597 c 0
EndSplineSet
EndChar

StartChar: P
Encoding: 80 80 29
Width: 1037
VWidth: 2902
Flags: HW
LayerCount: 2
Fore
SplineSet
148 957 m 0
 148 909 165 800 179 800 c 0
 189 800 206 807 224 813 c 0
 250 823 256 861 256 1043 c 0
 256 1181 248 1264 237 1264 c 0
 197 1264 171 1128 160 1077 c 0
 153 1045 148 999 148 957 c 0
378 1167 m 0
 378 1098 371 980 371 922 c 0
 371 846 380 840 405 840 c 0
 496 840 684 905 751 947 c 0
 831 993 891 1058 891 1162 c 0
 891 1192 870 1248 843 1288 c 0
 779 1380 659 1448 512 1448 c 0
 435 1448 361 1437 361 1365 c 0
 361 1351 363 1335 368 1317 c 0
 374 1294 378 1236 378 1167 c 0
531 1533 m 0
 624 1533 685 1522 747 1493 c 0
 883 1427 989 1306 989 1117 c 0
 989 1085 968 1029 946 992 c 0
 877 888 678 811 515 781 c 1
 362 751 l 1
 346 637 l 2
 341 600 339 547 339 486 c 0
 339 335 351 141 359 59 c 0
 359.215756806 52.9588094413 359.326773863 47.3249401255 359.326773863 42.0732828155 c 0
 359.326773863 -1.35632667205 351.73455354 -18.647270417 333 -24 c 0
 332.205969484 -24.0882256128 331.398317391 -24.1316946128 330.578417174 -24.1316946128 c 0
 312.811873136 -24.1316946128 289.294195097 -3.7207286138 274 24 c 0
 220 114 83 684 61 807 c 0
 52 862 48 911 48 957 c 0
 48 1052 66 1134 95 1223 c 0
 130 1346 216 1448 323 1496 c 0
 373 1518 446 1533 531 1533 c 0
EndSplineSet
EndChar

StartChar: Q
Encoding: 81 81 30
Width: 1532
VWidth: 2826
Flags: HW
LayerCount: 2
Fore
SplineSet
462 276 m 0
 527 276 703 309 703 362 c 0
 703 398 613 637 613 672 c 0
 613 687 626 693 648 690 c 0
 675 687 694 656 729 561 c 0
 754 492 786 431 797 428 c 0
 798.053313302 427.712732736 799.262502402 427.572172105 800.609129294 427.572172105 c 0
 813.325645608 427.572172105 838.298138114 440.106626604 860 460 c 0
 924 520 991 673 1022 775 c 0
 1037 828 1049 927 1049 1011 c 0
 1049 1089 1045 1171 1039 1193 c 0
 1032 1213 1021 1229 1011 1229 c 0
 1003 1229 969 1211 938 1187 c 0
 867 1134 738 1062 619 1062 c 0
 571 1062 511 1071 484 1082 c 0
 468 1089 459 1093 459 1097 c 0
 459 1103 488 1107 563 1113 c 0
 716 1124 781 1156 861 1232 c 0
 893 1263 916 1298 916 1323 c 0
 916 1365 849 1447 811 1447 c 0
 787 1447 685 1380 664 1380 c 0
 654 1380 647 1391 647 1405 c 0
 647 1419 633 1431 616 1431 c 0
 598 1431 542 1403 486 1368 c 0
 363 1290 286 1159 220 1029 c 0
 173 937 134 787 134 648 c 0
 134 541 157 439 216 376 c 0
 264 324 363 276 462 276 c 0
1257 57 m 0
 1279 57 1302 58 1324 58 c 0
 1408 58 1475 54 1480 49 c 0
 1487 43 1484 32 1476 24 c 0
 1453 1 1262 -21 1166 -21 c 0
 1045 -21 938 53 874 117 c 0
 846 142 805 187 785 215 c 0
 764 244 756 256 739 256 c 0
 727 256 712 251 686 242 c 0
 622 218 552 201 471 201 c 0
 438 201 404 204 367 210 c 0
 282 224 247 238 183 295 c 0
 82 383 69 421 52 588 c 0
 49 611 48 635 48 659 c 0
 48 813 99 970 151 1079 c 0
 222 1220 299 1341 426 1426 c 0
 514 1486 627 1540 739 1547 c 1
 924 1547 1027 1429 1082 1285 c 0
 1113 1207 1131 1083 1131 969 c 0
 1131 900 1122 850 1099 768 c 0
 1054 604 1014 511 917 406 c 0
 878 365 848 327 848 319 c 0
 848 312 858 285 872 260 c 0
 900 208 1010 98 1063 74 c 0
 1085 64 1158 57 1257 57 c 0
EndSplineSet
EndChar

StartChar: R
Encoding: 82 82 31
Width: 1530
VWidth: 2866
Flags: HW
LayerCount: 2
Fore
SplineSet
601 724 m 0
 601 756 492 850 460 850 c 0
 420 850 410 826 410 781 c 0
 410 717 475 696 542 696 c 0
 580 696 601 706 601 724 c 0
316 1328 m 0
 306 1328 275 1290 246 1242 c 0
 194 1148 147 1021 147 881 c 0
 147 861 148 841 150 821 c 0
 164 709 177 530 238 476 c 0
 268 449 276 447 284 468 c 0
 290 484 299 596 305 716 c 0
 307 770 327 1065 327 1225 c 0
 327 1287 324 1328 316 1328 c 0
689 1482 m 0
 633 1482 556 1465 511 1444 c 2
 430 1407 l 1
 430 1261 430 1116 430 970 c 1
 489 957 l 2
 526 949 586 908 644 850 c 0
 704 789 730 767 753 767 c 0
 760 767 767 769 774 773 c 0
 876 829 985 973 985 1130 c 0
 985 1252 942 1327 868 1404 c 1
 794 1474 779 1482 689 1482 c 0
1482 21 m 0
 1482 2 1472 -24 1454 -24 c 0
 1437 -24 1401 -9 1367 13 c 0
 1327 39 1166 188 1004 343 c 1
 713 628 l 1
 558 621 l 1
 472 619 396 614 393 608 c 0
 387 603 377 204 374 194 c 0
 374 184 359 178 348 178 c 0
 335 178 277 230 223 296 c 0
 89 446 66 541 52 805 c 0
 49 850 48 886 48 918 c 0
 48 1001 58 1052 81 1132 c 0
 151 1351 297 1483 511 1549 c 0
 556 1565 634 1576 684 1576 c 0
 688 1576 693 1577 697 1577 c 0
 813 1577 917 1515 966 1444 c 0
 1008 1386 1081 1215 1081 1122 c 0
 1081 1092 1068 1022 1052 968 c 0
 1030 891 1001 852 927 788 c 0
 873 742 831 695 831 679 c 0
 831 663 936 546 1066 420 c 0
 1196 292 1343 159 1393 122 c 0
 1441 85 1482 39 1482 21 c 0
EndSplineSet
EndChar

StartChar: S
Encoding: 83 83 32
Width: 1652
VWidth: 3267
Flags: HW
LayerCount: 2
Fore
SplineSet
1490 1352 m 0
 1490 1396 1408 1453 1351 1453 c 0
 1326 1453 1293 1448 1245 1438 c 0
 1101 1410 940 1322 856 1246 c 0
 826 1221 804 1172 804 1140 c 0
 804 1108 836 1039 878 988 c 1
 916 935 1044 805 1154 701 c 0
 1264 597 1395 460 1443 395 c 1
 1494 332 1544 241 1555 193 c 0
 1563 165 1567 144 1567 127 c 0
 1567 104 1559 89 1545 74 c 0
 1524 55 1450 24 1380 3 c 0
 1304 -19 1240 -29 1100 -29 c 0
 875 -29 433 0 306 26 c 0
 215 45 121 72 94 85 c 0
 69 98 48 131 48 154 c 0
 48 184 65 199 90 199 c 0
 113 199 143 187 156 174 c 0
 169 161 240 132 316 117 c 0
 401 95 775 67 1028 67 c 0
 1130 67 1212 72 1249 83 c 0
 1330 105 1416 126 1416 206 c 0
 1416 216 1415 226 1412 237 c 0
 1401 279 1293 402 1118 577 c 0
 964 729 799 898 753 955 c 0
 688 1031 666 1079 666 1138 c 0
 666 1203 685 1237 742 1292 c 0
 829 1379 1000 1476 1131 1516 c 0
 1184 1535 1285 1548 1355 1548 c 0
 1362 1548 1369 1548 1375 1548 c 0
 1460 1548 1503 1537 1545 1503 c 0
 1581 1473 1604 1432 1604 1394 c 0
 1604 1326 1480 1096 1431 1077 c 0
 1418 1072 1409 1070 1401 1070 c 0
 1387 1070 1381 1078 1381 1090 c 0
 1381 1116 1405 1162 1427 1204 c 0
 1461 1267 1490 1331 1490 1352 c 0
EndSplineSet
EndChar

StartChar: T
Encoding: 84 84 33
Width: 2435
VWidth: 3496
Flags: HW
LayerCount: 2
Fore
SplineSet
953 1380 m 0
 953 1350 1079 1091 1105 1091 c 0
 1128 1091 1144 1255 1144 1338 c 0
 1144 1362 1143 1379 1140 1384 c 0
 1132 1394 1087 1403 1039 1403 c 0
 991 1403 953 1393 953 1380 c 0
1224 1551 m 0
 1386 1551 1563 1553 1724 1553 c 0
 2005 1553 2235 1549 2282 1541 c 0
 2349 1531 2387 1514 2387 1489 c 0
 2387 1468 2378 1453 2368 1453 c 0
 2355 1451 2146 1445 1896 1441 c 1
 1646 1433 1411 1419 1369 1409 c 1
 1293 1388 l 1
 1281 1048 l 2
 1278 966 1276 900 1276 843 c 0
 1276 713 1285 634 1310 536 c 0
 1335 439 1356 290 1356 204 c 0
 1356 95 1343 37 1316 10 c 0
 1295 -13 1262 -32 1247 -32 c 0
 1230 -32 1203 -21 1182 -8 c 0
 1155 9 1144 90 1140 317 c 0
 1136 542 1119 657 1079 775 c 0
 1050 863 986 1012 936 1111 c 0
 888 1210 831 1311 808 1336 c 0
 785 1361 735 1378 676 1378 c 0
 542 1378 321 1305 235 1250 c 0
 193 1225 129 1201 100 1201 c 0
 73 1201 48 1218 48 1235 c 0
 48 1252 93 1309 145 1359 c 0
 195 1407 283 1476 338 1514 c 0
 402 1557 430 1573 491 1573 c 0
 519 1573 553 1569 600 1564 c 0
 671 1556 929 1551 1224 1551 c 0
EndSplineSet
EndChar

StartChar: U
Encoding: 85 85 34
Width: 1433
VWidth: 3175
Flags: HW
LayerCount: 2
Fore
SplineSet
1061 326 m 0
 1061 345 1051 379 1035 379 c 0
 1017 379 948 330 878 263 c 0
 802 189 706 117 665 99 c 0
 624 81 541 67 480 67 c 0
 250 67 111 217 71 411 c 0
 58 465 48 589 48 686 c 0
 48 886 115 1255 176 1390 c 0
 198 1440 219 1496 226 1518 c 0
 235.526756221 1539.65171868 252.554263192 1550.80238631 277.082520914 1550.80238631 c 0
 280.875638138 1550.80238631 284.848131167 1550.53572501 289 1550 c 0
 329 1545 345 1511 345 1473 c 0
 345 1436 331 1396 311 1372 c 0
 289 1349 259 1284 246 1230 c 0
 205 1084 156 861 151 670 c 1
 151 447 179 348 298 238 c 0
 370 173 410 152 464 152 c 0
 504 152 585 175 646 206 c 0
 779 273 914 418 977 549 c 0
 1002 610 1025 733 1038 909 c 0
 1061 1181 1067 1230 1135 1388 c 0
 1156 1438 1184 1488 1222 1488 c 0
 1255 1488 1285 1458 1285 1411 c 0
 1285 1360 1266 1260 1223 1044 c 0
 1169 785 1150 663 1150 557 c 0
 1150 425 1175 326 1222 233 c 0
 1253 168 1302 100 1331 80 c 0
 1362 60 1385 29 1385 15 c 0
 1385 -15 1367 -27 1343 -27 c 0
 1322 -27 1297 -18 1277 -5 c 0
 1236 26 1061 258 1061 326 c 0
EndSplineSet
EndChar

StartChar: V
Encoding: 86 86 35
Width: 1617
VWidth: 3612
Flags: HW
LayerCount: 2
Fore
SplineSet
48 1449 m 0
 48 1467 84 1475 109 1475 c 0
 137 1475 167 1447 189 1399 c 0
 209 1355 259 1169 299 985 c 0
 343 801 407 567 445 467 c 0
 483 369 531 265 551 239 c 0
 567.958058842 217.331369258 577.371691889 205.869902825 586.766711881 205.869902825 c 0
 597.316234059 205.869902825 607.842287602 220.321317023 629 251 c 0
 651 283 725 431 793 577 c 0
 939 899 1101 1155 1327 1373 c 0
 1411 1457 1499 1523 1523 1523 c 0
 1549 1523 1569 1509 1569 1489 c 0
 1569 1473 1497 1385 1409 1293 c 0
 1221 1105 1103 903 989 677 c 0
 891 481 847 335 747 135 c 0
 695 27 657 -25 621 -29 c 0
 618.316936585 -29.4127789869 615.48478499 -29.6125748588 612.538711196 -29.6125748588 c 0
 586.936105065 -29.6125748588 552.729715572 -14.5233260786 533 7 c 0
 511 31 461 117 421 197 c 0
 381 279 277 589 191 889 c 0
 111 1169 48 1408 48 1449 c 0
EndSplineSet
EndChar

StartChar: W
Encoding: 87 87 36
Width: 1561
VWidth: 3254
Flags: HW
LayerCount: 2
Fore
SplineSet
98 1545 m 0
 149 1545 172 1522 190 1460 c 0
 204 1419 236 1254 259 1094 c 0
 282 934 332 662 368 491 c 0
 404 320 447 169 460 151 c 0
 474 133 494 129 505 140 c 0
 534 169 673 702 673 761 c 0
 673 795 685 846 703 868 c 0
 717.5 888 725.75 897.25 736.875 897.25 c 0
 748 897.25 762 888 788 871 c 0
 829 846 845 812 854 745 c 0
 861 693 871 567 880 464 c 0
 886 355 894 261 920 261 c 0
 931 261 944 277 962 313 c 0
 978 345 1369 1494 1396 1521 c 0
 1407 1533 1420 1539 1433 1539 c 0
 1473 1539 1513 1487 1513 1451 c 0
 1513 1422 1486 1347 1452 1282 c 0
 1418 1215 1320 947 1234 686 c 0
 1133 376 1057 182 1016 124 c 0
 980 72 935 38 910 38 c 0
 885 38 849 65 824 106 c 0
 802 142 771 221 757 279 c 0
 745.505435425 332.936033776 729.320041923 368.890556665 719.504134573 368.890556665 c 0
 718.218551761 368.890556665 717.042224525 368.273829975 716 367 c 0
 705 358 685 288 665 211 c 0
 645 134 615 47 595 22 c 0
 575 -10 544 -27 503 -27 c 0
 402 -27 334 99 311 191 c 0
 270 358 181 799 145 986 c 0
 125 1087 97 1216 79 1274 c 0
 61 1332 48 1413 48 1449 c 0
 48 1511 52 1545 98 1545 c 0
EndSplineSet
EndChar

StartChar: X
Encoding: 88 88 37
Width: 1288
VWidth: 2851
Flags: HW
LayerCount: 2
Fore
SplineSet
1096 1424 m 0
 1096 1464 1144 1532 1188 1532 c 0
 1206 1532 1222 1519 1222 1504 c 0
 1222 1489 1203 1435 1179 1383 c 0
 1121 1254 900 998 822 888 c 0
 784 836 753 791 753 783 c 0
 753 777 824 666 912 536 c 0
 999 404 1086 270 1107 236 c 0
 1127 203 1166 153 1192 126 c 0
 1220 98 1240 55 1240 27 c 0
 1240 -7 1232 -22 1208 -22 c 0
 1190 -22 1158 -11 1137 4 c 0
 1117 19 1083 66 1062 108 c 0
 1041 152 949 295 862 429 c 0
 774 563 694 677 676 677 c 0
 660 677 630 650 606 614 c 0
 579 578 460 437 338 303 c 0
 218 169 109 55 99 52 c 0
 97.2666836648 51.3697031508 95.4899154729 51.0746063388 93.6873017183 51.0746063388 c 0
 72.6103626783 51.0746063388 48 91.4181679106 48 108 c 0
 48 116 152 232 276 370 c 0
 400 508 528 652 556 694 c 0
 584 736 608 779 608 789 c 0
 608 799 580 856 542 914 c 0
 506 970 462 1038 442 1065 c 0
 424 1092 410 1122 410 1131 c 0
 410 1140 378 1183 340 1227 c 0
 302 1271 260 1334 250 1368 c 0
 238 1402 228 1443 228 1461 c 0
 228 1485 242 1496 270 1496 c 0
 294 1496 325 1482 340 1466 c 0
 356 1448 400 1376 434 1306 c 0
 470 1237 539 1115 585 1035 c 0
 631 955 682 890 692 890 c 0
 702 890 755 948 807 1017 c 0
 861 1087 948 1200 1000 1269 c 0
 1052 1339 1096 1409 1096 1424 c 0
EndSplineSet
EndChar

StartChar: Y
Encoding: 89 89 38
Width: 987
VWidth: 2793
Flags: HW
LayerCount: 2
Fore
SplineSet
82 1595 m 0
 102 1595 132 1569 160 1517 c 0
 185 1471 227 1409 252 1377 c 0
 277 1345 362 1252 439 1171 c 0
 516 1088 592 1022 609 1022 c 0
 627 1022 652 1048 672 1094 c 0
 690 1133 739 1254 780 1360 c 0
 846 1531 860 1553 895 1553 c 0
 923 1553 939 1542 939 1506 c 0
 939 1417 803 1149 768 1094 c 0
 746 1059 634 829 516 583 c 0
 369 271 311 137 311 99 c 0
 311 91 314 83 314 75 c 0
 314 53 303 34 279 13 c 0
 257.053697216 -7.11744421846 228.417947129 -21.3816220461 210.679200923 -21.3816220461 c 0
 209.019239605 -21.3816220461 207.454702195 -21.256712152 206 -21 c 0
 189 -18 170 -2 170 15 c 0
 170 36 244 210 339 404 c 0
 437 600 528 790 539 824 c 0
 546 845 550 858 550 871 c 0
 550 895 535 914 493 966 c 0
 409 1071 166 1321 100 1444 c 0
 72 1499 48 1553 48 1568 c 0
 48 1583 62 1595 82 1595 c 0
EndSplineSet
EndChar

StartChar: Z
Encoding: 90 90 39
Width: 1448
VWidth: 2828
Flags: HW
LayerCount: 2
Fore
SplineSet
427 73 m 0
 621 73 1021 98 1169 98 c 0
 1265 98 1355 94 1371 88 c 0
 1387 82 1400 65 1400 53 c 0
 1400 12 1341 8 1272 8 c 0
 1256 8 1240 8 1223 8 c 0
 1129 8 538 -23 376 -23 c 0
 275 -23 235 -14 171 4 c 0
 93 25 48 47 48 68 c 0
 48 90 111 164 222 274 c 0
 320 372 446 514 504 590 c 0
 571 679 594 711 594 735 c 0
 594 757 556 803 556 822 c 0
 556 844 584 848 638 848 c 2
 704 848 l 1
 816 1066 l 2
 888 1207 931 1315 939 1375 c 0
 943 1400 945 1419 945 1435 c 0
 945 1465 938 1481 920 1499 c 0
 901 1518 882 1526 835 1526 c 0
 605 1526 450 1435 275 1369 c 0
 214 1345 177 1334 155 1334 c 0
 134.194348623 1334 120.122310367 1348.42917097 120.122310367 1363.94492177 c 0
 120.122310367 1370.8015791 122.870434252 1377.87043425 129 1384 c 0
 139 1394 234 1441 338 1486 c 0
 438 1531 564 1577 614 1589 c 0
 675 1603 775 1615 852 1615 c 0
 932 1615 952 1608 993 1570 c 0
 1028 1538 1038 1524 1038 1471 c 0
 1038 1261 937 1079 857 943 c 0
 830 899 809 859 809 847 c 0
 809 841 817 841 827 841 c 0
 885 841 1068 877 1082 877 c 0
 1098 877 1110 866 1110 851 c 0
 1110 839 1088 816 1061 806 c 0
 1033 794 946 773 866 758 c 0
 756 740 714 723 686 689 c 0
 666 665 595 577 527 490 c 0
 458 403 359 285 305 227 c 0
 251 169 207 118 207 112 c 0
 207 104 238 92 276 83 c 0
 301 76 351 73 427 73 c 0
EndSplineSet
EndChar

StartChar: Adieresis
Encoding: 196 196 40
Width: 1332
VWidth: 2147
Flags: HW
LayerCount: 2
Fore
SplineSet
858.739864781 1009.10432586 m 0
 855.883639598 1009.10432586 840.476134322 982.77764675 826 949 c 0
 782 853 743 743 695 644 c 0
 672 598 658 567 658 544 c 0
 658 514 679 496 732 472 c 0
 767 458 808 444 822 444 c 0
 846 444 847 460 855 724 c 0
 858 827 860 918 860 968 c 0
 860 992.556212207 860.194782336 1009.10432586 858.739864781 1009.10432586 c 0
930 306 m 2
 930 249 979 146 979 78 c 0
 979 47 969 23 937 23 c 0
 916 23 903 34 894 60 c 0
 875 115 706 361 668 397 c 0
 646.906341374 416.33585374 626.585152253 428.719481946 613.825685973 428.719481946 c 0
 612.067652176 428.719481946 610.453170687 428.484390229 609 428 c 0
 597 422 588 409 588 396 c 0
 588 383 558 317 523 249 c 0
 489 182 445 106 426 82 c 0
 389 35 302 -16 223 -16 c 0
 149 -16 89 42 67 98 c 0
 56 122 48 178 48 224 c 0
 48 289 53 315 72 330 c 0
 83 341 92 346 98 346 c 0
 113 346 114 314 114 272 c 0
 114 266 114 260 114 254 c 0
 114 159 124 104 180 72 c 0
 199 61 218 55 237 55 c 0
 299 55 360 106 389 144 c 0
 411 172 535 403 535 451 c 0
 535 466 525 494 512 512 c 0
 494 537 460 587 460 626 c 0
 460 646 474 656 508 656 c 0
 529 656 553 647 562 636 c 0
 571 625 586 616 595 616 c 0
 615 616 707 805 707 824 c 0
 707 832 725 879 746 927 c 0
 768 975 806 1074 828 1142 c 0
 850 1211 877 1280 888 1298 c 0
 899 1313 915 1328 926 1328 c 0
 935 1328 949 1315 957 1302 c 0
 964 1288 970 1253 970 1222 c 0
 970 1191 957 1076 943 965 c 0
 927 844 920 738 920 637 c 0
 920 623 920 609 920 595 c 2
 924 425 l 1
 1062 425 l 2
 1176 425 1201 420 1201 405 c 0
 1201 394 1180 379 1155 370 c 0
 1130 361 1068 354 1020 354 c 1
 930 352 l 1
 930 306 l 2
775 1472 m 0
 791.40330391 1472 797.52969056 1468.73007178 797.52969056 1453.25061095 c 0
 797.52969056 1446.08176496 796.215703026 1436.29421816 794 1423 c 0
 790 1395 782 1330 778 1278 c 0
 770 1187 768 1182 736 1182 c 2
 704 1182 l 1
 709 1306 l 1
 711 1382 721 1438 732 1451 c 0
 741 1463 761 1472 775 1472 c 0
1218 1175 m 0
 1184 1175 1181 1223 1181 1294 c 0
 1181 1357 1188 1397 1201 1415 c 0
 1212 1428 1221 1456 1221 1476 c 0
 1221 1508 1225 1513 1250 1509 c 0
 1278 1506 1284 1482 1284 1433 c 0
 1284 1407 1279 1380 1274 1368 c 0
 1266 1355 1256 1309 1252 1267 c 0
 1247 1224 1241 1175 1218 1175 c 0
EndSplineSet
EndChar

StartChar: Odieresis
Encoding: 214 214 41
Width: 1053
VWidth: 2237
Flags: HW
LayerCount: 2
Fore
SplineSet
822 814 m 0
 813.147540984 814 806.230045687 813.767804354 800.828800649 813.767804354 c 0
 783.765776551 813.767804354 781.834710744 816.085083322 781.834710744 835.360631104 c 0
 781.834710744 841 782 848.090909091 782 857 c 0
 782 883 771 895 724 918 c 0
 672 946 589 954 492 954 c 0
 359 954 287 934 215 854 c 0
 168 802 153 772 133 681 c 0
 120 625 114 575 114 526 c 0
 114 390 184 176 256 111 c 0
 303 73 370 54 452 54 c 0
 478 54 505 55 534 59 c 0
 656 75 692 82 776 128 c 0
 897 189 930 251 930 444 c 0
 930 586 916 686 874 770 c 0
 859 804 846 814 822 814 c 0
470 1010 m 0
 495 1010 539 1015 568 1015 c 0
 616 1015 659 1008 704 996 c 0
 740 985 773 978 788 978 c 0
 807 978 792 1000 778 1016 c 0
 751 1046 655 1072 592 1072 c 0
 588 1072 585 1072 581 1072 c 0
 546 1072 430 1049 430 1019 c 0
 430 1014 444 1010 470 1010 c 0
895 978 m 0
 895 959 888 921 888 902 c 0
 888 875 896 857 918 824 c 0
 940 794 966 732 979 689 c 0
 995 633 1005 519 1005 409 c 0
 1005 295 998 268 972 214 c 0
 922 118 858 77 743 36 c 0
 671 12 536 -18 426 -18 c 0
 281 -18 202 34 144 128 c 0
 121 165 90 234 76 281 c 0
 56 346 48 411 48 545 c 0
 48 712 51 730 88 806 c 0
 138 907 248 1001 340 1056 c 0
 406 1096 509 1140 600 1145 c 1
 691 1145 802 1100 852 1050 c 0
 885 1017 895 1005 895 978 c 0
496 1499 m 0
 516 1494 520 1475 521 1384 c 0
 521 1310 516 1269 503 1257 c 0
 495.797783717 1251.70425273 488.954542654 1249.37005104 482.641370596 1249.37005104 c 0
 459.151515152 1249.37005104 443 1281.68502552 443 1314 c 0
 443 1356 461 1484 466 1492 c 0
 471 1498 483 1501 496 1499 c 0
661 1318 m 0
 668 1368 674 1526 721 1526 c 0
 735 1526 739 1495 739 1454 c 0
 739 1394 728 1270 716 1258 c 0
 709 1251 691 1247 678 1253 c 0
 663.13961018 1258.40377812 657.404475963 1266.08887013 657.404475963 1284.06829024 c 0
 657.404475963 1292.70642506 658.728305852 1303.72077964 661 1318 c 0
EndSplineSet
EndChar

StartChar: Udieresis
Encoding: 220 220 42
Width: 1041
VWidth: 2451
Flags: HW
LayerCount: 2
Fore
SplineSet
993 243 m 0
 993 215 970 181 939 181 c 0
 891 181 846 260 837 301 c 0
 829 335 818 364 812 364 c 0
 806 364 783 326 765 279 c 0
 723 174 640 75 542 27 c 0
 482 -2 397 -20 308 -20 c 0
 262 -20 243 -11 213 9 c 0
 140 61 76 225 58 339 c 0
 52 380 48 430 48 471 c 0
 48 489 48 505 50 517 c 0
 66 616 100 823 130 911 c 0
 142 954 180 1045 214 1115 c 0
 265 1218 285 1241 312 1241 c 0
 346 1241 357 1228 357 1205 c 0
 357 1152 325 1090 296 1057 c 0
 239 991 183 773 157 668 c 0
 145 610 135 517 135 464 c 0
 135 286 177 157 277 83 c 0
 299 67 311 59 334 59 c 0
 351 59 375 63 412 71 c 0
 633 117 677 261 750 472 c 0
 803 636 842 762 847 948 c 0
 850 1035 856 1067 876 1079 c 0
 898 1091 909 1088 927 1065 c 0
 942 1046 948 1019 948 950 c 0
 948 829 933 673 919 564 c 0
 911 505 907 465 907 432 c 0
 907 369 930 287 967 277 c 0
 986 271 993 258 993 243 c 0
765 1509 m 0
 769 1505 772 1476 772 1432 c 0
 772 1399 771 1357 768 1310 c 0
 759 1149 759 1121 724 1121 c 0
 691 1121 680 1164 680 1217 c 0
 680 1346 715 1417 741 1494 c 0
 747 1512 756 1518 765 1509 c 0
576 1534 m 0
 592 1534 596 1502 596 1416 c 0
 597 1346 605 1280 617 1258 c 0
 629 1236 636 1210 631 1200 c 0
 626 1190 613 1180 599 1180 c 0
 587 1180 563 1190 547 1206 c 0
 525 1224 520 1254 520 1331 c 0
 520 1387 528 1456 538 1483 c 0
 548 1510 566 1534 576 1534 c 0
EndSplineSet
EndChar

StartChar: uni1E9E
Encoding: 7838 7838 43
Width: 1036
Flags: HW
LayerCount: 2
Fore
SplineSet
848 1446 m 0
 897 1446 929 1396 929 1337 c 0
 929 1199 899 1114 845 1044 c 0
 832 1029 822 1008 822 1000 c 0
 822 990 845 952 874 915 c 0
 903 877 939 823 953 793 c 0
 976 748 988 666 988 586 c 0
 988 542 981 520 957 468 c 0
 909 370 855 311 754 268 c 0
 714 249 665 233 646 233 c 0
 619 233 601 236 601 250 c 0
 601 280 635 295 673 302 c 0
 702 308 754 330 787 353 c 0
 838 386 855 406 885 471 c 0
 911 529 920 566 920 620 c 0
 920 671 912 711 889 760 c 0
 872 798 826 865 786 910 c 0
 747 954 715 995 715 1001 c 0
 715 1006 735 1029 760 1053 c 0
 785 1077 815 1119 828 1144 c 0
 843 1177 851 1219 851 1281 c 2
 852 1370 l 1
 804 1368 l 2
 728 1365 484 1227 437 1186 c 0
 314 1078 215 878 172 691 c 0
 146 581 119 387 119 251 c 0
 119 165 124 136 143 104 c 0
 156 83 167 60 167 54 c 0
 167 47 160 42 153 42 c 0
 145 43 123 56 105 70 c 0
 63 104 48 187 48 263 c 0
 48 390 86 615 115 731 c 0
 147 871 193 974 253 1072 c 0
 311 1163 374 1226 470 1289 c 0
 550 1342 688 1412 783 1434 c 0
 810 1440 830 1446 848 1446 c 0
EndSplineSet
EndChar

StartChar: a
Encoding: 97 97 44
Width: 1322
VWidth: 2992
Flags: HW
LayerCount: 2
Fore
SplineSet
541 514 m 0
 541 546 616 602 616 628 c 0
 616 639 597 668 575 692 c 0
 551 719 513 736 479 736 c 0
 401 736 307 658 269 615 c 0
 216 551 160 452 160 332 c 0
 160 246 168 219 216 160 c 0
 266 101 310 73 366 73 c 0
 409 73 461 90 527 122 c 0
 652 184 770 279 770 439 c 0
 773 556 832 694 909 736 c 0
 932.150127824 748.501069025 945.867915487 754.999739766 956.307141436 754.999739766 c 0
 968.41471529 754.999739766 976.112061356 746.257913079 989 728 c 0
 1001.89012073 712.96152581 1007.60069525 690.230680668 1007.60069525 667.88680897 c 0
 1007.60069525 659.029290173 1006.70329309 650.232583261 1005 642 c 0
 994 595 889 345 889 278 c 0
 889 232 924 189 965 160 c 0
 1013 126 1051 117 1141 117 c 0
 1212 117 1274 114 1274 85 c 0
 1274 75 1267 63 1251 47 c 0
 1232 26 1194 12 1152 12 c 0
 1019 12 944 52 853 119 c 1
 768 186 l 1
 690 116 l 2
 648 78 573 29 525 8 c 0
 476 -15 435 -24 381 -24 c 0
 367 -24 352 -23 335 -22 c 0
 236 -12 223 -5 149 77 c 0
 70 164 48 206 48 329 c 0
 48 503 129 611 231 708 c 0
 271 748 330 796 360 815 c 0
 392 836 449 850 491 850 c 0
 552 850 578 837 647 767 c 0
 705 709 731 668 731 634 c 0
 731 570 653 488 589 488 c 0
 562 488 541 501 541 514 c 0
EndSplineSet
Substitution2: "ss02" a.ss02
Substitution2: "ss01" a.ss01
EndChar

StartChar: b
Encoding: 98 98 45
Width: 1068
VWidth: 3221
Flags: HW
LayerCount: 2
Fore
SplineSet
623 663 m 0
 529 658 400 547 368 476 c 0
 349 440 331 359 323 296 c 1
 312 180 l 1
 419 136 l 1
 501 101 629 76 739 76 c 0
 796 76 812 89 856 133 c 0
 907 184 918 211 918 282 c 0
 918 404 826 573 748 622 c 0
 709 644 655 663 623 663 c 0
313 669 m 0
 313 657 312 651 319 651 c 0
 333 651 374 671 420 699 c 0
 487 742 558 774 632 774 c 0
 672 774 712 765 755 743 c 0
 860 695 949 578 990 462 c 0
 1007 413 1020 328 1020 274 c 0
 1020 67 893 -26 686 -26 c 0
 436 -26 220 146 94 272 c 0
 68 296 48 335 48 359 c 0
 48 385 63 400 87 400 c 0
 109 400 133 391 140 379 c 0
 147 369 160 359 172 359 c 0
 182 359 189 420 189 496 c 0
 189 635 243 1239 260 1360 c 0
 274 1431 269 1513 334 1513 c 0
 356 1513 378 1500 385 1486 c 0
 386 1483 386 1473 386 1458 c 0
 386 1287 352 977 330 830 c 0
 320 760 313 698 313 669 c 0
EndSplineSet
EndChar

StartChar: c
Encoding: 99 99 46
Width: 1364
VWidth: 3192
Flags: HW
LayerCount: 2
Fore
SplineSet
1287 174 m 0
 1306 174 1316 151 1316 140 c 0
 1316 128 1277 100 1231 80 c 0
 1064 10 842 -25 580 -25 c 0
 550 -25 524 -26 501 -26 c 0
 340 -26 322 -17 237 33 c 0
 183 67 118 125 92 162 c 0
 68 198 48 253 48 284 c 0
 48 321 80 380 145 458 c 0
 267 602 408 710 602 776 c 0
 680 805 757 825 772 825 c 0
 842 825 951 782 990 740 c 0
 1007.90935354 720.462523408 1021.17983392 696.286173655 1021.17983392 682.576263374 c 0
 1021.17983392 679.444804956 1020.4875078 676.859384753 1019 675 c 0
 1008 660 875 555 823 555 c 0
 809 555 800 565 800 577 c 0
 800 611 866 656 866 686 c 0
 866 708 815 725 801 725 c 0
 789 725 731 711 670 692 c 0
 503 643 393 585 281 461 c 0
 230 405 184 336 177 310 c 0
 175 303 175 296 175 289 c 0
 175 216 264 136 312 111 c 0
 364 79 493 63 589 63 c 0
 769 63 988 106 1121 141 c 0
 1194 159 1260 174 1287 174 c 0
EndSplineSet
EndChar

StartChar: d
Encoding: 100 100 47
Width: 1447
VWidth: 2625
Flags: HW
LayerCount: 2
Fore
SplineSet
406 675 m 0
 298 675 222 591 180 507 c 0
 151 447 137 402 137 334 c 0
 137 330 138 327 138 323 c 0
 138 211 173 118 240 80 c 0
 259 70 272 65 286 65 c 0
 299 65 314 69 335 77 c 0
 363 88 421 140 464 188 c 1
 541 280 l 1
 472 267 l 1
 453.067684483 263.946400723 439.450316036 262.291471728 429.667288758 262.291471728 c 0
 407.41262415 262.291471728 405 270.855437903 405 291 c 0
 405 312 421 334 448 347 c 0
 499 371 530 415 530 484 c 0
 530 497 529 510 527 525 c 0
 516 609 496 675 406 675 c 0
856 1238 m 0
 848 1249 837 1251 831 1243 c 0
 825 1235 796 1140 762 1029 c 0
 731 918 693 761 678 680 c 0
 665 600 653 525 653 515 c 0
 653 504 664 493 677 493 c 0
 688 493 719 538 744 594 c 0
 816 753 863 925 863 1162 c 0
 863 1202 861 1231 856 1238 c 0
861 1438 m 0
 872 1438 897 1419 912 1394 c 0
 929 1370 935 1346 935 1270 c 0
 935 1230 933 1177 930 1102 c 0
 923 921 911 819 887 745 c 0
 869 688 822 577 784 501 c 0
 742 417 726 382 726 359 c 0
 726 345 732 336 741 322 c 0
 754 301 794 270 829 253 c 0
 865 235 893 228 946 228 c 0
 1038 228 1190 249 1241 267 c 0
 1277 280 1327 293 1354 294 c 0
 1381 294 1399 286 1399 273 c 0
 1399 262 1371 238 1340 223 c 0
 1266 188 1069 146 958 146 c 0
 840 146 775 172 705 224 c 2
 649 266 l 1
 530 140 l 1
 466 70 396 5 376 -3 c 0
 356 -13 314 -21 283 -21 c 0
 195 -21 96 70 72 140 c 0
 61 175 48 256 48 319 c 0
 48 460 76 526 135 602 c 0
 189 677 297 757 421 757 c 0
 456 757 478 746 520 718 c 0
 551.403648573 697.718476963 571.250393118 688.137790989 582.900686901 688.137790989 c 0
 589.057690264 688.137790989 592.925456072 690.813640179 595 696 c 0
 617 772 692 1102 716 1180 c 0
 731 1235 766 1314 793 1359 c 0
 818 1402 848 1438 861 1438 c 0
EndSplineSet
Substitution2: "ss01" d.ss01
EndChar

StartChar: e
Encoding: 101 101 48
Width: 1260
VWidth: 3061
Flags: HW
LayerCount: 2
Fore
SplineSet
690 625 m 0
 690 688 647 714 579 714 c 0
 545 714 477 689 426 658 c 0
 378 626 299 557 251 503 c 0
 205 450 166 390 166 370 c 0
 166 338 183 331 251 331 c 0
 394 331 516 420 603 503 c 0
 649 549 690 603 690 625 c 0
946 58 m 0
 1015 58 1120 69 1170 69 c 0
 1203 69 1212 65 1212 53 c 0
 1212 22 1183 -4 1143 -14 c 0
 1121 -21 1039 -26 940 -26 c 0
 757 -26 480 -4 368 22 c 0
 247 48 210 68 144 134 c 0
 100 180 61 237 54 263 c 0
 50 275 48 294 48 314 c 0
 48 337 50 362 54 384 c 0
 76 498 323 707 428 760 c 0
 489 791 571 814 613 814 c 0
 705 814 790 745 790 658 c 0
 790 626 781 573 771 539 c 0
 742 459 499 291 412 260 c 0
 370 246 314 233 283 231 c 0
 251 231 227 224 227 214 c 0
 227 204 241 185 256 173 c 0
 270 161 326 135 380 120 c 0
 498 89 752 58 946 58 c 0
EndSplineSet
Substitution2: "ss02" e.ss02
Substitution2: "ss01" e.ss01
EndChar

StartChar: f
Encoding: 102 102 49
Width: 856
VWidth: 2741
Flags: HW
LayerCount: 2
Fore
SplineSet
198 92 m 0
 198 64 253 34 280 34 c 0
 290 34 299 60 299 92 c 0
 299 127 289 150 278 150 c 0
 250 150 198 121 198 92 c 0
678 1313 m 2
 674 1359 l 1
 630 1301 l 1
 559 1210 484 1005 453 864 c 0
 444 821 433 774 433 746 c 0
 433 729 437 718 448 718 c 0
 453 718 459 720 467 725 c 0
 477 732 514 798 549 874 c 0
 584 950 629 1067 649 1138 c 0
 667 1201 678 1273 678 1305 c 0
 678 1308 678 1311 678 1313 c 2
706 1491 m 0
 765 1476 782 1431 782 1343 c 0
 782 1186 718 1006 665 879 c 0
 629 791 583 721 514 645 c 0
 438 564 413 522 405 469 c 0
 402.333333333 451.333333333 400.888888889 437.666666667 400.888888889 427 c 0
 400.888888889 405.666666667 406.666666667 396.333333333 420 391 c 0
 423.630521632 389.547791347 428.315498251 388.857133517 433.68628629 388.857133517 c 0
 450.505648522 388.857133517 474.050869387 395.630521632 493 407 c 0
 531 429 710 517 766 517 c 0
 787.245088956 517 807.914471528 507.788697862 807.914471528 490.67655073 c 0
 807.914471528 485.235715349 805.82493646 478.996157867 801 472 c 0
 794 462 743 434 684 409 c 0
 583 368 488 322 433 260 c 0
 420 245 414 219 414 159 c 0
 414 52 433 -125 455 -174 c 0
 470 -209 482 -259 482 -286 c 0
 482 -320 468 -342 439 -360 c 0
 419.032121571 -373.136762124 407.62393929 -379.922781945 397.811012869 -379.922781945 c 0
 388.949386291 -379.922781945 381.388708361 -374.388708361 370 -363 c 0
 356 -348 337 -299 329 -256 c 0
 321 -211 302 -157 285 -133 c 0
 267 -109 207 -61 152 -20 c 0
 89 23 48 66 48 84 c 0
 48 137 174 220 213 244 c 0
 241 261 268 284 275 298 c 0
 281 313 289 403 292 500 c 0
 295 633 310 725 353 883 c 0
 382 998 433 1148 462 1217 c 0
 497 1295 546 1372 595 1421 c 0
 645 1472 671 1493 694 1493 c 0
 698 1493 702 1492 706 1491 c 0
EndSplineSet
EndChar

StartChar: g
Encoding: 103 103 50
Width: 802
VWidth: 2651
Flags: HW
LayerCount: 2
Fore
SplineSet
510 683 m 0
 510 710 501 725 489 725 c 0
 481 725 471 719 460 706 c 0
 401 641 356 507 356 374 c 0
 356 341 363 334 376 334 c 0
 388 334 425 362 456 397 c 0
 486 432 499 450 499 460 c 0
 499 468 491 471 478 475 c 0
 461 481 448 496 448 508 c 0
 448 518 461 553 478 587 c 0
 495 621 510 663 510 683 c 0
506 856 m 0
 575 856 601 807 601 731 c 0
 601 713 600 691 598 664 c 2
 590 551 l 1
 632 559 l 2
 640 561 646 561 652 561 c 0
 673 561 683 549 698 514 c 0
 733 442 754 298 754 174 c 0
 754 9 688 -219 612 -308 c 0
 570 -355 526 -380 453 -380 c 0
 406 -380 327 -363 309 -351 c 0
 244 -311 150 -224 101 -149 c 0
 72 -105 48 -50 48 -30 c 0
 48 -4 63 20 85 20 c 0
 114 20 125 -15 140 -50 c 0
 174 -131 247 -201 316 -254 c 0
 356 -283 394 -298 433 -298 c 0
 475 -298 503 -287 530 -258 c 0
 592 -200 635 -52 651 61 c 0
 657 97 660 129 660 162 c 0
 660 226 634 388 616 412 c 0
 612.557112298 417.852909094 608.877155081 420.860984012 604.47040612 420.860984012 c 0
 596.077582912 420.860984012 585.048491974 409.949893042 568 387 c 0
 550 362 511 318 485 292 c 0
 446 252 424 241 376 241 c 0
 336 241 304 251 282 271 c 0
 255 297 248 321 248 395 c 0
 248 538 319 686 391 773 c 0
 444 841 466 855 506 856 c 0
EndSplineSet
EndChar

StartChar: h
Encoding: 104 104 51
Width: 1013
VWidth: 3171
Flags: HW
LayerCount: 2
Fore
SplineSet
965 107 m 0
 965 75 942 53 922 53 c 0
 907 53 885 77 871 109 c 0
 857 140 828 253 806 363 c 0
 786 472 755 574 740 589 c 0
 729.659209895 600.280861933 721.306823633 605.817446097 710.373581929 605.817446097 c 0
 698.046384629 605.817446097 682.438276135 598.77906624 657 585 c 0
 625 570 560 522 514 480 c 0
 468 438 371 309 301 193 c 0
 225 65 162 -18 138 -25 c 0
 136.181818182 -25.2727272727 134.280991736 -25.4049586777 132.317054846 -25.4049586777 c 0
 112.67768595 -25.4049586777 86.7272727273 -12.1818181818 74 6 c 0
 59 28 48 101 48 211 c 0
 48 566 148 1000 148 1335 c 0
 148 1341 148 1346 148 1352 c 0
 148 1425 150 1473 191 1473 c 0
 201 1473 221 1450 240 1423 c 0
 257 1395 265 1370 265 1322 c 0
 265 1300 263 1272 260 1238 c 0
 241 1071 176 516 157 349 c 0
 153 316 151 287 151 264 c 0
 151 232 155 213 162 213 c 0
 172 213 202 252 228 300 c 0
 303 433 421 565 555 653 c 0
 621 697 696 733 728 733 c 0
 818 733 849 657 876 575 c 1
 906 502 965 222 965 107 c 0
EndSplineSet
EndChar

StartChar: i
Encoding: 105 105 52
Width: 522
VWidth: 2161
Flags: HW
LayerCount: 2
Fore
SplineSet
206 488 m 0
 235 488 245 464 245 436 c 0
 245 404 233 363 221 335 c 0
 205 299 186 230 176 181 c 0
 169 147 164 120 164 102 c 0
 164 81 171 71 188 71 c 0
 200 71 217 76 239 85 c 0
 269 98 320 133 356 164 c 0
 392 195 434 221 448 221 c 0
 465 221 474 211 474 194 c 0
 474 180 443 139 406 103 c 0
 330 36 295 3 194 -15 c 0
 181 -17 172 -18 163 -18 c 0
 138 -18 123 -8 94 19 c 0
 60 50 48 74 48 110 c 0
 48 135 56 183 64 214 c 0
 72 245 102 320 131 381 c 0
 170 467 184 488 206 488 c 0
322 708 m 0
 322 683 312 647 300 647 c 0
 269 647 192 721 187 752 c 0
 185.119571083 758.957586994 184.229225781 766.091974634 184.229225781 773.090649535 c 0
 184.229225781 803.310477482 200.829329644 831 226 831 c 0
 273 831 322 757 322 708 c 0
EndSplineSet
Substitution2: "ss01" i.ss01
EndChar

StartChar: j
Encoding: 106 106 53
Width: 625
VWidth: 2065
Flags: HW
LayerCount: 2
Fore
SplineSet
477 427 m 0
 497 427 514 404 529 377 c 0
 563 313 577 211 577 105 c 0
 577 -64 549 -221 467 -301 c 0
 409 -357 384 -380 288 -380 c 0
 280.864864865 -380 274.249086925 -380.019722425 268.079106864 -380.019722425 c 0
 198.15266618 -380.019722425 185.486486486 -377.486486486 123 -315 c 0
 89 -281 56 -238 52 -218 c 0
 49 -207 48 -196 48 -186 c 0
 48 -162 57 -143 78 -143 c 0
 87 -143 108 -169 123 -202 c 0
 152 -262 202 -313 281 -313 c 0
 356 -313 416 -254 446 -200 c 0
 474 -155 500 1 500 88 c 0
 500 162 474 292 460 341 c 0
 455 357 452 374 452 390 c 0
 452 411 458 427 477 427 c 0
428 749 m 0
 428 773 461 820 476 820 c 0
 482 820 499 805 513 786 c 0
 528 766 541 739 541 724 c 0
 541 688 518 664 481 664 c 0
 459 664 448 675 436 709 c 0
 430 726 428 739 428 749 c 0
EndSplineSet
EndChar

StartChar: k
Encoding: 107 107 54
Width: 1097
VWidth: 3369
Flags: HW
LayerCount: 2
Fore
SplineSet
242 1460 m 0
 253 1460 269 1440 282 1417 c 0
 290 1401 294 1376 294 1339 c 0
 294 1306 291 1264 284 1210 c 0
 257 1019 176 558 176 349 c 0
 176 270 183 202 192 195 c 0
 193.431556878 194.08900926 195.218786953 193.65224945 197.313198188 193.65224945 c 0
 211.312121378 193.65224945 239.034387564 213.164529098 266 241 c 0
 360 342 451 493 521 641 c 0
 557 718 601 785 617 792 c 0
 621.930170198 794.175075087 627.238816526 795.172668879 632.712513132 795.172668879 c 0
 664.987145115 795.172668879 703 760.489809779 703 728 c 0
 703 702 690 662 665 583 c 0
 638 496 626 428 626 366 c 0
 626 290 653 205 682 164 c 0
 717 119 734 108 808 108 c 0
 871 108 952 118 991 128 c 0
 1006.15882419 132.021728866 1017.48941096 134.225044961 1025.90960671 134.225044961 c 0
 1044.70719424 134.225044961 1049 123.24417716 1049 97 c 0
 1049 24 905 -27 795 -27 c 0
 760 -27 729 -22 707 -11 c 0
 633 29 546 110 514 196 c 0
 501 234 485 267 476 267 c 0
 467 267 416 219 358 160 c 0
 290 92 228 49 183 40 c 0
 171.050943577 37.4990347023 159.33354743 36.3880310535 148.212602788 36.3880310535 c 0
 119.313599186 36.3880310535 94.4422993384 43.8903904631 80 54 c 0
 57 74 48 128 48 276 c 0
 48 499 127 1073 154 1264 c 0
 163 1336 184 1412 197 1428 c 0
 211 1444 231 1460 242 1460 c 0
EndSplineSet
EndChar

StartChar: l
Encoding: 108 108 55
Width: 1120
VWidth: 2929
Flags: HW
LayerCount: 2
Fore
SplineSet
622 1257 m 0
 618.452299936 1290.70315061 617.351911822 1305.1774216 611.670283805 1305.1774216 c 0
 607.742934881 1305.1774216 601.626633057 1298.26149968 591 1286 c 0
 517 1186 482 1133 398 963 c 0
 346 863 304 769 304 753 c 0
 304 737 316 725 326 725 c 0
 336 725 367 751 394 779 c 0
 468 859 547 980 591 1097 c 0
 610 1147 623 1210 623 1247 c 0
 623 1251 622 1254 622 1257 c 0
660 1511 m 0
 730 1511 734 1451 734 1341 c 0
 734 1169 690 1042 627 930 c 0
 573 836 407 629 303 599 c 1
 199 565 185 512 152 392 c 0
 139 344 132 311 132 281 c 0
 132 259 135 237 142 210 c 0
 172 105 221 78 363 78 c 0
 368 78 373 78 378 78 c 0
 454 78 503 90 573 122 c 0
 627 144 757 220 861 284 c 0
 966 350 1054 404 1062 404 c 0
 1068 404 1072 393 1072 378 c 0
 1072 363 1038 325 998 291 c 0
 887 209 697 78 555 20 c 0
 480 -11 438 -23 378 -23 c 0
 284 -23 207 -5 154 29 c 0
 68 92 48 149 48 299 c 0
 50 395 67 458 135 629 c 0
 228 866 407 1232 543 1404 c 0
 591 1462 644 1511 660 1511 c 0
EndSplineSet
EndChar

StartChar: m
Encoding: 109 109 56
Width: 1712
VWidth: 3371
Flags: HW
LayerCount: 2
Fore
SplineSet
490 12 m 0
 437 12 424 49 424 111 c 0
 424 243 461 558 461 604 c 0
 461 632.732869461 461 645.894141422 454.22095942 645.894141422 c 0
 448.259602045 645.894141422 437.055942116 635.716392992 416 617 c 0
 391 595 313 502 243 412 c 0
 175 320 104 246 88 246 c 0
 76 246 48 262 48 280 c 0
 48 298 62 343 83 385 c 0
 141 500 315 720 414 799 c 0
 456 834 495 858 529 858 c 0
 586 858 622 781 622 706 c 0
 622 616 587 491 587 344 c 0
 587 311 590 289 599 289 c 0
 613 289 641 325 661 370 c 0
 683 422 880 680 955 680 c 0
 958 680 962 679 965 678 c 0
 1030 651 1037 622 1037 509 c 0
 1037 448 1040 396 1044 396 c 0
 1051 396 1130 469 1222 561 c 0
 1314 653 1424 745 1469 765 c 0
 1505 782 1544 792 1571 792 c 0
 1607 792 1638 759 1642 730 c 0
 1649 706 1664 247 1664 122 c 0
 1664 12 1657 -18 1640 -24 c 0
 1624 -31 1599 -26 1586 -13 c 0
 1575 -2 1551 70 1535 144 c 0
 1521 216 1507 352 1505 444 c 0
 1505 565 1500 608 1478 608 c 0
 1462 608 1384 543 1310 464 c 0
 1236 385 1133 275 1084 219 c 0
 1023 152 972 118 938 118 c 0
 876 118 854 162 854 228 c 0
 854 263 866 341 866 370 c 0
 866 384 864 390 859 390 c 0
 854 390 847 385 837 376 c 0
 815 362 768 291 725 223 c 0
 685 155 625 78 594 55 c 0
 563 32 517 12 490 12 c 0
EndSplineSet
Substitution2: "ss01" m.ss01
EndChar

StartChar: n
Encoding: 110 110 57
Width: 1295
VWidth: 3150
Flags: HW
LayerCount: 2
Fore
SplineSet
1226 526 m 0
 1226 472 1218 432 1218 374 c 0
 1218 308 1223 228 1233 167 c 0
 1242 104 1247 65 1247 39 c 0
 1247 9 1241 -3 1226 -12 c 0
 1209 -22 1190 -27 1178 -25 c 0
 1168 -22 1141 30 1119 84 c 0
 1061 238 1068 600 1051 600 c 0
 1048 600 1004 573 956 541 c 0
 828 451 759 367 679 216 c 0
 642 148 601 90 584 82 c 0
 575.44685427 78.8488410469 564.056622041 77.3188743791 552.109943752 77.3188743791 c 0
 537.51821212 77.3188743791 522.096357576 79.6013245178 510 84 c 0
 486.984845005 91.192235936 478.453602182 99.9363196047 478.453602182 127.718217221 c 0
 478.453602182 138.563942313 479.753788749 152.311086397 482 170 c 0
 494 255 556 505 556 597 c 0
 556 641 546 662 526 662 c 0
 507 662 443 609 378 544 c 0
 315 481 233 393 199 351 c 0
 162 309 117 276 90 276 c 0
 61 276 48 286 48 315 c 0
 48 339 91 415 145 485 c 0
 198 556 277 644 325 685 c 0
 369 726 451 781 509 803 c 0
 563 825 616 844 626 844 c 0
 626.568106761 844.113621352 627.194307675 844.169148552 627.873835544 844.169148552 c 0
 639.15557824 844.169148552 665.136213523 828.863786477 684 810 c 0
 711 786 720 750 720 668 c 0
 720 608 723 560 730 560 c 0
 737 560 782 590 835 629 c 0
 889 668 971 719 1019 743 c 0
 1062 765 1089 775 1111 775 c 0
 1124 775 1134 771 1146 765 c 0
 1200 731 1226 631 1226 526 c 0
EndSplineSet
Substitution2: "ss01" n.ss01
EndChar

StartChar: o
Encoding: 111 111 58
Width: 1181
VWidth: 3547
Flags: HW
LayerCount: 2
Fore
SplineSet
412 667 m 0
 404 667 374 645 342 615 c 0
 260 539 252 479 232 327 c 0
 228 289 225 256 225 229 c 0
 225 170 239 137 295 137 c 0
 309 137 325 139 344 143 c 0
 472 163 540 267 572 403 c 0
 586 450 597 490 597 519 c 0
 597 550 584 569 548 569 c 0
 532 569 496 593 472 619 c 0
 448 645 422 667 412 667 c 0
448 837 m 0
 562 837 702 791 762 725 c 0
 794 691 868 657 948 641 c 0
 1019 625 1133 597 1133 544 c 0
 1133 538 1132 530 1128 523 c 0
 1118 509 1054 497 986 497 c 0
 816 497 758 453 724 321 c 0
 690 191 524 27 394 -11 c 0
 353 -24 316 -30 283 -30 c 0
 210 -30 156 -1 106 49 c 0
 60 95 48 133 48 223 c 0
 48 373 102 575 162 669 c 1
 208 751 332 837 448 837 c 0
EndSplineSet
Substitution2: "ss01" o.ss01
EndChar

StartChar: p
Encoding: 112 112 59
Width: 847
VWidth: 3542
Flags: HW
LayerCount: 2
Fore
SplineSet
430 405 m 0
 531 405 637 475 637 569 c 0
 637 600 628 623 617 623 c 0
 587 623 560 633 525 633 c 0
 515 633 505 632 494 630 c 0
 426 612 376 551 340 490 c 0
 328 465 322 447 322 435 c 0
 322 405 356 405 430 405 c 0
203 886 m 0
 210 886 227 873 241 859 c 0
 255 845 266 807 266 776 c 0
 266 721 274 700 295 700 c 0
 313 700 339 715 377 736 c 0
 426 763 462 775 518 775 c 0
 603 775 698 748 741 717 c 0
 786 682 799 659 799 596 c 0
 799 591 799 587 799 582 c 0
 799 454 721 380 635 330 c 0
 581 298 521 285 415 285 c 0
 289 285 266 279 255 241 c 0
 239 180 223 -241 210 -308 c 0
 201 -369 190 -380 138 -380 c 0
 100 -380 70 -365 61 -345 c 0
 54 -325 48 -257 48 -189 c 0
 48 -121 59 7 70 97 c 0
 81 187 103 392 116 556 c 0
 129 734 149 859 163 868 c 0
 177 877 194 886 203 886 c 0
EndSplineSet
EndChar

StartChar: q
Encoding: 113 113 60
Width: 737
VWidth: 2791
Flags: HW
LayerCount: 2
Fore
SplineSet
483 574 m 0
 483 618 466 733 446 733 c 0
 436 733 404 720 377 703 c 0
 313 665 223 562 191 495 c 0
 178.354890472 472.583669472 172.317169166 457.105096579 172.317169166 444.766501874 c 0
 172.317169166 435.638372001 175.621665588 428.228779001 182 421 c 0
 202 398 227 389 253 389 c 0
 325 389 407 458 441 494 c 0
 473 527 483 540 483 574 c 0
467 868 m 0
 468 868 498 857 532 843 c 0
 564 829 613 817 640 817 c 0
 682 817 689 812 689 773 c 0
 689 746 679 663 665 589 c 0
 643 470 629 348 629 221 c 0
 629 143 634 64 647 -17 c 0
 666 -132 685 -215 685 -276 c 0
 685 -303 677 -321 656 -342 c 0
 638 -364 609 -380 598 -380 c 0
 584 -380 568 -370 558 -359 c 0
 550 -349 537 -266 531 -178 c 0
 528 -130 506 396 492 396 c 0
 486 396 461 378 433 354 c 0
 388 318 330 285 258 285 c 0
 236 285 212 288 187 295 c 0
 109 315 48 349 48 437 c 0
 48 469 66 520 91 558 c 0
 151 649 272 777 377 827 c 0
 425 849 464 868 467 868 c 0
EndSplineSet
EndChar

StartChar: r
Encoding: 114 114 61
Width: 1130
VWidth: 2907
Flags: HW
LayerCount: 2
Fore
SplineSet
242 64 m 0
 242 158 285 431 285 523 c 0
 285 549 283 567 279 578 c 0
 269 605 237 663 200 663 c 0
 191 663 182 660 172 651 c 0
 158 641 138 636 118 636 c 0
 86 636 54 649 48 677 c 0
 47.7585556275 678.690110608 47.64017929 680.483857455 47.64017929 682.36768675 c 0
 47.64017929 703.890855205 63.092517895 737.172999353 87 762 c 0
 115 792 134 803 168 803 c 0
 228 803 293 777 322 750 c 0
 344 728 375 709 388 709 c 0
 399 709 416 723 426 741 c 0
 436 759 451 766 467 766 c 0
 508 766 559 721 575 690 c 0
 597 645 620 632 660 632 c 0
 689 632 753 659 799 694 c 0
 845 726 913 780 948 810 c 0
 983 839 1022 864 1040 864 c 0
 1056 864 1073 851 1079 835 c 0
 1081 831 1081.9375 825.9375 1081.9375 820.1875 c 0
 1081.9375 802.9375 1073.5 779.5 1060 760 c 0
 1026 702 783 519 706 506 c 0
 685 503 663 501 640 501 c 0
 584 501 526 509 490 518 c 0
 488 519 487 519 485 519 c 0
 410 519 409 52 368 2 c 0
 357 -11 329 -24 303 -24 c 0
 260 -24 242 9 242 64 c 0
EndSplineSet
Substitution2: "ss01" r.ss01
EndChar

StartChar: s
Encoding: 115 115 62
Width: 733
VWidth: 2923
Flags: HW
LayerCount: 2
Fore
SplineSet
593 689 m 0
 577 689 547 692 526 692 c 0
 475 692 431 682 384 659 c 0
 341 637 306 604 306 590 c 0
 306 576 368 532 448 494 c 0
 528 456 613 400 637 370 c 0
 669 332 685 290 685 245 c 0
 685 61 522 -24 330 -24 c 0
 205 -24 102 2 59 69 c 0
 52 85 48 99 48 111 c 0
 48 132 60 146 88 146 c 0
 102 146 150 128 192 106 c 0
 235 84 266 74 303 74 c 0
 369 74 445 99 488 125 c 0
 527 150 561 182 561 225 c 0
 561 242 556 260 544 280 c 0
 533 304 459 357 368 402 c 0
 283 445 200 491 186 504 c 0
 168 518 155 548 155 570 c 0
 161 644 226 689 285 731 c 1
 347 781 447 821 538 827 c 0
 591 827 644 790 644 738 c 0
 644 703 635 689 593 689 c 0
EndSplineSet
Substitution2: "ss01" s.ss01
EndChar

StartChar: t
Encoding: 116 116 63
Width: 673
VWidth: 3918
Flags: HW
LayerCount: 2
Fore
SplineSet
326 833 m 0
 326 773 354 750 420 750 c 0
 464 750 503 739 512 726 c 0
 512.818958106 724.817060514 513.215628417 723.592720264 513.215628417 722.336020715 c 0
 513.215628417 709.782128648 473.631274642 693.999051204 420 684 c 0
 284 663 234 594 234 434 c 0
 234 408 235 378 237 343 c 0
 246 178 255 145 312 99 c 0
 358 66 426 48 514 48 c 0
 593 47 625 45 625 35 c 0
 625 29 615 22 598 9 c 0
 569 -15 488 -33 413 -33 c 0
 325 -33 255 -13 204 22 c 0
 134 73 125 90 110 312 c 0
 101 442 78 574 63 609 c 0
 53.2048698151 627.083317264 48.093424521 641.476458554 48.093424521 655.120276642 c 0
 48.093424521 677.692339669 62.0833172644 698.213524593 92 730 c 0
 136 776 169 886 217 1124 c 0
 254 1307 292 1470 301 1483 c 0
 308.418995218 1493.71632643 327.389908101 1501.03503001 347.269805209 1501.03503001 c 0
 351.506256569 1501.03503001 355.783987249 1500.70266879 360 1500 c 0
 392.390034215 1491.67113406 404.225992026 1467.07029097 404.225992026 1400.83567118 c 0
 404.225992026 1395.4985329 404.149140902 1389.89106563 404 1384 c 0
 402 1325 380 1180 356 1063 c 0
 338 973 326 883 326 833 c 0
EndSplineSet
Substitution2: "ss01" t.ss01
EndChar

StartChar: u
Encoding: 117 117 64
Width: 915
VWidth: 3437
Flags: HW
LayerCount: 2
Fore
SplineSet
196 851 m 0
 217 851 230 830 230 796 c 0
 230 766 217 705 198 661 c 0
 171 598 131 414 131 279 c 0
 131 243 134 210 141 184 c 0
 156 109 202 23 282 23 c 0
 292 23 301 24 312 27 c 0
 361 38 390 78 451 209 c 0
 495 302 547 442 568 526 c 0
 589 610 616 697 627 720 c 0
 640 741 665 758 684 758 c 0
 704 758 713 749 713 717 c 0
 713 701 711 679 707 650 c 0
 699 587 689 473 681 395 c 0
 677 357 675 327 675 302 c 0
 675 252 683 222 703 194 c 0
 724 162 768 133 802 129 c 1
 867 120 l 1
 802 87 l 1
 773.769281883 73.6836235295 754.050206116 67.1765609395 736.646621245 67.1765609395 c 0
 721.376931766 67.1765609395 707.889728 72.1857562352 692 82 c 0
 669 99 626 126 601 139 c 0
 588 147 577 151 567 151 c 0
 544 151 520 128 464 68 c 0
 382 -18 363 -28 270 -28 c 0
 204 -28 146 -13 112 15 c 0
 63 55 58 83 50 256 c 0
 49 278 48 301 48 322 c 0
 48 505 89 667 135 788 c 0
 148 822 175 851 196 851 c 0
EndSplineSet
EndChar

StartChar: v
Encoding: 118 118 65
Width: 1124
VWidth: 3361
Flags: HW
LayerCount: 2
Fore
SplineSet
772 648 m 0
 816 648 987 688 1042 688 c 0
 1063 688 1076 684 1076 675 c 0
 1076 667 1065 654 1040 636 c 0
 994 600 762 563 707 536 c 0
 690 526 646 427 612 321 c 0
 561 163 530 110 460 49 c 0
 392 -10 349 -28 284 -28 c 0
 147 -28 103 86 76 213 c 0
 63 281 50 407 48 496 c 0
 48 587 60 700 73 749 c 1
 90 797 118 834 137 834 c 0
 156 834 170 815 172 794 c 0
 172 775 169 621 169 515 c 0
 169 405 180 278 192 222 c 0
 209 163 240 99 263 78 c 0
 283 61 294.75 52.5 308.375 52.5 c 0
 322 52.5 337.5 61 365 78 c 0
 397 99 445 160 470 213 c 0
 495 266 534 403 555 515 c 0
 578 635 609 727 628 735 c 0
 630.468419804 736.161609319 633.295257039 736.711800668 636.400917096 736.711800668 c 0
 654.683928811 736.711800668 682.630029123 717.643965052 704 692 c 0
 728 662 738 648 772 648 c 0
EndSplineSet
EndChar

StartChar: w
Encoding: 119 119 66
Width: 1209
VWidth: 3018
Flags: HW
LayerCount: 2
Fore
SplineSet
1007 740 m 0
 1050 740 1161 704 1161 681 c 0
 1161 656 1071 615 1056 601 c 0
 1038 585 1021 524 1013 454 c 0
 999 332 954 92 893 25 c 0
 875 6 836 -12 804 -12 c 0
 716 -12 672 20 640 86 c 0
 622 120 596 145 580 145 c 0
 562 145 530 124 509 97 c 0
 469 45 365 -24 273 -24 c 0
 262 -24 252 -23 242 -21 c 0
 133 -3 101 28 69 142 c 0
 54 194 48 247 48 302 c 0
 48 406 69 514 84 617 c 0
 95 687 118 762 132 788 c 0
 148 812 170 832 180 832 c 0
 191 832 199 803 199 766 c 0
 199 729 186 631 168 548 c 0
 152 473 143 380 143 302 c 0
 143 283 143 266 144 249 c 0
 150 124 157 97 197 65 c 0
 222 45 245 38 267 38 c 0
 304 38 339 60 376 84 c 0
 464 146 510 273 544 412 c 0
 562 487 584 567 594 593 c 0
 604 617 622 636 640 636 c 0
 656 636 670 623 672 612 c 0
 672 598 674 509 676 411 c 0
 679 278 690 214 719 155 c 0
 740 112 772 76 788 76 c 0
 804 76 826 101 840 128 c 0
 869 190 944 542 944 636 c 0
 944 707 957 740 1007 740 c 0
EndSplineSet
EndChar

StartChar: x
Encoding: 120 120 67
Width: 1058
VWidth: 3025
Flags: HW
LayerCount: 2
Fore
SplineSet
689 133 m 0
 739 133 862 140 912 140 c 0
 961 140 984 136 984 127 c 0
 984 81 832 78 770 75 c 0
 644 75 507 125 438 184 c 0
 411 210 370 230 349 230 c 0
 323 230 261 184 189 104 c 0
 125 34 67 -24 59 -24 c 0
 53 -24 48 -7 48 14 c 0
 48 38 106 117 176 192 c 0
 271 293 297 323 297 363 c 0
 297 375 294 387 291 403 c 0
 280 481 224 696 224 782 c 0
 224 825 235 838 262 838 c 0
 288 838 302 821 310 786 c 0
 321 730 358 493 374 443 c 0
 380 424 400 408 418 408 c 0
 436 408 499 440 558 482 c 0
 617 522 715 592 774 635 c 0
 833 680 899 734 918 758 c 0
 939 779 968 800 984 800 c 0
 998 800 1010 792 1010 782 c 0
 1010 771 946 710 869 648 c 0
 791 586 672 496 608 446 c 0
 544 400 483 352 475 341 c 0
 467 330 460 301 462 280 c 0
 462 259 492 216 534 184 c 0
 587 144 604 133 689 133 c 0
EndSplineSet
EndChar

StartChar: y
Encoding: 121 121 68
Width: 626
VWidth: 2687
Flags: HW
LayerCount: 2
Fore
SplineSet
133 767 m 0
 145 767 151 728 151 692 c 0
 151 654 163 604 183 575 c 0
 200 545 227 521 244 521 c 0
 316 521 355 555 403 603 c 0
 432 632 470 690 491 738 c 0
 514 791 539 823 556 823 c 0
 572 823 578 816 578 775 c 0
 578 755 577 728 574 690 c 0
 553 457 503 264 441 39 c 0
 405 -88 363 -194 333 -238 c 0
 287 -308 204 -380 104 -380 c 1
 48 -378 l 1
 108 -363 l 1
 194 -338 276 -247 311 -168 c 0
 359 -59 448 273 469 417 c 0
 477 471 482 519 482 545 c 0
 482 558 482 565 476 565 c 0
 465 565 435 550 404 529 c 0
 364 502 344 492 312 492 c 0
 236 492 185 513 148 554 c 0
 122 581 104 619 104 640 c 0
 104 661 114 767 133 767 c 0
EndSplineSet
EndChar

StartChar: z
Encoding: 122 122 69
Width: 795
VWidth: 2703
Flags: HW
LayerCount: 2
Fore
SplineSet
50 326 m 0
 50 362 71 369 148 371 c 0
 280 371 317 383 368 475 c 0
 392 517 421 584 435 623 c 0
 443 651 449 681 449 708 c 0
 449 750 434 782 388 782 c 0
 308 782 142 576 114 512 c 0
 97.5035887838 473.508373829 75.967703808 444.255782883 66.3268922201 444.255782883 c 0
 65.4481667822 444.255782883 64.6682616817 444.498803739 64 445 c 0
 55 451 48 472 48 496 c 0
 48 518 72 573 102 619 c 0
 152 701 258 812 351 836 c 0
 383 845 415 854 429 854 c 0
 429.424163097 854.084832619 429.882509918 854.126485799 430.372903697 854.126485799 c 0
 441.443953674 854.126485799 468.848326194 832.897175947 488 808 c 0
 510 781 526 737 526 707 c 0
 526 677 510 608 488 551 c 0
 471 507 461 466 461 445 c 0
 461 439 462 435 464 433 c 0
 468.5 428.5 481 426.25 497.375 426.25 c 0
 513.75 426.25 534 428.5 554 433 c 0
 594 442 655 452 688 452 c 0
 727 452 747 442 747 424 c 0
 747 408 722 396 680 388 c 0
 641 382 564 368 508 359 c 0
 424 344 396 330 339 266 c 0
 300 226 266 163 258 130 c 0
 255 109 253 91 253 78 c 0
 253 45 265 34 301 34 c 0
 383 34 481 60 543 86 c 0
 587 106 638 121 658 121 c 0
 678 121 691 112 688 98 c 0
 685 88 630 59 570 35 c 0
 504 10 396 -22 306 -22 c 0
 271 -22 239 -17 213 -5 c 0
 176 16 162 42 162 74 c 0
 162 108 178 149 202 194 c 0
 223 234 239 272 239 287 c 0
 239 303 188 304 136 304 c 0
 68 304 50 308 50 326 c 0
EndSplineSet
EndChar

StartChar: adieresis
Encoding: 228 228 70
Width: 677
VWidth: 2170
Flags: HW
LayerCount: 2
Fore
SplineSet
284 443 m 0
 232 443 163 359 140 319 c 0
 116 280 98 227 98 174 c 0
 98 146 103 119 115 94 c 0
 136 52 152 29 193 29 c 0
 250 29 297 53 340 91 c 0
 391 135 410 177 410 259 c 0
 410 315 358 390 334 418 c 0
 322 431 298 443 284 443 c 0
629 68 m 0
 629 58 610 42 591 42 c 0
 547 42 441 85 419 85 c 0
 407 85 368 65 332 41 c 0
 288 12 239 -18 185 -18 c 0
 165 -18 145 -14 124 -5 c 0
 63 18 48 74 48 164 c 0
 48 277 108 383 176 430 c 0
 207 453 247 478 264 486 c 0
 281 493 302 502 313 502 c 0
 363 502 392 463 412 413 c 0
 425 381 439 353 445 353 c 0
 457 353 538 438 564 438 c 0
 577 438 584 408 584 390 c 0
 584 372 565 317 540 271 c 0
 516 225 494 174 494 160 c 0
 494 116 534 103 581 92 c 0
 606 87 629 75 629 68 c 0
507 660 m 0
 507 649 507 636 498 636 c 0
 476 636 436 709 436 726 c 0
 436 751 443 796 466 796 c 0
 468 796 470 796 472 796 c 0
 480 793 507 705 507 660 c 0
229 731 m 0
 229 760 250 815 271 815 c 0
 278 815 287 796 287 776 c 0
 287 756 294 725 302 708 c 0
 307 699 310 690 310 682 c 0
 310 666 301 656 285 656 c 0
 248 656 229 691 229 731 c 0
EndSplineSet
EndChar

StartChar: odieresis
Encoding: 246 246 71
Width: 751
VWidth: 2115
Flags: HW
LayerCount: 2
Fore
SplineSet
331 338 m 0
 331 371 301 398 265 398 c 0
 257 398 248 396 239 393 c 0
 191 376 133 229 125 169 c 0
 122 152 120 134 120 117 c 0
 120 58.2044775964 138.750516766 30.091618992 180.962859823 30.091618992 c 0
 194.75074644 30.091618992 211.041733655 33.0909299704 230 39 c 0
 258 50 309 90 347 133 c 0
 384 175 414 222 414 236 c 0
 414 256.48 402.1216 260.1664 383.60768 260.1664 c 0
 373.1936 260.1664 360.68 259 347 259 c 0
 327 259 322 265 322 275 c 0
 322 289 331 313 331 338 c 0
171 -18 m 0
 99 -18 48 16 48 91 c 0
 48 178 102 320 126 362 c 0
 161 419 205 462 278 462 c 0
 316 462 350 447 380 424 c 0
 401 407 423 399 441 399 c 0
 450 399 459 403 467 403 c 0
 484 403 496 391 512 364 c 0
 525 340 549 320 562 320 c 0
 575 320 641 341 678 341 c 0
 689 341 703 339 703 330 c 0
 703 305 560 261 541 261 c 0
 487 261 463 207 443 166 c 0
 431 143 390 96 350 60 c 0
 287 4 253 -18 171 -18 c 0
271 824 m 0
 282 824 295 811 300 793 c 0
 303.720193005 778.119227981 306.310603479 771.429379305 314.225852488 771.429379305 c 0
 321.204116529 771.429379305 332.321158028 776.629122871 352 786 c 0
 368 794 382 798 392 798 c 0
 420 798 428 771 428 728 c 2
 428 680 l 1
 329 681 l 2
 234 682 223 684 223 726 c 0
 223 763 244 824 271 824 c 0
EndSplineSet
EndChar

StartChar: udieresis
Encoding: 252 252 72
Width: 641
VWidth: 1964
Flags: HW
LayerCount: 2
Fore
SplineSet
132 -17 m 0
 79 -17 48 39 48 85 c 0
 48 118 57 157 69 206 c 0
 84 264 111 346 132 387 c 0
 150 425 175 490 199 490 c 0
 211.91723747 490 215.049766751 471.975537547 215.049766751 449.230970457 c 0
 215.049766751 440.28128337 214.564751392 430.600773668 214 421 c 0
 205 349 126 199 114 133 c 0
 113 124 112 115 112 107 c 0
 112 86 116 69 126 56 c 0
 134.381820159 43.9511335221 140.019307928 38.21423154 148.663088443 38.21423154 c 0
 156.519362287 38.21423154 166.859095357 42.9534114383 184 52 c 0
 241 84 289 133 331 186 c 0
 349 210 381 277 402 333 c 0
 423 389 447 442 455 453 c 0
 463 461 470 465 477 465 c 0
 492 465 502 447 502 424 c 0
 502 389 434 209 434 174 c 0
 434 139 479 93 518 93 c 0
 534 93 576 100 586 100 c 0
 591 100 593 99 593 97 c 0
 593 93 587 87 577 75 c 0
 564 60 538 49 520 49 c 0
 476 49 404 85 379 105 c 0
 374 109 369 111 363 111 c 0
 349 111 330 98 292 64 c 0
 256 33 205 0 176 -8 c 0
 157 -14 144 -17 132 -17 c 0
475 748 m 0
 475 702 471 662 451 662 c 0
 430 662 421 702 421 723 c 0
 421 747 442 822 464 822 c 0
 470 822 475 789 475 748 c 0
284 726 m 0
 284 757 300 832 324 832 c 0
 350 832 354 722 368 705 c 0
 373 699 375 695 375 691 c 0
 375 680 359 676 341 676 c 0
 303 676 284 688 284 726 c 0
EndSplineSet
EndChar

StartChar: germandbls
Encoding: 223 223 73
Width: 1208
VWidth: 3132
Flags: HW
LayerCount: 2
Fore
SplineSet
1026 1410 m 0
 1026 1463 996 1470 917 1470 c 0
 864 1470 798 1458 764 1441 c 0
 664 1387 538 1232 490 1106 c 0
 466 1041 437 924 427 846 c 0
 417 768 403 508 395 265 c 0
 388 22 376 -218 368 -271 c 0
 356 -349 343 -368 301 -371 c 1
 254 -380 l 1
 271 -140 l 1
 281 -11 289 200 289 326 c 0
 289 333 289 339 289 345 c 0
 289 496 289 563 255 563 c 0
 237 563 209 544 167 508 c 0
 128 472 84 443 72 443 c 0
 60 443 48 455 48 470 c 0
 48 482 60 511 75 530 c 0
 109 574 273 663 300 714 c 0
 310 738 320 783 320 819 c 0
 320 952 429 1204 487 1298 c 0
 562 1412 638 1485 769 1526 c 0
 806 1539 862 1547 918 1547 c 0
 1040 1547 1126 1524 1126 1414 c 0
 1126 1357 1102 1291 1078 1244 c 0
 1052 1196 1034 1144 1034 1127 c 0
 1034 1108 1063 1048 1097 994 c 0
 1136 933 1160 868 1160 822 c 0
 1160 776 1140 717 1104 669 c 0
 1084 637 902 438 834 438 c 0
 822 438 810 447 810 459 c 0
 810 476 832 503 881 544 c 1
 927 588 991 659 1020 703 c 0
 1049 747 1076 809 1076 841 c 0
 1076 870 1041 945 1002 1001 c 0
 963 1057 929 1116 929 1133 c 0
 929 1150 954 1213 983 1274 c 0
 1011 1331 1026 1380 1026 1410 c 0
EndSplineSet
EndChar

StartChar: one
Encoding: 49 49 74
Width: 1382
VWidth: 3604
Flags: HW
LayerCount: 2
Fore
SplineSet
1282 1453 m 0
 1306 1453 1334 1411 1334 1368 c 0
 1334 1314 1297 1118 1245 916 c 0
 1190 703 1140 450 1131 353 c 0
 1128 321 1127 289 1127 258 c 0
 1127 187 1133 123 1144 91 c 0
 1152 67 1156 46 1156 27 c 0
 1156 -9 1140 -33 1110 -33 c 0
 1097 -33 1082 -29 1063 -19 c 0
 1023 3 1014 41 1014 188 c 0
 1014 397 1120 822 1142 998 c 0
 1146.5 1029 1148.75 1057 1148.75 1077.25 c 0
 1148.75 1097.5 1146.5 1110 1142 1110 c 0
 1133 1110 1007 991 860 846 c 0
 715 701 537 544 464 496 c 0
 391 450 289 402 238 393 c 0
 217 389 197 386 178 386 c 0
 120.757871281 386 47.6770832762 413.288808124 47.6770832762 462.432559103 c 0
 47.6770832762 481.940702864 81.2425600678 490 156 490 c 0
 242 490 310 512 405 571 c 0
 588 690 1012 1112 1135 1297 c 0
 1195 1391 1256 1453 1282 1453 c 0
EndSplineSet
EndChar

StartChar: two
Encoding: 50 50 75
Width: 1404
VWidth: 3547
Flags: HW
LayerCount: 2
Fore
SplineSet
217 -30 m 0
 212.459459459 -30 207.951059167 -30.0029218408 203.484591238 -30.0029218408 c 0
 125.321402484 -30.0029218408 60 -29.1081081081 60 4 c 0
 60 28 99 72 200 173 c 0
 378 347 562 575 658 799 c 0
 696 884 737 1035 737 1166 c 0
 737 1216 731 1263 716 1303 c 0
 694 1363 680 1369 572 1369 c 0
 370 1369 242 1273 160 1131 c 0
 120 1059 78 1001 68 999 c 0
 56 999 48 1029 48 1069 c 0
 48 1107 78 1179 112 1231 c 0
 194 1347 374 1443 568 1443 c 0
 682 1443 714 1435 764 1383 c 0
 806 1337 818 1301 818 1201 c 0
 818 1193 818 1184 818 1175 c 0
 818 963 772 843 696 691 c 0
 622 547 448 333 354 217 c 0
 324.19820409 178.432969999 300.542754475 135.256180279 300.542754475 113.05985877 c 0
 300.542754475 109.933044264 301.012187273 107.222578636 302 105 c 0
 310 82 346 74 433 74 c 0
 452 74 473 74 498 75 c 0
 670 83 1148 101 1290 127 c 0
 1304.56439237 129.912878475 1316.243932 131.468179188 1325.48349553 131.468179188 c 0
 1347.96363336 131.468179188 1356 122.261364576 1356 101 c 0
 1356 79 1348 61 1338 59 c 0
 1002 59 694 -7 354 -25 c 0
 303 -28 257 -30 217 -30 c 0
EndSplineSet
EndChar

StartChar: three
Encoding: 51 51 76
Width: 838
VWidth: 3186
Flags: HW
LayerCount: 2
Fore
SplineSet
287 -27 m 0
 246 -27 170 -18 170 -1 c 0
 170 14 232 27 278 27 c 0
 402 27 573 77 643 142 c 0
 691 185 705 206 705 257 c 0
 705 434 630 519 517 578 c 0
 481 596 422 618 386 625 c 0
 337 637 314 651 314 669 c 0
 314 689 342 711 391 736 c 0
 497 790 606 923 651 1035 c 0
 669 1076 683 1153 683 1194 c 0
 683 1315 647 1354 557 1397 c 0
 517 1412 479 1419 442 1419 c 0
 358 1419 284 1383 228 1327 c 0
 187 1287 145 1223 138 1185 c 0
 129 1145 113 1097 89 1097 c 0
 81 1097 70 1103 60 1118 c 0
 52.4842409463 1130.29851482 47.7694720159 1153.33415844 47.7694720159 1178.81388937 c 0
 47.7694720159 1190.62607243 48.7827557614 1202.96353128 51 1215 c 0
 69 1309 197 1424 273 1462 c 0
 311 1478 361 1490 388 1492 c 0
 485 1492 629 1416 683 1366 c 0
 725 1327 737 1297 737 1223 c 0
 737 1218 737 1212 737 1206 c 0
 737 1035 665 900 582 792 c 0
 541 738 507 684 507 673 c 0
 507 662 539 634 579 609 c 0
 650 570 790 403 790 301 c 0
 790 289 789 277 787 263 c 0
 762 74 638 9 436 -16 c 0
 388 -23 332 -27 287 -27 c 0
EndSplineSet
EndChar

StartChar: four
Encoding: 52 52 77
Width: 1159
VWidth: 2922
Flags: HW
LayerCount: 2
Fore
SplineSet
576 543 m 0
 576 549.324324324 576.078889701 554.859751644 576.078889701 559.695832428 c 0
 576.078889701 584.682249817 573.972972973 591 548 591 c 0
 523 591 479 584 427 570 c 0
 361 551 269 537 223 537 c 0
 143 537 48 572 48 643 c 0
 48 665 70 724 92 772 c 0
 204 988 368 1207 536 1387 c 0
 592 1445 650 1496 665 1496 c 0
 682 1496 694 1479 694 1460 c 0
 694 1440 669 1396 640 1360 c 0
 611 1326 522 1231 446 1149 c 0
 366 1067 268 940 226 865 c 0
 184 790 152 709 152 687 c 0
 152 640 190 624 242 624 c 0
 332 624 563 681 589 712 c 1
 615 749 658 919 658 984 c 0
 660 1032 679 1056 716 1056 c 0
 731 1056 736 1044 736 999 c 0
 736 977 735 948 733 908 c 2
 726 755 l 1
 913 755 l 2
 1014 755 1111 748 1111 733 c 0
 1111 722 1053 710 963 704 c 0
 864 696 784 678 750 656 c 0
 668 602 679 538 653 416 c 0
 643 355 631 258 631 197 c 0
 631 136 646 71 663 49 c 0
 677 32 684 18 684 6 c 0
 684 -14 663 -26 623 -26 c 0
 596 -26 563 -12 546 7 c 0
 537 19 532 37 532 73 c 0
 532 138 576 468 576 543 c 0
EndSplineSet
EndChar

StartChar: five
Encoding: 53 53 78
Width: 1480
VWidth: 3454
Flags: HW
LayerCount: 2
Fore
SplineSet
48 424 m 0
 48 481 73 540 92 540 c 0
 105 540 115 515 115 452 c 0
 115 294 178 234 275 145 c 0
 326 99 402 54 448 46 c 0
 475 40 498 38 520 38 c 0
 600 38 647 73 710 118 c 0
 767 163 827 250 827 346 c 0
 827 420 797 481 750 525 c 0
 678 591 398 747 339 827 c 0
 307 869 290 927 290 1001 c 0
 290 1088 309 1138 372 1241 c 0
 418 1313 484 1401 522 1435 c 0
 560 1467 594 1494 598 1494 c 0
 606 1494 630 1473 658 1448 c 0
 685 1422 703 1411 756 1411 c 0
 792 1411 844 1416 926 1425 c 0
 1046 1436 1206 1448 1278 1448 c 0
 1350 1448 1414 1434 1422 1421 c 0
 1432 1408 1436 1393 1428 1385 c 0
 1420 1377 1327 1364 1221 1353 c 0
 1054 1334 662 1278 527 1248 c 1
 459 1225 392 1091 392 990 c 0
 392 914 405 885 468 834 c 0
 508 802 619 721 712 658 c 0
 807 593 891 517 902 485 c 0
 915 453 924 388 924 342 c 0
 924 222 858 110 786 57 c 0
 727 14 616 -28 510 -28 c 0
 480 -28 449 -25 421 -17 c 0
 297 25 136 148 83 260 c 0
 63 308 48 374 48 424 c 0
EndSplineSet
EndChar

StartChar: six
Encoding: 54 54 79
Width: 957
VWidth: 2989
Flags: HW
LayerCount: 2
Fore
SplineSet
136 274 m 0
 136 107 217 57 396 57 c 0
 548 57 650 122 738 200 c 0
 804 258 815 278 815 356 c 0
 815 438 806 453 738 501 c 0
 690 532 633 552 587 552 c 0
 465 545 389 499 313 429 c 0
 272 393 220 365 198 365 c 0
 151 365 136 325 136 274 c 0
701 1463 m 0
 716 1463 731 1451 738 1439 c 1
 738.414292058 1436.92853971 738.618804449 1434.39937833 738.618804449 1431.48362408 c 0
 738.618804449 1413.28561913 730.652345005 1380.02849531 716 1349 c 0
 685 1289 523 1031 453 1016 c 0
 427 1009 378 967 344 919 c 0
 278 822 172 613 155 475 c 0
 154.125492134 460.716371516 153.675853161 447.112533261 153.675853161 435.005897853 c 0
 153.675853161 405.580709912 156.332020977 385 162 385 c 0
 170 385 220 422 269 470 c 0
 318 516 396 568 437 587 c 0
 475 602 516 609 558 609 c 0
 646 609 737 579 798 541 c 0
 842 512 888 465 900 436 c 0
 906 418 909 397 909 375 c 0
 909 353 906 329 898 303 c 0
 869 194 723 76 619 35 c 0
 537 0 479 -25 387 -25 c 0
 359 -25 327 -23 291 -18 c 0
 206 -6 167 13 116 69 c 0
 51 137 48 147 48 298 c 0
 48 533 89 640 179 805 c 0
 288 1006 392 1162 550 1329 c 0
 618 1404 686 1463 701 1463 c 0
EndSplineSet
EndChar

StartChar: seven
Encoding: 55 55 80
Width: 1238
VWidth: 3030
Flags: HW
LayerCount: 2
Fore
SplineSet
230 1441 m 0
 383 1441 561 1495 693 1495 c 0
 791 1495 807 1454 807 1349 c 0
 807 1189 721 955 680 840 c 0
 672.72405658 816.849270936 668.073205027 793.698541873 668.073205027 778.361457312 c 0
 668.073205027 770.511455274 669.291595215 764.708404785 672 762 c 0
 674 759 685 758 703 758 c 0
 800 758 1073 800 1131 810 c 0
 1143 811 1152 812 1160 812 c 0
 1181 812 1190 807 1190 800 c 0
 1190 783 1145 754 1112 744 c 0
 1075 730 954 708 840 690 c 0
 726 671 625 646 611 632 c 0
 574 589 452 274 442 202 c 0
 431 138 392 -24 330 -24 c 0
 304.818530358 -24 294.648559481 -18.8236211157 294.648559481 7.91584642504 c 0
 294.648559481 18.3418571995 296.194705612 32.0461159169 299 50 c 0
 307 88 354 220 402 342 c 0
 451 458 485 566 485 592 c 0
 485 616 466 625 420 625 c 0
 397 625 352 622 326 622 c 0
 263 622 239 628 239 667 c 0
 239 714 319 717 392 717 c 0
 522 717 531 723 571 805 c 0
 589 839 629 945 663 1051 c 0
 703 1166 719 1253 719 1310 c 0
 719 1315 719 1320 719 1325 c 2
 714 1410 l 1
 616 1406 l 1
 563 1406 434 1396 333 1382 c 0
 256 1372 204 1367 166 1367 c 0
 122 1367 48 1384 48 1410 c 0
 48 1431 120 1442 190 1442 c 0
 204 1442 216 1441 230 1441 c 0
EndSplineSet
EndChar

StartChar: eight
Encoding: 56 56 81
Width: 1277
VWidth: 2665
Flags: HW
LayerCount: 2
Fore
SplineSet
399 662 m 0
 319 662 197 583 158 538 c 0
 138 512 122 472 122 450 c 0
 122 360 183 243 237 189 c 0
 297 125 424 39 536 39 c 0
 575 39 626 53 650 69 c 0
 679 91 688 102 688 148 c 0
 688 342 626 503 522 597 c 0
 477 637 432 662 399 662 c 0
572 1300 m 0
 408 1297 331 1275 255 1206 c 0
 228 1180 213 1146 213 1107 c 0
 213 993 253 942 328 867 c 0
 373 819 420 789 446 789 c 0
 527 789 666 885 717 930 c 0
 749 957 792 1008 816 1041 c 0
 833 1066 846 1095 846 1117 c 0
 846 1135 837 1147 814 1147 c 0
 806 1147 797 1146 786 1143 c 0
 773.026256013 1140.11694578 763.543552712 1138.14821174 756.952791311 1138.14821174 c 0
 748.253136035 1138.14821174 744.592226831 1141.57841582 744.592226831 1150.86381688 c 0
 744.592226831 1158.94342668 747.364068381 1171.45627352 752 1190 c 0
 755 1207 757 1221 757 1233 c 0
 757 1299 706 1301 593 1301 c 0
 586 1301 580 1300 572 1300 c 0
1030 1435 m 0
 1030 1388 987 1271 987 1230 c 0
 987 1194 1015 1191 1108 1191 c 0
 1166 1191 1219 1183 1227 1174 c 0
 1233 1164 1222 1147 1202 1138 c 0
 1182 1128 1116 1118 1056 1118 c 2
 946 1118 l 1
 898 1038 l 1
 841 936 735 840 633 789 c 0
 577 760 548 741 548 714 c 0
 548 692 567 664 606 622 c 0
 696 524 728 435 760 282 c 0
 768 241 772 207 772 177 c 0
 772 147 768 120 760 94 c 0
 733 -6 684 -22 550 -22 c 0
 472 -22 420 -14 363 16 c 0
 253 76 146 169 92 291 c 0
 68 347 48 422 48 458 c 0
 48 494 62 544 78 566 c 0
 94 590 150 633 206 663 c 0
 262 695 304 728 304 738 c 0
 304 747 271 793 231 838 c 0
 192 882 152 950 138 984 c 0
 129 1011 125 1046 125 1082 c 0
 125 1148 139 1216 166 1246 c 0
 184 1266 245 1301 302 1323 c 0
 386 1356 441 1363 618 1365 c 1
 834 1365 l 1
 892 1425 l 1
 925 1457 968 1484 986 1484 c 0
 1020 1484 1030 1464 1030 1435 c 0
EndSplineSet
EndChar

StartChar: nine
Encoding: 57 57 82
Width: 1122
VWidth: 3177
Flags: HW
LayerCount: 2
Fore
SplineSet
832 1230 m 0
 832 1315 808 1380 722 1380 c 0
 627 1380 524 1270 490 1202 c 0
 472 1170 458 1106 458 1065 c 0
 458 988 483 939 551 939 c 0
 573 939 646 991 713 1052 c 0
 803 1140 832 1181 832 1230 c 0
89 486 m 0
 120 486 127 399 127 339 c 0
 127 206 205 119 299 78 c 0
 333 65 406 58 497 58 c 0
 515 58 535 57 555 58 c 0
 701 65 754 76 803 112 c 0
 835 135 886 200 913 256 c 0
 949 326 967 411 978 564 c 0
 981 612 983 652 983 687 c 0
 983 774 972 829 949 906 c 0
 920 1000 896 1041 865 1045 c 0
 862.828191234 1045.39487432 860.558928887 1045.58509612 858.213378014 1045.58509612 c 0
 836.79895516 1045.58509612 809.025628395 1029.72947265 791 1009 c 0
 755 964 609 850 533 850 c 0
 506 850 457 870 425 897 c 0
 376 935 370 958 370 1052 c 0
 370 1259 463 1366 600 1434 c 0
 638 1454 708 1468 757 1468 c 0
 883 1468 892 1433 906 1320 c 0
 913 1270 935 1200 962 1162 c 0
 989 1126 1025 1019 1045 922 c 0
 1064 835 1074 732 1074 628 c 0
 1074 405 1027 178 919 91 c 1
 846 26 679 -27 534 -27 c 0
 515 -27 497 -26 479 -24 c 0
 321 -8 220 30 139 122 c 1
 76 203 71 250 49 354 c 0
 48 358 48 362 48 368 c 0
 48 408 65 486 89 486 c 0
EndSplineSet
EndChar

StartChar: zero
Encoding: 48 48 83
Width: 1827
VWidth: 3715
Flags: HW
LayerCount: 2
Fore
SplineSet
985 1188 m 0
 985 1284 863 1375 755 1375 c 0
 752 1375 750 1375 747 1375 c 0
 692 1375 620 1363 589 1349 c 0
 558 1337 476 1267 414 1200 c 0
 248 1019 163 821 163 470 c 0
 163 378 172 306 188 269 c 0
 241 147 344 74 522 74 c 1
 726 81 932 223 1057 324 c 0
 1117 372 1191 468 1227 533 c 0
 1277 629 1292 705 1292 883 c 0
 1292 1063 1280 1123 1237 1171 c 0
 1208 1202 1169 1231 1155 1231 c 0
 1121 1231 1083 1116 1064 1090 c 0
 1053 1075 1044 1069 1035 1069 c 0
 1003 1069 985 1154 985 1188 c 0
1393 965 m 0
 1393 905 1398 821 1398 766 c 0
 1398 648 1380 601 1321 494 c 0
 1208 290 1045 154 834 48 c 0
 721 -7 627 -36 526 -36 c 0
 329 -36 193 41 123 173 c 0
 77 265 48 433 48 591 c 0
 48 672 56 751 73 816 c 0
 119 1030 313 1303 476 1406 c 0
 562 1461 653 1495 718 1495 c 0
 862 1495 953 1406 1102 1406 c 0
 1169 1406 1244 1382 1292 1344 c 0
 1340 1306 1373 1292 1434 1292 c 0
 1518 1292 1695 1317 1731 1332 c 0
 1741.50277779 1336.74318997 1750.39856622 1339.07589589 1757.5706981 1339.07589589 c 0
 1771.56783141 1339.07589589 1779 1330.19121863 1779 1313 c 0
 1779 1243 1601 1171 1522 1171 c 0
 1472 1171 1421 1152 1407 1135 c 0
 1398 1119 1393 1050 1393 965 c 0
EndSplineSet
EndChar

StartChar: exclam
Encoding: 33 33 84
Width: 293
VWidth: 2910
Flags: HW
LayerCount: 2
Fore
SplineSet
227 74 m 0
 227 32 174 -23 128 -23 c 0
 116 -23 103 -18 87 -10 c 0
 58.6292328261 2.76684522824 48.368725328 11.5091883063 48.368725328 30.4993059209 c 0
 48.368725328 38.2833921876 50.0926917935 47.7893055326 53 60 c 0
 62 104 99 156 141 156 c 0
 180 156 227 119 227 74 c 0
219 1527 m 0
 235 1527 245 1509 245 1476 c 0
 245 1449 232 1326 216 1208 c 0
 202 1105 195 1023 195 949 c 0
 195 869 203 798 219 718 c 0
 222 699.333333333 223.555555556 685.555555556 223.555555556 675.481481481 c 0
 223.555555556 655.333333333 217.333333333 650 204 650 c 0
 189 650 163 667 143 687 c 0
 116 716 110 746 110 865 c 0
 110 879 110 895 110 912 c 0
 110 1098 134 1342 176 1468 c 0
 185 1500 204 1527 219 1527 c 0
EndSplineSet
EndChar

StartChar: question
Encoding: 63 63 85
Width: 682
VWidth: 2617
Flags: HW
LayerCount: 2
Fore
SplineSet
508 36 m 0
 508 21 492 -20 472 -20 c 0
 438 -20 331 46 324 64 c 0
 319 73 317 82 317 90 c 0
 317 118 345 136 376 136 c 0
 419 136 508 75 508 36 c 0
505 1433 m 0
 505 1491 496 1512 451 1512 c 0
 425 1512 372 1503 325 1489 c 0
 251 1467 213 1442 148 1376 c 0
 102 1330 61 1292 56 1292 c 0
 51 1292 48 1310 48 1332 c 0
 48 1400 169 1487 222 1514 c 0
 279 1542 363 1576 442 1576 c 0
 529 1576 595 1536 595 1449 c 0
 595 1428 592 1405 585 1381 c 0
 576 1350 533 1271 487 1207 c 0
 441 1142 354 1031 296 958 c 0
 236 885 174 800 157 766 c 0
 143 737 136 717 136 700 c 0
 136 691 138 683 142 675 c 0
 181 611 245 594 361 578 c 0
 404 573 457 569 501 569 c 0
 524.490909091 569 569.764297521 575.496528926 600.912078137 575.496528926 c 0
 620.150413223 575.496528926 634 573.018181818 634 565 c 0
 634 556 620 540 604 531 c 0
 587 523 509 516 430 516 c 0
 326 516 263 525 201 548 c 0
 110 582 75 600 54 683 c 0
 53 689 53 695 53 701 c 0
 53 732 70 763 130 843 c 0
 176 907 271 1033 339 1121 c 0
 409 1211 474 1308 487 1337 c 0
 498 1363 505 1403 505 1433 c 0
EndSplineSet
EndChar

StartChar: section
Encoding: 167 167 86
Width: 746
VWidth: 2269
Flags: HW
LayerCount: 2
Fore
SplineSet
119 25 m 0
 151 25 208 23 241 23 c 0
 304 23 345 29 384 42 c 0
 453 64 497 88 497 166 c 0
 497 208 482 226 358 348 c 0
 271 433 209 505 195 538 c 0
 184 566 179 593 179 619 c 0
 179 709 237 788 303 820 c 0
 317 826 362 835 399 835 c 0
 427 835 451 830 451 813 c 0
 451 801 432 790 401 784 c 0
 335 774 286 743 262 691 c 0
 252 672 248 652 248 632 c 0
 248 594 264 556 279 524 c 0
 290 502 356 430 425 363 c 0
 500 290 552 227 558 204 c 0
 561 189 563 175 563 161 c 0
 563 72 505 12 429 -6 c 0
 412 -11 317 -16 226 -16 c 0
 135 -16 48 -11 48 7 c 0
 48 21 62 25 119 25 c 0
605 1561 m 0
 679 1561 698 1554 698 1510 c 0
 698 1501 694 1498 682 1498 c 0
 666 1498 617 1506 594 1506 c 0
 524 1506 492 1481 442 1440 c 0
 412 1416 367 1361 341 1318 c 0
 300 1249 291 1220 291 1147 c 0
 291 1099 296 1085 324 1063 c 0
 367 1026 560 881 592 831 c 0
 605 808 618 767 618 742 c 0
 618 675 567 624 516 604 c 0
 491 593 435 584 392 584 c 0
 337 584 308 592 297 605 c 0
 292 611 289 617 289 621 c 0
 289 633 306 636 327 636 c 0
 353 636 376 629 400 629 c 0
 451 629 492 656 521 681 c 0
 537 699 551 725 551 747 c 0
 551 770 534 802 508 832 c 0
 457 891 317 983 264 1039 c 0
 230 1074 217 1114 217 1179 c 0
 217 1261 307 1398 354 1445 c 0
 411 1500 502 1561 605 1561 c 0
EndSplineSet
EndChar

StartChar: dollar
Encoding: 36 36 87
Width: 980
VWidth: 2417
Flags: HW
LayerCount: 2
Fore
SplineSet
618 712 m 0
 608 712 586 678 570 636 c 0
 544 564 476 357 476 270 c 0
 476 239 476 230 495 230 c 0
 502 230 513 231 527 233 c 0
 594 246 684 273 719 317 c 0
 739 345 745 372 745 436 c 0
 745 544 714 609 670 669 c 0
 651 692 629 712 618 712 c 0
557 767 m 0
 557 783 541 813 522 813 c 0
 517 813 510 810 505 804 c 0
 497 794 476 733 458 666 c 0
 439 600 415 481 403 404 c 0
 393 342 386 286 386 265 c 0
 386 254 394 248 402 256 c 0
 406 260 421 312 435 370 c 0
 448 429 483 535 508 609 c 0
 536 682 557 754 557 767 c 0
541 1292 m 2
 536 1326 l 1
 483 1275 l 2
 445 1238 436 1229 436 1188 c 0
 436 1139 445 1034 459 1020 c 0
 472 1007 480 1007 488 1021 c 0
 501 1043 541 1228 541 1284 c 0
 541 1287 541 1290 541 1292 c 2
534 940 m 0
 534 912 555 874 574 874 c 0
 584 874 603 913 621 966 c 0
 635 1016 666 1123 685 1202 c 0
 704 1283 719 1357 719 1368 c 0
 719 1379 708 1387 695 1387 c 0
 681 1387 659 1376 647 1363 c 0
 635 1351 615 1291 603 1232 c 0
 591 1173 568 1082 554 1032 c 0
 541 988 534 960 534 940 c 0
666 1560 m 0
 666.142857143 1558.28571429 666.204081633 1555.71428571 666.204081633 1552.48979592 c 0
 666.204081633 1533.14285714 664 1490.28571429 664 1468 c 0
 664 1447 668 1442 682 1442 c 0
 723 1442 739 1451 751 1488 c 0
 759 1519 774 1590 805 1590 c 0
 837 1590 840 1541 840 1500 c 0
 840 1470 846 1454 858 1454 c 0
 869 1454 891 1442 909 1429 c 0
 934 1409 936 1398 924 1385 c 0
 911 1372 904 1372 888 1385 c 0
 877 1395 856 1399 838 1397 c 0
 818 1395 802 1378 791 1346 c 0
 756 1249 707 1068 673 954 c 0
 654 889 637 825 637 812 c 0
 637 798 658 768 682 744 c 0
 707 720 744 668 763 632 c 0
 796 574 811 496 811 399 c 0
 811 357 807 335 794 309 c 0
 762 249 639 199 549 190 c 0
 508 186 468 175 460 165 c 0
 448 151 452 145 481 145 c 0
 505 145 516 139 516 123 c 0
 516 85 503 66 463 66 c 0
 450 66 432 69 420 69 c 0
 395 69 383 60 360 29 c 0
 341 5 316 -16 304 -16 c 0
 292.538855339 -16 287.969942863 -11.5403203509 287.969942863 3.57455817136 c 0
 287.969942863 12.1979554891 289.457111813 24.289591911 292 41 c 0
 298 73 304 123 310 153 c 1
 316 208 l 1
 246 240 l 2
 206 259 149 299 118 330 c 0
 80 366 48 401 48 434 c 0
 48 452 57 467 71 467 c 0
 88 467 98 447 98 430 c 0
 98 417 122 384 152 356 c 0
 183 328 227 297 255 285 c 0
 284 271 306 267 313 275 c 0
 320 282 335 346 347 416 c 0
 359 486 384 602 404 672 c 0
 423 742 443 822 447 847 c 0
 448 855 449 863 449 871 c 0
 449 899 439 927 410 984 c 0
 375 1053 363 1091 363 1148 c 0
 363 1194 374 1235 388 1263 c 0
 401 1286 449 1325 492 1354 c 0
 576 1409 605 1460 631 1546 c 0
 635 1562 646 1575 653 1575 c 0
 660 1575 666 1568 666 1560 c 0
EndSplineSet
EndChar

StartChar: percent
Encoding: 37 37 88
Width: 1265
VWidth: 2988
Flags: HW
LayerCount: 2
Fore
SplineSet
1052 409 m 0
 1052 368 1034 326 994 326 c 0
 971.799224795 326 964.038129854 330.33190408 964.038129854 346.342156096 c 0
 964.038129854 353.408938994 965.550193801 362.750969007 968 375 c 0
 971 391 973 405 973 418 c 0
 973 451 960 471 924 471 c 0
 906 471 869 451 842 429 c 0
 798 391 782 338 782 235 c 0
 782 138 808 51 888 51 c 0
 921 51 958 68 990 100 c 0
 1017 130 1060 192 1086 243 c 0
 1125 315 1134 361 1136 459 c 0
 1136 563 1141 580 1167 580 c 0
 1205 580 1217 532 1217 478 c 0
 1217 453 1214 427 1210 404 c 0
 1195 278 1112 112 1034 42 c 0
 982 -6 946 -22 898 -22 c 0
 806 -22 747 26 714 88 c 0
 700 115 688 186 688 243 c 0
 688 365 719 449 782 501 c 0
 813 529 861 553 911 553 c 0
 991 553 1052 495 1052 409 c 0
213 152 m 0
 213 102 139 14 93 14 c 0
 79 14 55 28 55 46 c 0
 55 71 103 173 166 284 c 0
 361 626 540 865 771 1221 c 0
 882 1389 983 1541 998 1557 c 0
 1012 1573 1032 1587 1047 1587 c 0
 1057 1587 1080 1580 1080 1571 c 0
 1080 1554 992 1416 885 1256 c 0
 655 917 580 834 396 526 c 0
 338 427 270 312 250 272 c 0
 228 232 213 178 213 152 c 0
208 964 m 0
 124 964 48 1027 48 1107 c 0
 48 1221 106 1350 168 1430 c 0
 204 1478 259 1532 292 1552 c 0
 324 1570 356 1587 364 1587 c 0
 390 1587 468 1496 468 1468 c 0
 468 1432 386 1348 350 1348 c 0
 335 1348 322 1359 322 1368 c 0
 322 1378 330 1402 344 1422 c 0
 355 1438 359 1449 359 1457 c 0
 359 1465 354 1469 346 1469 c 0
 333 1469 311 1457 292 1438 c 0
 246 1398 140 1210 140 1130 c 0
 140 1070 168 1038 226 1038 c 0
 256 1038 311 1077 387 1155 c 0
 456 1223 506 1291 514 1323 c 0
 523 1373 536 1468 588 1468 c 0
 613 1468 622 1451 622 1427 c 0
 622 1380 589 1306 573 1270 c 0
 516 1144 466 1097 360 1022 c 0
 303 982 259 964 208 964 c 0
EndSplineSet
EndChar

StartChar: ampersand
Encoding: 38 38 89
Width: 1322
VWidth: 2903
Flags: HW
LayerCount: 2
Fore
SplineSet
279 545 m 0
 269 548 246 536 230 518 c 0
 185 469 129 311 129 206 c 0
 129 144 149 81 168 65 c 0
 177 59 188 55 202 55 c 0
 276 55 484 153 524 179 c 1
 573 218 l 1
 477 316 l 1
 425 372 362 442 340 476 c 0
 316 510 289 542 279 545 c 0
650 1537 m 0
 357 1537 254 1339 254 1037 c 0
 254 956 263 857 273 821 c 0
 282 782 302 752 312 752 c 0
 321 752 383 794 447 845 c 0
 573 945 654 1034 726 1160 c 0
 758 1215 780 1316 780 1399 c 0
 780 1439 771 1459 747 1489 c 0
 717 1526 696 1537 650 1537 c 0
1092 41 m 0
 1092 6 1071 -11 1044 -11 c 0
 1020 -11 992 1 975 20 c 0
 957 40 924 58 904 58 c 0
 858 58 719 149 674 149 c 0
 658 149 563 110 465 65 c 0
 329 1 264 -23 178 -23 c 0
 130 -23 113 -14 87 20 c 0
 61 54 50 99 48 187 c 0
 48 347 92 474 164 562 c 0
 194 598 216 646 216 664 c 0
 216 684 204 746 188 802 c 0
 171 859 163 917 163 1005 c 0
 163 1033 164 1063 165 1097 c 0
 171 1271 177 1302 225 1390 c 0
 316 1555 421 1610 674 1610 c 0
 757 1610 786 1603 816 1576 c 0
 858 1538 886 1456 886 1371 c 0
 886 1211 792 1093 714 994 c 0
 680 950 587 862 506 796 c 0
 406 710 363 665 363 635 c 0
 363 611 386 556 418 512 c 0
 450 468 514 397 562 355 c 0
 607 313 662 279 682 277 c 0
 702 277 770 309 834 349 c 0
 946 418 1128 557 1216 632 c 0
 1231.14221508 643.536925772 1254.60322117 654.553927105 1266.5135513 654.553927105 c 0
 1271.12107747 654.553927105 1274 652.90518995 1274 649 c 0
 1274 636 1228 585 1167 529 c 0
 1101 469 988 379 916 329 c 0
 842 279 783 230 783 221 c 0
 783 189 972 112 1008 112 c 0
 1052 112 1092 84 1092 41 c 0
EndSplineSet
EndChar

StartChar: slash
Encoding: 47 47 90
Width: 1162
VWidth: 2668
Flags: HW
LayerCount: 2
Fore
SplineSet
1114 1573 m 0
 1114 1553 1030 1460 1012 1460 c 0
 1005 1460 984 1435 966 1406 c 0
 947 1375 880 1284 814 1204 c 0
 645 992 579 891 428 641 c 0
 363 533 292 401 268 348 c 0
 243 295 205 209 185 151 c 0
 163 96 137 33 125 14 c 0
 113 -4 89 -18 73 -18 c 0
 47 -18 45 -12 52 19 c 0
 72 91 256 453 292 509 c 0
 378 645 496 852 600 1000 c 0
 655 1080 754 1211 815 1291 c 0
 876 1371 945 1474 965 1518 c 0
 985 1562 1008 1603 1016 1609 c 0
 1024 1615 1039 1621 1045 1621 c 0
 1065 1621 1114 1595 1114 1573 c 0
EndSplineSet
EndChar

StartChar: parenleft
Encoding: 40 40 91
Width: 584
VWidth: 2303
Flags: HW
LayerCount: 2
Fore
SplineSet
502 1576 m 0
 513 1576 536 1557 536 1539 c 0
 536 1523 517 1503 459 1446 c 0
 411 1402 342 1327 307 1279 c 0
 258 1213 228 1156 187 1040 c 0
 155 956 124 862 117 832 c 0
 111 802 105 706 105 617 c 0
 105 498 111 427 129 348 c 0
 156 244 201 129 254 68 c 0
 267 53 294 35 314 28 c 0
 334 19 349 8 349 3 c 0
 349 -2 341 -9 331 -14 c 0
 321 -18 295 -13 273 -3 c 0
 215 19 176 75 144 128 c 0
 99 207 73 318 56 436 c 0
 50 477 48 533 48 593 c 0
 48 701 56 820 71 881 c 0
 94 977 182 1191 232 1266 c 0
 260 1307 328 1394 384 1459 c 0
 440 1524 493 1576 502 1576 c 0
EndSplineSet
EndChar

StartChar: parenright
Encoding: 41 41 92
Width: 393
VWidth: 2321
Flags: HW
LayerCount: 2
Fore
SplineSet
121 -15 m 0
 111 -15 80 9 80 25 c 0
 80 35 87 48 102 74 c 0
 119 102 145 174 161 235 c 0
 203 384 248 577 274 742 c 0
 285 814 294 948 294 1041 c 0
 294 1053 294 1065 294 1076 c 0
 294 1186 289 1237 270 1310 c 0
 238 1430 212 1498 114 1542 c 0
 77 1558 48 1579 48 1588 c 0
 48 1606 72 1617 88 1617 c 0
 93 1618 117 1607 143 1595 c 0
 245 1544 285 1464 325 1344 c 0
 340 1290 345 1242 345 1117 c 0
 345 751 282 502 205 218 c 0
 187 151 174 90 174 70 c 0
 174 65 176 63 176 59 c 0
 176 36 136 -15 121 -15 c 0
EndSplineSet
EndChar

StartChar: braceleft
Encoding: 123 123 93
Width: 586
VWidth: 2067
Flags: HW
LayerCount: 2
Fore
SplineSet
314 1393 m 0
 314 1440 292 1486 247 1486 c 0
 216 1486 195 1468 170 1444 c 0
 150 1425 132 1417 128 1422 c 0
 124 1428 126 1447 132 1462 c 0
 145 1498 195 1531 247 1531 c 0
 322 1531 367 1475 367 1405 c 0
 367 1384 365 1359 362 1326 c 0
 358 1281 349 1188 341 1121 c 0
 335 1071 332 1038 332 1015 c 0
 332 993 335 980 340 967 c 0
 351 941 422 868 458 868 c 0
 473 868 493 881 508 881 c 0
 525 881 538 872 538 853 c 0
 538 841 518 820 492 802 c 0
 402 739 365 636 365 477 c 0
 365 400 375 299 375 227 c 0
 375 182 367 125 358 102 c 0
 342 67 263 -14 216 -14 c 0
 163 -14 103 30 73 62 c 0
 48 87 43 100 53 110 c 0
 55 112 58 114 62 114 c 0
 71 114 85 105 108 84 c 0
 136 59 162 34 187 34 c 0
 226 34 278 83 293 104 c 0
 305 123 311 156 311 220 c 0
 311 305 300 396 300 483 c 0
 300 617 339 732 388 802 c 0
 391 806 392 811 392 815 c 0
 392 827 380 841 341 874 c 2
 281 928 l 1
 281 1025 l 2
 281 1079 289 1186 300 1264 c 0
 309 1329 314 1367 314 1393 c 0
EndSplineSet
EndChar

StartChar: braceright
Encoding: 125 125 94
Width: 842
VWidth: 2052
Flags: HW
LayerCount: 2
Fore
SplineSet
75 710 m 0
 60 710 48 720 48 732 c 0
 48 757 113 774 151 783 c 0
 191 793 238 808 256 814 c 0
 286 826 296 847 296 877 c 0
 296 901 290 930 282 966 c 0
 272 1015 264 1094 264 1142 c 0
 264 1200 272 1254 287 1304 c 0
 314 1390 337 1425 385 1479 c 0
 411 1509 502 1562 552 1562 c 0
 586 1562 606 1545 606 1512 c 0
 606 1496 590 1465 572 1465 c 0
 559 1465 551 1479 551 1492 c 0
 551 1501 539 1507 523 1507 c 0
 470 1507 390 1404 368 1363 c 0
 339 1303 319 1225 319 1139 c 0
 319 1064 351 954 351 875 c 0
 351 867 351 858 351 850 c 0
 351 813 357 786 373 752 c 0
 388 722 394 702 394 675 c 0
 394 667 394 658 393 649 c 0
 384 569 355 389 355 280 c 0
 355 191 361 157 391 114 c 0
 438 50 486 36 595 36 c 0
 658 36 691 41 727 59 c 0
 755 73 780 84 785 84 c 0
 789 84 794 77 794 68 c 0
 794 60 781 45 766 35 c 0
 722 7 636 -14 557 -14 c 0
 407 -14 352 29 307 133 c 0
 292 166 287 184 287 227 c 0
 287 373 311 522 326 635 c 0
 327 644 328 653 328 662 c 0
 328 683 325 703 321 715 c 0
 311 741 302 746 262 746 c 0
 236 746 181 735 141 724 c 0
 108 714 88 710 75 710 c 0
EndSplineSet
EndChar

StartChar: bracketleft
Encoding: 91 91 95
Width: 707
VWidth: 2039
Flags: HW
LayerCount: 2
Fore
SplineSet
135 1544 m 0
 135 1568 151 1594 167 1594 c 0
 172 1594 194 1584 217 1572 c 0
 277 1544 437 1520 537 1520 c 0
 545 1520 553 1521 561 1521 c 0
 610 1521 659 1515 659 1497 c 0
 659 1492 654 1485 644 1477 c 0
 629 1467 593 1462 534 1462 c 0
 435 1464 335 1476 258 1490 c 0
 246 1492 237 1493 230 1493 c 0
 215 1493 209 1488 204 1477 c 0
 200 1465 192 1377 187 1281 c 0
 183 1185 169 1042 155 963 c 0
 133 835 113 525 113 353 c 0
 113 293 116 244 120 197 c 0
 126 125 137 61 145 52 c 0
 154 41 183 36 247 36 c 0
 297 36 351 41 370 46 c 0
 379 49 390 51 399 51 c 0
 416 51 428 45 428 32 c 0
 428 7 400 4 328 -1 c 0
 261 -6 186 -14 127 -14 c 0
 89.9686403443 -14 49.3956443302 0.1665454334 49.3956443302 27.3073489388 c 0
 49.3956443302 32.4147633044 50.8324362072 37.9816287936 54 44 c 0
 62 58 66 136 66 242 c 0
 66 266 66 290 66 314 c 0
 66 515 76 691 100 875 c 0
 114 969 121 1093 121 1194 c 0
 121 1285 127 1384 132 1417 c 0
 136 1439 139 1468 139 1492 c 0
 139 1512 135 1527 135 1544 c 0
EndSplineSet
EndChar

StartChar: bracketright
Encoding: 93 93 96
Width: 936
VWidth: 2067
Flags: HW
LayerCount: 2
Fore
SplineSet
377 1461 m 0
 394 1461 406 1458 425 1458 c 0
 516 1458 709 1493 760 1505 c 0
 793 1514 834 1521 850 1522 c 0
 870 1523 888 1519 888 1505 c 0
 888 1492 881 1465 872 1437 c 0
 813 1271 805 1172 793 919 c 0
 788 802 777 623 771 519 c 0
 761 329 741 237 733 85 c 0
 732 45 727 6 723 0 c 0
 719 -8 690 -14 658 -14 c 0
 554 -14 365 9 274 31 c 0
 224 43 160 52 133 52 c 0
 106 52 74 59 62 68 c 0
 51 77 45 87 49 91 c 0
 54 98 112 114 136 114 c 0
 152 114 164 108 182 97 c 0
 242 64 397 41 497 41 c 0
 533 40 571 40 596 40 c 0
 625 40 647 42 664 56 c 0
 678 65 688 102 699 174 c 0
 732 390 736 592 749 876 c 0
 755 1030 768 1207 777 1269 c 0
 787 1331 802 1396 812 1414 c 0
 826 1436 827 1449 819 1457 c 0
 816 1460 809 1461 798 1461 c 0
 773 1461 725 1455 649 1441 c 0
 563 1426 456 1413 412 1413 c 0
 365 1413 330 1418 326 1426 c 0
 324.072246478 1428.7539336 323.206273996 1431.41306533 323.206273996 1433.95128737 c 0
 323.206273996 1449.84649477 357.167023644 1461 377 1461 c 0
EndSplineSet
EndChar

StartChar: equal
Encoding: 61 61 97
Width: 921
Flags: HW
LayerCount: 2
Fore
SplineSet
693 588 m 0
 709 588 722 588 735 588 c 0
 800 588 826 584 826 532 c 0
 826 516 819 504 812 504 c 0
 803 504 769 513 735 524 c 0
 704 533 674 537 639 537 c 0
 534 537 215 462 117 453 c 0
 114.243218718 452.911071572 111.431079578 452.86168447 108.595229713 452.86168447 c 0
 79.541953522 452.86168447 48 458.045353855 48 479 c 0
 48 501 116 508 168 515 c 0
 225 524 327 540 394 553 c 0
 546 583 535 585 693 588 c 0
121 593 m 0
 87 593 58 598 58 621 c 0
 58 631 73 645 90 651 c 0
 107 658 165 663 220 663 c 0
 351 663 631 705 735 735 c 0
 783 747 827 758 834 759 c 0
 853 759 874 733 874 710 c 0
 874 683 855 680 778 674 c 0
 584 655 339 593 121 593 c 0
EndSplineSet
EndChar

StartChar: less
Encoding: 60 60 98
Width: 897
Flags: HW
LayerCount: 2
Fore
SplineSet
146 488 m 0
 132 488 114 487 101 487 c 0
 64 487 48 493 48 511 c 0
 48 521 53 536 62 556 c 0
 77 592 83 596 128 596 c 0
 160 596 205 609 253 634 c 0
 365 690 561 831 674 895 c 0
 728 924 782 950 793 950 c 0
 794 950 l 0
 814 950 849 910 849 883 c 0
 849 862.72 837.3728 857.8528 820.44576 857.8528 c 0
 804.8208 857.8528 784.68 862 765 862 c 0
 740 862 717 855 680 836 c 0
 607 801 376 643 312 598 c 0
 285 580 264 556 263 544 c 0
 263 533 297 501 346 469 c 0
 443 406 592 329 692 276 c 0
 729 258 776 237 796 231 c 0
 823 224 835 213 837 188 c 0
 841 161 835 153 809 147 c 0
 789 142 768 146 750 159 c 0
 609 265 503 309 333 408 c 0
 217 478 196 488 146 488 c 0
EndSplineSet
EndChar

StartChar: greater
Encoding: 62 62 99
Width: 850
Flags: HW
LayerCount: 2
Fore
SplineSet
769 618 m 0
 795 618 802 608 802 578 c 0
 802 547 796 541 764 532 c 0
 742 527 722 509 713 491 c 0
 703 470 689 461 669 461 c 0
 653 461 610 437 573 409 c 0
 490 343 264 144 176 81 c 0
 138 54 92 31 76 31 c 0
 59 31 48 39 48 50 c 0
 48 60 75 89 108 114 c 0
 218 196 338 289 456 385 c 0
 516 434 563 483 563 495 c 0
 563 510 527 535 450 575 c 0
 387 607 279 662 209 700 c 0
 139 737 79 770 75 772 c 0
 63 790 88 816 101 816 c 0
 111 816 145 804 177 791 c 0
 210 776 288 733 353 694 c 0
 418 656 485 619 501 614 c 0
 536 604 593 559 634 559 c 0
 668 559 731 618 769 618 c 0
EndSplineSet
EndChar

StartChar: bar
Encoding: 124 124 100
Width: 259
VWidth: 2520
Flags: HW
LayerCount: 2
Fore
SplineSet
109 1541 m 0
 109 1570 124 1600 144 1600 c 0
 151 1600 168 1585 182 1566 c 0
 198 1546 211 1514 211 1496 c 0
 211 1478 201 1448 190 1426 c 0
 179 1404 165 1328 157 1255 c 0
 135 1017 116 558 116 275 c 0
 116 22 115 3 91 -10 c 0
 72 -20 62 -18 55 -7 c 0
 51 0 48 74 48 166 c 0
 48 180 48 194 48 209 c 0
 48 532 76 839 98 1168 c 0
 108 1293 113 1414 113 1474 c 0
 113 1505 109 1517 109 1541 c 0
EndSplineSet
EndChar

StartChar: backslash
Encoding: 92 92 101
Width: 909
VWidth: 2345
Flags: HW
LayerCount: 2
Fore
SplineSet
861 24 m 0
 861 2 832 -15 814 -15 c 0
 773 -15 769 22 761 70 c 0
 742 192 651 423 594 526 c 0
 514 669 405 857 328 1002 c 0
 259 1135 194 1232 119 1350 c 0
 92 1394 65 1438 56 1449 c 0
 50 1457 48 1466 48 1474 c 0
 48 1492 60 1508 80 1508 c 0
 95 1508 120 1484 146 1445 c 0
 170 1410 230 1306 280 1216 c 0
 397 1010 478 840 597 646 c 0
 687 495 744 378 790 210 c 0
 805 156 829 93 842 69 c 0
 855 47 861 34 861 24 c 0
EndSplineSet
EndChar

StartChar: comma
Encoding: 44 44 102
Width: 372
Flags: HW
LayerCount: 2
Fore
SplineSet
214 -20 m 0
 182 -20 147 -16 147 11 c 0
 147 41 184 87 193 93 c 0
 205 101 221 105 238 105 c 0
 270 105 305 93 315 75 c 0
 321 63 325 25 325 -20 c 0
 325 -106 315 -157 291 -193 c 0
 249 -254 187 -300 87 -300 c 0
 60 -300 48 -291 48 -270 c 0
 48 -245 87 -238 118 -234 c 0
 174 -226 225 -171 240 -126 c 0
 247 -106 253 -75 253 -55 c 0
 253 -23 249 -20 214 -20 c 0
EndSplineSet
EndChar

StartChar: semicolon
Encoding: 59 59 103
Width: 390
Flags: HW
LayerCount: 2
Fore
SplineSet
252 -30 m 0
 244 -30 226 -33 216 -33 c 0
 194 -33 186 -24 186 -10 c 0
 186 14 210 48 225 58 c 0
 232 64 255 65 275 61 c 0
 323 52 342 27 342 -30 c 0
 342 -110 308 -196 263 -237 c 0
 226 -269 209 -275 157 -275 c 0
 102 -275 48 -269 48 -226 c 0
 48 -211 57 -202 68 -202 c 0
 89 -202 111 -220 137 -220 c 0
 192 -220 223 -196 244 -152 c 0
 257 -125 269 -87 269 -65 c 0
 269 -38 268 -30 252 -30 c 0
197 322 m 0
 197 354 250 374 282 374 c 0
 283 374 284 374 285 374 c 0
 306 374 327 352 327 328 c 0
 327 296 278 269 244 269 c 0
 219 269 197 290 197 322 c 0
EndSplineSet
EndChar

StartChar: asterisk
Encoding: 42 42 104
Width: 738
Flags: HW
LayerCount: 2
Fore
SplineSet
348 884 m 0
 348 911 340 976 340 1001 c 0
 340 1024 345 1037 361 1037 c 0
 401 1037 396 914 428 914 c 0
 453 914 523 1020 541 1030 c 0
 545.220700209 1032.18851122 549.539146977 1033.1796271 553.760520813 1033.1796271 c 0
 571.419476003 1033.1796271 587.37971618 1015.83572492 587.37971618 996.248358967 c 0
 587.37971618 990.564824797 586.035948168 984.692402816 583 979 c 0
 577 966 545 935 514 910 c 0
 483 884 449 850 438 834 c 0
 431.012247272 822.93605818 427.839235808 812.80460867 427.839235808 804.000562116 c 0
 427.839235808 782.56640112 446.646254547 769 475 769 c 0
 523 769 600 782 642 788 c 0
 682 793 693 790 689 778 c 0
 687 769 660 756 632 749 c 0
 604 743 580 731 580 724 c 0
 580 700 619 691 646 681 c 0
 669 672 680 662 680 640 c 0
 680 623 673 601 663 601 c 0
 632 601 471 694 448 694 c 0
 426 694 424 684 420 599 c 0
 416 513 413 504 391 504 c 0
 369 504 367 512 367 583 c 0
 367 627 362 670 356 679 c 0
 350 690 334 693 313 689 c 0
 296 684 250 647 211 605 c 0
 167 557 149 540 136 540 c 0
 131 540 127 542 123 545 c 0
 106 560 106 565 122 597 c 0
 133 617 140 636 140 641 c 0
 140 647 119 651 93 651 c 0
 56 651 48 655 48 675 c 0
 48 696 61 703 151 716 c 0
 209 725 262 738 271 745 c 0
 280 752 287 769 287 782 c 0
 287 797 258 824 195 863 c 0
 135 901 103 928 103 944 c 0
 103 962 109 964 136 957 c 0
 156 952 203 928 241 901 c 0
 280 875 320 853 331 853 c 0
 343 853 348 858 348 884 c 0
EndSplineSet
EndChar

StartChar: period
Encoding: 46 46 105
Width: 301
Flags: HW
LayerCount: 2
Fore
SplineSet
48 84 m 0
 48 120 118 175 154 175 c 0
 182 175 253 124 253 92 c 0
 253 90 253 88 252 86 c 0
 241 52 181 24 131 24 c 0
 83 26 48 40 48 84 c 0
EndSplineSet
EndChar

StartChar: colon
Encoding: 58 58 106
Width: 341
Flags: HW
LayerCount: 2
Fore
SplineSet
65 97 m 0
 65 132 91 161 131 161 c 0
 201 161 293 149 293 91 c 0
 293 37 213 4 158 4 c 0
 128 4 109 13 91 36 c 0
 76 54 65 81 65 97 c 0
48 447 m 0
 48 525 143 576 219 576 c 0
 221 576 222 576 224 576 c 0
 255 576 273 551 273 519 c 0
 273 449 216 373 141 373 c 0
 86 373 48 408 48 447 c 0
EndSplineSet
EndChar

StartChar: hyphen
Encoding: 45 45 107
Width: 472
Flags: HW
LayerCount: 2
Fore
SplineSet
217 345 m 0
 195 345 168 344 150 344 c 0
 94 344 74 348 61 360 c 0
 52 370 48 379 48 385 c 0
 48 407 100 406 165 408 c 0
 224 408 293 413 320 418 c 0
 347 424 372 429 374 430 c 0
 390 430 424 388 424 370 c 0
 424 345 408 328 383 328 c 0
 375 328 365 330 355 334 c 0
 337 340 277 345 217 345 c 0
EndSplineSet
EndChar

StartChar: endash
Encoding: 8211 8211 108
Width: 713
Flags: HW
LayerCount: 2
Fore
SplineSet
359 453 m 2
 661 449 l 1
 665 417 l 2
 665 414 666 411 666 408 c 0
 666 376 645 366 611 366 c 0
 595 366 577 368 557 371 c 0
 520 376 397 381 282 381 c 0
 113 382 69 386 57 401 c 0
 48 411 45 427 50 437 c 0
 55 450 82 454 227 454 c 0
 263 454 307 453 359 453 c 2
EndSplineSet
EndChar

StartChar: numbersign
Encoding: 35 35 109
Width: 1456
VWidth: 2666
Flags: HW
LayerCount: 2
Fore
SplineSet
697 938 m 2
 633 938 574 932 562 925 c 0
 551 918 540 883 535 846 c 2
 528 779 l 1
 650 787 l 2
 739 793 780 801 793 817 c 0
 801 830 811 863 811 889 c 2
 811 938 l 1
 697 938 l 2
725 270 m 0
 725 240 737 225 737 194 c 0
 737 131 708 47 688 18 c 0
 675 -2 654 -18 642 -18 c 0
 616 -18 608 -3 608 20 c 0
 608 40 614 66 619 96 c 0
 627 142 663 288 695 419 c 0
 726 549 752 670 752 686 c 0
 752 710 744 717 703 717 c 0
 699 717 695 716 690 716 c 0
 655 716 597 711 560 706 c 0
 501 698 492 690 476 644 c 0
 465 616 460 562 460 522 c 0
 460 519 459 515 459 512 c 0
 459 476 465 438 475 425 c 0
 479 418 481 410 481 402 c 0
 481 358 432 299 403 294 c 0
 380 290 363 302 363 327 c 0
 363 400 401 570 409 628 c 2
 418 692 l 1
 258 682 l 2
 211 679 177 677 150 677 c 0
 103.589806739 677 49.8872261525 688.270053141 49.8872261525 716.207944193 c 0
 49.8872261525 722.582769338 52.683273173 729.825412342 59 738 c 0
 75 757 110 762 253 762 c 0
 415 762 429 763 449 794 c 0
 462 812 473 849 473 875 c 0
 473 913 466 924 444 924 c 0
 408 924 188 880 151 880 c 0
 123 880 117 887 122 913 c 0
 124 938 142 951 200 965 c 0
 241 976 324 987 386 992 c 0
 498 1000 502 1002 515 1048 c 0
 533 1101 591 1393 613 1441 c 0
 625 1463 634 1498 634 1517 c 0
 634 1547 642 1571 664 1571 c 0
 678 1571 706 1541 706 1518 c 0
 706 1506 702 1489 695 1464 c 0
 682 1414 590 1105 590 1045 c 0
 590 1013 594 1012 715 1012 c 0
 834 1012 841 1014 854 1048 c 0
 861 1067 884 1151 906 1234 c 0
 926 1318 959 1405 973 1427 c 0
 989 1449 1009 1485 1016 1505 c 0
 1024 1529 1042 1542 1062 1542 c 0
 1086 1542 1092 1535 1086 1517 c 0
 1049 1405 938 1197 938 1057 c 0
 938 1042 948 1037 1011 1037 c 0
 1055 1037 1177 1041 1227 1041 c 0
 1313 1041 1330 1034 1357 1013 c 0
 1374 1000 1408 963 1408 937 c 0
 1408 927 1403 918 1391 913 c 0
 1389.62044617 912.372930078 1387.94204766 912.076162173 1386.01214674 912.076162173 c 0
 1372.55380427 912.076162173 1346.86465039 926.508279689 1325 944 c 0
 1294 970 1281 979 1233 979 c 0
 1159 979 1008 966 962 959 c 0
 878 948 889 947 876 865 c 2
 865 802 l 1
 952 810 l 2
 999 815 1083 823 1139 829 c 2
 1237 840 l 1
 1237 810 1237 781 1237 751 c 1
 1051 744 l 2
 888 738 862 733 840 707 c 0
 827 691 793 587 767 478 c 0
 738 362 725 305 725 270 c 0
EndSplineSet
EndChar

StartChar: plus
Encoding: 43 43 110
Width: 732
Flags: HW
LayerCount: 2
Fore
SplineSet
289 669 m 0
 289 699 280 759 280 788 c 0
 280 813 286 829 308 829 c 0
 349 829 352 779 355 718 c 2
 359 639 l 1
 408 635 l 2
 410 635 413 635 416 635 c 0
 446 635 503 640 552 648 c 0
 593 656 618 659 634 659 c 0
 665 659 684 633 684 607 c 0
 684 583 672 575 654 575 c 0
 627 575 611 587 574 587 c 0
 503 587 383 568 361 558 c 0
 347 550 341 542 341 519 c 0
 341 500 345 469 345 446 c 0
 345 399 337 353 304 353 c 0
 275 353 273 365 272 433 c 0
 271 475 267 517 262 529 c 0
 257 541 250 546 222 546 c 0
 198 546 140 540 116 540 c 0
 84.8142371807 540 49.7919780985 549.591240657 49.7919780985 570.307620208 c 0
 49.7919780985 575.498537111 51.9908736021 581.387953155 57 588 c 0
 69 603 97 608 169 608 c 0
 239 608 268 613 279 626 c 0
 286 633 289 647 289 669 c 0
EndSplineSet
EndChar

StartChar: asciitilde
Encoding: 126 126 111
Width: 818
Flags: HW
LayerCount: 2
Fore
SplineSet
71 365 m 0
 53 365 48 388 48 414 c 0
 48 471 108 533 145 558 c 0
 174 579 237 600 292 600 c 0
 312 600 331 597 347 591 c 0
 370 581 408 547 434 515 c 0
 461 479 489 444 512 444 c 0
 527 444 551 451 575 463 c 0
 603 476 658 521 696 561 c 0
 735 601 755 619 764 619 c 0
 767.90323829 619 769.373065536 614.238978391 769.373065536 607.263549499 c 0
 769.373065536 592.793926749 763.048380855 568.79568228 759 558 c 0
 734 504 641 425 584 398 c 0
 556 386 519 375 503 375 c 0
 482 375 449 401 390 462 c 0
 326 530 311 545 285 545 c 0
 212 545 133 481 114 426 c 0
 108 402 93 365 71 365 c 0
EndSplineSet
EndChar

StartChar: quotedbl
Encoding: 34 34 112
Width: 621
Flags: HW
LayerCount: 2
Fore
SplineSet
83 884 m 0
 67 884 48 893 48 905 c 0
 48 918 69 944 108 983 c 0
 155 1028 178 1059 184 1087 c 0
 186 1097 187 1105 187 1111 c 0
 187 1127 180 1136 162 1150 c 0
 143 1164 136 1172 136 1191 c 0
 136 1216 150 1286 153 1293 c 0
 155 1298 167 1300 179 1300 c 0
 191 1300 214 1278 235 1244 c 0
 260 1205 268 1189 268 1160 c 0
 268 1046 231 1000 166 938 c 0
 130 902 101 884 83 884 c 0
421 854 m 0
 366 854 280 926 280 980 c 0
 280 1005 290 1015 302 1015 c 0
 317 1015 337 1000 346 980 c 0
 353 965 371 944 387 934 c 0
 414 917 418 917 437 934 c 0
 471 964 483 1034 489 1099 c 0
 491 1117 493 1130 493 1141 c 0
 493 1165 485 1175 462 1201 c 0
 443 1224 427 1251 427 1263 c 0
 427 1291 444 1308 473 1308 c 0
 504 1308 529 1292 548 1271 c 0
 568 1247 573 1230 573 1168 c 0
 573 1084 549 979 521 930 c 0
 507 907 456 854 421 854 c 0
EndSplineSet
EndChar

StartChar: quotesingle
Encoding: 39 39 113
Width: 213
Flags: HW
LayerCount: 2
Fore
SplineSet
58 998 m 0
 58 1030 61 1070 61 1104 c 0
 61 1140 59 1171 55 1183 c 0
 51 1196 47 1209 47 1220 c 0
 47 1234 53 1244 68 1244 c 0
 76 1244 92 1234 103 1222 c 0
 119 1205 125 1170 132 1084 c 0
 137 1022 146 965 152 959 c 0
 159 952 165 940 165 932 c 0
 165 923 149 918 120 918 c 0
 59 918 58 933 58 998 c 0
EndSplineSet
EndChar

StartChar: at
Encoding: 64 64 114
Width: 1102
VWidth: 1815
Flags: HW
LayerCount: 2
Fore
SplineSet
509 444 m 0
 509 489 500 498 454 498 c 0
 429 498 412 492 391 474 c 0
 363 450 354 412 354 346 c 0
 354 297 372 251 413 251 c 0
 428 251 447 258 456 266 c 0
 480 282 509 392 509 444 c 0
534 190 m 0
 534 160 579 115 608 115 c 0
 619 115 651 125 678 139 c 0
 744 169 801 239 824 312 c 0
 836 347 844 405 844 460 c 0
 844 529 837 564 818 607 c 0
 779 698 726 760 600 760 c 0
 519 760 441 712 393 674 c 0
 319 617 216 465 165 371 c 0
 133 312 112 254 107 220 c 0
 106 209 105 199 105 190 c 0
 105 166 110 148 120 129 c 0
 130 110 161 79 192 62 c 0
 242 33 255 30 370 30 c 0
 439 30 505 33 516 39 c 0
 537 47 538 48 515 73 c 0
 503 87 481 117 467 141 c 0
 448 173 435 183 412 183 c 0
 318 183 285 263 285 365 c 0
 285 424 291 447 311 478 c 0
 335 517 413 568 471 568 c 0
 515 568 579 519 608 503 c 0
 623 495 628 484 628 458 c 0
 628 417 611 370 580 307 c 0
 554 256 534 204 534 190 c 0
811 136 m 0
 832 136 1038 240 1045 240 c 0
 1050 240 1054 233 1054 225 c 0
 1054 217 1013 186 962 158 c 0
 831 87 816 72 658 23 c 0
 546 -13 531 -15 376 -15 c 0
 218 -15 210 -14 158 17 c 0
 129 34 92 66 75 87 c 0
 55 114 48 127 48 160 c 0
 48 233 60 279 92 345 c 0
 141 446 243 602 321 677 c 0
 380 734 464 789 545 806 c 0
 565 810 585 812 606 812 c 0
 663 812 721 797 755 774 c 0
 849 710 907 607 907 449 c 0
 907 339 883 271 839 201 c 0
 821 174 808 146 808 138 c 0
 808 136 808 136 811 136 c 0
EndSplineSet
EndChar

StartChar: asciicircum
Encoding: 94 94 115
Width: 655
Flags: HW
LayerCount: 2
Fore
SplineSet
426 1389 m 0
 458 1389 483 1364 494 1336 c 0
 521 1267 555 1121 583 1042 c 0
 597 1001 607 956 607 938 c 0
 607 915 598 908 570 908 c 0
 544 908 535 915 528 936 c 0
 520 965 449 1210 437 1234 c 0
 431 1244 422 1253 414 1253 c 0
 406 1253 383 1228 363 1199 c 0
 322 1140 190 946 142 895 c 0
 122 874 96 857 81 857 c 0
 58 857 48 867 48 879 c 0
 48 890 56 903 70 914 c 0
 86 928 137 992 185 1059 c 0
 233 1126 304 1227 341 1284 c 0
 379 1342 418 1389 426 1389 c 0
EndSplineSet
EndChar

StartChar: underscore
Encoding: 95 95 116
Width: 718
Flags: HW
LayerCount: 2
Fore
SplineSet
140 32 m 0
 85 32 48 40 48 81 c 0
 48 96 53 111 59 113 c 0
 66 115 201 116 359 116 c 0
 603 116 650 114 659 99 c 0
 665 90 670 74 670 64 c 0
 670 39 648 22 620 22 c 0
 593 22 560 32 529 41 c 0
 513 45 489 48 454 48 c 0
 395 48 197 32 140 32 c 0
EndSplineSet
EndChar

StartChar: grave
Encoding: 96 96 117
Width: 380
Flags: HW
LayerCount: 2
Fore
SplineSet
324 1546 m 0
 329 1547 332 1537 332 1524 c 0
 332 1513 304 1459 270 1406 c 0
 235 1353 199 1291 189 1268 c 0
 173 1228 174 1226 194 1220 c 0
 217 1216 233 1189 233 1158 c 0
 233 1150 232 1143 230 1135 c 0
 221 1110 160 1035 130 1035 c 0
 121 1035 99 1050 81 1068 c 0
 58 1091 48 1113 48 1137 c 0
 48 1156 63 1203 81 1239 c 0
 99 1275 152 1355 199 1418 c 0
 247 1482 292 1536 301 1539 c 0
 309 1542 318 1546 324 1546 c 0
EndSplineSet
EndChar

StartChar: periodcentered
Encoding: 183 183 118
Width: 226
Flags: HW
LayerCount: 2
Fore
SplineSet
157 754 m 0
 175 752 179 743 177 711 c 0
 175 663 130 620 81 620 c 0
 54 620 48 624 48 648 c 0
 48 687 82 734 110 747 c 0
 124 752 144 755 157 754 c 0
EndSplineSet
EndChar

StartChar: guillemotleft
Encoding: 171 171 119
Width: 1098
Flags: HW
LayerCount: 2
Fore
SplineSet
889 471 m 0
 889 452 876 430 855 430 c 0
 840 430 815 439 769 458 c 0
 722 478 651 515 614 539 c 0
 572 565 535 588 535 614 c 0
 535 637 556 654 576 654 c 0
 586 654 625 673 662 696 c 0
 742 744 820 786 907 818 c 0
 939 830 978 838 994 838 c 0
 995 838 996 838 997 838 c 0
 1021 838 1050 821 1050 800 c 0
 1050 771 946 747 916 747 c 0
 878 747 707 650 687 630 c 2
 664 607 l 1
 691 584 l 2
 706 572 726 562 734 562 c 0
 743 562 782 546 820 527 c 0
 867 503 889 486 889 471 c 0
556 394 m 0
 556 387 550 359 535 359 c 0
 523 359 500 367 475 380 c 0
 395 421 309 491 223 530 c 0
 186 547 132 567 107 574 c 0
 70 583 48 593 48 621 c 0
 48 642 68 644 100 650 c 0
 123 655 183 675 230 696 c 0
 277 717 391 773 484 820 c 0
 602 880 660 904 690 904 c 0
 691 904 691 904 692 904 c 0
 724 903 737 893 737 881 c 0
 737 850 661 815 635 810 c 0
 606 804 302 657 288 636 c 0
 284 632 282 627 282 623 c 0
 282 614 293 602 318 579 c 0
 369 535 468 477 522 439 c 0
 545 425 556 410 556 394 c 0
EndSplineSet
EndChar

StartChar: guillemotright
Encoding: 187 187 120
Width: 819
Flags: HW
LayerCount: 2
Fore
SplineSet
292 581 m 0
 292 597 256 620 248 620 c 0
 219 620 79 696 64 711 c 0
 57 720 53 733 53 744 c 0
 53 758 59 770 76 770 c 0
 84 770 125 753 164 731 c 0
 244 690 326 654 412 631 c 0
 444 623 471 614 471 588 c 0
 471 568 458 550 437 550 c 0
 424 550 378 532 334 509 c 0
 290 486 226 438 190 403 c 0
 140 356 122 344 97 344 c 0
 64 344 51 351 49 379 c 0
 47 402 50 411 69 417 c 0
 83 422 111 437 132 451 c 0
 152 464 198 498 235 526 c 0
 277 558 292 571 292 581 c 0
338 793 m 0
 306 793 255 842 255 873 c 0
 255 894 268 901 285 901 c 0
 317 901 364 877 379 871 c 0
 449 834 553 806 649 777 c 0
 705 761 756 739 764 730 c 0
 769 725 771 720 771 714 c 0
 771 704 763 691 745 668 c 0
 726 645 702 611 692 595 c 0
 682 579 605 497 521 414 c 0
 438 330 365 261 363 261 c 0
 346 261 312 286 312 305 c 0
 312 317 328 335 348 347 c 0
 414 387 551 536 600 601 c 0
 632 641 644 661 644 675 c 0
 644 680 642 683 640 687 c 0
 629 710 371 793 338 793 c 0
EndSplineSet
EndChar

StartChar: onequarter
Encoding: 188 188 121
Width: 1626
VWidth: 2511
Flags: HW
LayerCount: 2
Fore
SplineSet
904 512 m 0
 904 476 957 474 1013 474 c 0
 1020 474 1028 474 1035 474 c 0
 1082 474 1129 480 1138 486 c 0
 1161 502 1179 679 1193 704 c 0
 1202 721 1219 729 1239 726 c 0
 1264 723 1272 712 1271 685 c 0
 1270 664 1264 611 1258 569 c 2
 1245 490 l 1
 1404 500 l 2
 1451 503 1485 504 1509 504 c 0
 1558 504 1569 498 1575 483 c 0
 1581 467 1579 452 1571 444 c 0
 1562 435 1487 424 1403 420 c 0
 1277 411 1245 404 1233 382 c 0
 1225 366 1215 275 1209 174 c 0
 1205 75 1193 -12 1187 -15 c 0
 1182.40032511 -18.3117659236 1177.56369171 -19.7278638292 1172.70185804 -19.7278638292 c 0
 1151.13881507 -19.7278638292 1129.08006502 8.12777892787 1125 22 c 0
 1124 25 1124 31 1124 41 c 0
 1124 91 1131 222 1131 306 c 0
 1131 346 1129 375 1125 381 c 0
 1116 391 1071 399 1005 399 c 0
 948 399 880 410 851 420 c 0
 819 436 799 452 799 469 c 0
 799 485 809 521 825 550 c 0
 861 620 972 825 1024 880 c 0
 1046 905 1073 925 1082 925 c 0
 1091 925 1108 916 1108 903 c 0
 1108 887 1086 843 1057 797 c 0
 1025 749 978 668 951 620 c 0
 925 572 904 524 904 512 c 0
1161 1406 m 0
 1184 1406 1202 1374 1202 1342 c 0
 1202 1324 1191 1313 1165 1294 c 0
 1140 1277 1014 1158 881 1028 c 0
 748 898 580 739 505 678 c 0
 431 617 362 565 353 564 c 0
 345 564 326 575 326 587 c 0
 326 605 437 718 640 910 c 0
 818 1075 1001 1255 1048 1310 c 0
 1095 1362 1145 1406 1161 1406 c 0
576 990 m 0
 576 945 565 942 530 942 c 0
 488 942 467 973 467 1018 c 0
 467 1062 527 1266 527 1305 c 0
 527 1321 522 1331 513 1331 c 0
 505 1331 441 1285 368 1228 c 0
 298 1170 208 1111 172 1099 c 0
 149 1091 119 1084 95 1084 c 0
 68 1084 48 1093 48 1118 c 0
 48 1145 67 1159 99 1166 c 0
 125 1172 165 1188 192 1201 c 0
 218 1214 315 1287 407 1362 c 0
 501 1436 586 1497 602 1497 c 0
 634 1497 646 1466 646 1425 c 0
 646 1353 613 1249 601 1213 c 0
 584 1156 575 1100 575 1050 c 0
 575 1031 576 1004 576 990 c 0
EndSplineSet
EndChar

StartChar: onehalf
Encoding: 189 189 122
Width: 1783
VWidth: 2818
Flags: HW
LayerCount: 2
Fore
SplineSet
1552 106 m 0
 1650 106 1735 103 1735 82 c 0
 1735 44 1481 17 1334 4 c 0
 1182 -11 1033 -22 1006 -22 c 0
 956 -22 910 -3 910 39 c 0
 910 49 978 140 1059 236 c 0
 1141 335 1228 454 1250 502 c 0
 1272 550 1290 598 1290 610 c 0
 1290 634 1278 643 1260 643 c 0
 1201 643 1102 578 1077 549 c 0
 1057 529 1031 512 1011 512 c 0
 993 512 980 524 980 538 c 0
 980 552 1004 590 1034 624 c 0
 1084 681 1184 732 1283 732 c 0
 1329 732 1355 719 1376 682 c 0
 1386 665 1390 652 1390 635 c 0
 1390 615 1384 589 1370 544 c 0
 1320 396 1258 342 1158 220 c 0
 1108 162 1066 106 1066 96 c 0
 1066 90 1081 87 1108 87 c 0
 1208 87 1337 106 1552 106 c 0
1380 1457 m 0
 1399 1457 1410 1399 1410 1362 c 0
 1410 1329 1401 1321 1370 1312 c 0
 1348 1308 1286 1260 1236 1206 c 0
 1184 1150 1108 1061 1066 1004 c 0
 1024 947 886 796 758 668 c 0
 622 533 481 410 423 376 c 0
 367 343 340 329 323 329 c 0
 312 329 306 335 297 344 c 0
 275 366 271 372 292 390 c 0
 304 402 364 444 424 488 c 0
 482 532 593 620 663 688 c 0
 733 756 889 926 1006 1072 c 0
 1123 1214 1251 1364 1290 1400 c 0
 1327 1433 1367 1457 1380 1457 c 0
679 1316 m 0
 679 1321 679 1324 675 1324 c 0
 660 1324 589 1280 508 1218 c 0
 420 1150 311 1076 261 1054 c 0
 213 1032 156 1012 136 1012 c 0
 97 1012 48 1023 48 1062 c 0
 48 1082 74 1098 136 1112 c 0
 184 1124 252 1150 286 1172 c 0
 361 1220 589 1405 675 1444 c 0
 705 1458 727 1465 744 1465 c 0
 782 1465 790 1430 790 1358 c 0
 790 1313 775 1216 754 1140 c 0
 735 1067 725 1008 725 957 c 0
 725 927 732 883 732 860 c 0
 732 824 718 812 688 812 c 0
 644 812 606 859 606 903 c 0
 606 943 621 1028 642 1118 c 0
 664 1209 679 1291 679 1316 c 0
EndSplineSet
EndChar

StartChar: threequarters
Encoding: 190 190 123
Width: 1476
VWidth: 2409
Flags: HW
LayerCount: 2
Fore
SplineSet
740 365 m 0
 679 365 595 387 595 432 c 0
 595 448 610 491 628 527 c 0
 668 607 791 816 852 874 c 0
 878 898 912 918 928 918 c 0
 946 918 955 909 955 893 c 0
 955 879 930 839 896 804 c 0
 862 770 802 686 764 618 c 0
 724 551 695 485 695 468 c 0
 695 448 705 442 736 442 c 0
 785 442 853 449 896 454 c 0
 952 461 954 463 962 527 c 0
 973 594 970 659 1014 683 c 0
 1023.93337033 688.551001066 1032.4156841 691.114532744 1039.44694131 691.114532744 c 0
 1056.48231377 691.114532744 1065 676.066629671 1065 652 c 0
 1065 621 1048 534 1048 503 c 0
 1048 489 1048 485 1059 485 c 0
 1111 485 1330 546 1354 558 c 0
 1371 568 1394 571 1405 567 c 0
 1417 561 1428 553 1428 546 c 0
 1428 539 1417 523 1403 511 c 0
 1375 486 1068 411 1042 385 c 0
 1023 367 1017 327 1013 185 c 0
 1012 88 1002 0 995 -8 c 0
 984 -20 975 -22 952 -11 c 0
 935 -1 928 7 928 61 c 0
 928 89 929 130 932 191 c 2
 941 377 l 1
 820 369 l 2
 788 367 761 365 740 365 c 0
110 518 m 0
 92 518 71 530 71 539 c 0
 71 550 112 588 163 625 c 0
 217 663 344 776 445 874 c 0
 546 971 713 1127 814 1221 c 0
 915 1315 1005 1390 1012 1390 c 0
 1019 1390 1031 1378 1039 1361 c 0
 1051 1341 1050 1328 1036 1311 c 0
 1026 1299 987 1264 949 1235 c 0
 866 1168 306 638 218 574 c 0
 169 539 130 518 110 518 c 0
48 1350 m 0
 48 1449 199 1471 307 1474 c 0
 381 1474 405 1469 428 1446 c 0
 444 1430 456 1407 456 1395 c 0
 456 1349 403 1279 380 1245 c 1
 353 1207 l 1
 412 1158 l 2
 459 1120 469 1100 469 1063 c 0
 469 985 442 957 390 916 c 0
 353 887 324 876 280 876 c 0
 246 876 198 885 172 895 c 0
 146 906 122 926 122 937 c 0
 122 948 133 969 145 981 c 0
 165 1000 170 1000 200 981 c 0
 218 970 253 960 277 960 c 0
 336 960 372 991 372 1051 c 0
 372 1087 362 1101 325 1126 c 0
 295 1144 267 1169 267 1195 c 0
 267 1214 280 1242 308 1283 c 0
 336 1324 359 1367 359 1379 c 0
 359 1394 355 1411 341 1411 c 0
 325 1411 287 1406 244 1398 c 0
 185 1387 138 1369 119 1351 c 0
 101 1334 79 1320 71 1320 c 0
 55 1320 48 1334 48 1350 c 0
EndSplineSet
EndChar

StartChar: quotesinglbase
Encoding: 8218 8218 124
Width: 345
Flags: HW
LayerCount: 2
Fore
SplineSet
75 321 m 0
 75 380 125 420 183 420 c 0
 229 420 297 404 297 371 c 0
 297 358 290 338 275 301 c 0
 244 224 192 109 163 39 c 0
 147 -4 131 -30 80 -30 c 0
 56 -30 48 -24 48 -8 c 0
 48 4 56 19 66 28 c 0
 102 59 117 107 139 170 c 0
 150 201 157 231 157 243 c 0
 157 254 143 257 130 257 c 0
 100 257 75 288 75 321 c 0
EndSplineSet
EndChar

StartChar: quoteleft
Encoding: 8216 8216 125
Width: 474
Flags: HW
LayerCount: 2
Fore
SplineSet
145 986 m 0
 125 986 48 1043 48 1064 c 0
 48 1073 79 1131 117 1195 c 0
 155 1259 208 1341 237 1375 c 0
 266 1409 302 1457 318 1481 c 0
 335 1504 359 1524 370 1524 c 0
 393 1524 426 1494 426 1471 c 0
 426 1463 405 1442 380 1426 c 0
 311 1382 261 1300 218 1223 c 1
 183 1155 l 1
 220 1105 l 2
 239 1078 250 1060 250 1045 c 0
 250 1028 235 1016 202 1003 c 0
 180 994 155 986 145 986 c 0
EndSplineSet
EndChar

StartChar: quotedblbase
Encoding: 8222 8222 126
Width: 532
Flags: HW
LayerCount: 2
Fore
SplineSet
389 331 m 0
 389 357 353 391 353 416 c 0
 353 441 374 501 377 513 c 0
 379 520 393 527 409 527 c 0
 446 527 485 475 485 430 c 0
 485 361 467 280 444 225 c 0
 429 185 416 137 416 118 c 0
 416 98 406 69 393 53 c 0
 380 37 370 17 370 10 c 0
 370 2 357 -5 341 -5 c 0
 311 -5 302 8 302 30 c 0
 302 45 306 64 312 85 c 0
 332 160 364 201 380 281 c 0
 386 304 389 319 389 331 c 0
81 437 m 0
 81 482 121 520 167 520 c 0
 221 520 254 464 254 405 c 0
 254 377 246 329 236 299 c 0
 226 269 193 191 164 125 c 0
 118 26 110 9 88 9 c 0
 68 9 48 19 48 35 c 0
 48 67 162 292 162 314 c 0
 162 327 143 353 121 373 c 0
 97 395 81 420 81 437 c 0
EndSplineSet
EndChar

StartChar: quotedblleft
Encoding: 8220 8220 127
Width: 706
Flags: HW
LayerCount: 2
Fore
SplineSet
309 1569 m 0
 333 1569 345 1550 345 1522 c 0
 345 1491 326 1474 301 1462 c 0
 286 1454 259 1423 239 1391 c 0
 214 1347 204 1317 203 1266 c 0
 201 1191 200 1184 145 1171 c 0
 138 1170 132 1169 127 1169 c 0
 109 1169 98 1177 79 1201 c 0
 62 1221 48 1246 48 1259 c 0
 48 1285 94 1334 112 1340 c 0
 118 1342 146 1383 175 1430 c 0
 203 1477 239 1527 254 1541 c 0
 270 1556 295 1569 309 1569 c 0
417 1182 m 0
 395 1182 374 1203 374 1225 c 0
 374 1246 390 1288 423 1355 c 0
 458 1424 501 1489 534 1524 c 0
 564 1555 596 1580 605 1580 c 0
 624 1580 658 1572 658 1553 c 0
 658 1545 627 1508 589 1469 c 0
 552 1430 518 1383 513 1366 c 0
 511 1360 511 1354 511 1346 c 0
 511 1331 514 1313 519 1300 c 0
 528 1280 535 1267 535 1256 c 0
 535 1247 529 1239 514 1231 c 0
 495 1220 449 1182 417 1182 c 0
EndSplineSet
EndChar

StartChar: ellipsis
Encoding: 8230 8230 128
Width: 817
Flags: HW
LayerCount: 2
Fore
SplineSet
696 311 m 0
 652 311 634 349 634 395 c 0
 634 432 662 460 698 460 c 0
 732 460 769 432 769 399 c 0
 769 369 728 311 696 311 c 0
48 389 m 0
 48 424 106 460 142 460 c 0
 176 460 249 437 249 399 c 0
 249 394 248 388 245 383 c 0
 235 368 146 322 120 322 c 0
 92 325 48 360 48 389 c 0
410 326 m 0
 366 326 334 345 334 391 c 0
 334 431 386 471 427 471 c 0
 471 471 483 448 483 400 c 0
 483 353 457 326 410 326 c 0
EndSplineSet
EndChar

StartChar: Euro
Encoding: 8364 8364 129
Width: 1642
VWidth: 2875
Flags: HW
LayerCount: 2
Fore
SplineSet
603 800 m 0
 603 795 605 796 613 796 c 0
 644 796 742 807 856 826 c 0
 990 847 1163 872 1240 883 c 0
 1286 888 1334 896 1371 896 c 0
 1411 896 1439 887 1439 858 c 0
 1439 808 1387 792 1323 792 c 0
 1187 792 818 716 693 690 c 0
 619 674 554 650 543 637 c 0
 533 626 522 592 519 563 c 0
 518 553.4 517.4 545.4 517.4 538.76 c 0
 517.4 515.131682442 524.997674607 508.724760661 549.205085484 508.724760661 c 0
 552.208618904 508.724760661 555.467852479 508.823392624 559 509 c 0
 613 512 1141 572 1187 582 c 0
 1217 590 1247 611 1258 637 c 0
 1269 661 1295 682 1311 682 c 0
 1348 682 1383 600 1383 565 c 0
 1383 551 1369 530 1355 517 c 0
 1323 493 614 402 571 392 c 0
 523 379 515 373 515 315 c 0
 515 308 515 300 515 291 c 0
 515 235 528 187 554 157 c 0
 615 75 669 83 834 80 c 0
 920 80 1120 93 1280 114 c 0
 1416 130 1496 138 1540 138 c 0
 1582 138 1594 132 1594 105 c 0
 1594 77 1547 72 1487 62 c 0
 1337 30 987 -24 797 -24 c 0
 655 -22 610 -15 559 14 c 0
 471 65 419 143 403 269 c 0
 394 347 391 367 367 367 c 0
 360 367 353 365 343 363 c 0
 316 357 234 348 165 348 c 0
 117 348 75 352 61 366 c 0
 52 375 48 384 48 391 c 0
 48 456 373 458 399 504 c 0
 407 515 413 552 413 586 c 2
 413 645 l 1
 315 645 l 2
 247 645 158 658 158 707 c 0
 158 713 160 719 162 725 c 0
 172 749 200 755 312 755 c 0
 450 755 452 757 482 811 c 0
 535 912 653 1110 730 1200 c 0
 831 1318 1008 1443 1160 1517 c 0
 1240 1557 1307 1579 1357 1579 c 0
 1417 1579 1469 1565 1469 1520 c 0
 1469 1491 1436 1467 1408 1453 c 0
 1382 1442 1324 1432 1274 1432 c 0
 1196 1432 1165 1419 1016 1320 c 0
 893 1238 827 1178 768 1096 c 0
 722 1035 664 944 640 896 c 0
 617 852 603 812 603 800 c 0
EndSplineSet
EndChar

StartChar: uniFB00
Encoding: 64256 64256 130
Width: 1187
VWidth: 2296
Flags: HW
LayerCount: 2
Fore
SplineSet
544 269 m 0
 523 269 414 198 414 178 c 0
 414 161 505 43 513 35 c 0
 516 31 523 34 531 42 c 0
 540 51 557 180 557 229 c 0
 557 258 553 269 545 269 c 0
 544 269 l 0
302 858 m 0
 302 852 302 849 306 849 c 0
 316 849 348 878 384 917 c 0
 424 960 488 1055 524 1129 c 0
 560 1203 592 1276 592 1290 c 0
 592 1317 585 1327 572 1327 c 0
 560 1327 543 1318 523 1306 c 0
 409 1234 357 1116 319 960 c 0
 308 916 302 875 302 858 c 0
241 473 m 0
 241 444 244 423 257 423 c 0
 272 423 309 441 346 466 c 0
 467 549 587 699 675 828 c 0
 780 981 765 1002 852 1172 c 0
 924 1311 952 1341 1025 1442 c 0
 1048 1472 1070 1497 1073 1497 c 0
 1095 1497 1139 1466 1139 1441 c 0
 1139 1427 1117 1376 1092 1327 c 0
 1067 1278 1012 1185 969 1120 c 0
 878 982 736 737 693 564 c 0
 678 510 670 460 670 443 c 0
 670 426 694 434 717 444 c 0
 738 454 765 462 777 462 c 0
 798 462 1080 595 1100 595 c 0
 1109 595 1132 590 1132 579 c 0
 1132 557 1040 492 1029 492 c 0
 1023 492 962 465 890 431 c 0
 818 399 739 360 710 347 c 0
 681 334 649 303 637 278 c 0
 624 249 613 168 609 59 c 0
 607 15 606 -18 606 -44 c 0
 606 -111 613 -128 635 -157 c 0
 652 -182 665 -214 665 -232 c 0
 665 -257 642 -283 614 -283 c 0
 606 -283 597 -281 588 -276 c 0
 574 -267 529 -196 489 -118 c 0
 449 -40 389 62 357 106 c 0
 323 150 296 192 296 196 c 0
 296 202 309 219 329 236 c 0
 347 254 401 289 450 315 c 0
 499 340 552 373 565 386 c 0
 589 407 619 514 619 569 c 0
 619 575 619 582 615 582 c 0
 605 582 566 549 518 499 c 0
 454 434 388 382 324 350 c 2
 227 301 l 1
 216 7 l 2
 208 -187 198 -301 184 -333 c 0
 171.769725975 -367.070049069 158.776290712 -379.771583463 139.019477094 -379.771583463 c 0
 136.160657564 -379.771583463 133.160224956 -379.505635993 130 -379 c 0
 100 -375 95 -364 95 -307 c 0
 95 -251 127 54 127 176 c 0
 127 231 111 265 84 296 c 0
 69 312 63 326 63 338 c 0
 63 363 88 381 120 388 c 0
 152 396 156 406 168 509 c 0
 173 549 175 588 175 615 c 0
 175 657 162 669 121 669 c 0
 90 669 48 687 48 711 c 0
 48 730 79 748 96 748 c 0
 106 748 114 745 128 745 c 0
 174 745 191 763 199 815 c 0
 217 907 269 1102 305 1181 c 0
 340 1258 422 1353 488 1387 c 0
 512 1399 564 1416 606 1416 c 0
 657 1416 680 1383 680 1333 c 0
 680 1310 655 1232 624 1159 c 0
 558 1011 471 873 363 782 c 0
 276 712 259 670 245 532 c 0
 243 508 241 489 241 473 c 0
EndSplineSet
Ligature2: "liga" f f
EndChar

StartChar: uniFB01
Encoding: 64257 64257 131
Width: 1228
VWidth: 2416
Flags: HW
LayerCount: 2
Fore
SplineSet
1130 971 m 0
 1078 971 1059 1020 1059 1072 c 0
 1059 1106 1066 1114 1098 1114 c 0
 1126 1114 1141 1098 1161 1059 c 0
 1172 1035 1180 1016 1180 1001 c 0
 1180 981 1166 971 1130 971 c 0
513 992 m 0
 513 989 513 986 515 986 c 0
 521 986 552 1013 583 1050 c 0
 618 1089 667 1167 695 1223 c 0
 723 1279 748 1345 748 1378 c 0
 748 1414 733 1428 715 1428 c 0
 693 1428 666 1409 649 1384 c 0
 593 1310 566 1209 535 1097 c 0
 522 1049 513 1007 513 992 c 0
120 820 m 0
 144 820 167 799 196 799 c 0
 254 799 326 840 357 859 c 0
 391 880 409 903 409 928 c 0
 409 950 421 1026 441 1099 c 0
 458 1172 490 1275 507 1327 c 0
 543 1428 573 1484 654 1519 c 0
 681 1530 703 1540 706 1541 c 0
 735 1541 822 1489 835 1465 c 0
 845 1445 852 1418 852 1398 c 0
 852 1378 821 1299 783 1218 c 0
 731 1110 684 1040 601 952 c 0
 539 888 482 811 472 786 c 0
 462 760 412 552 412 468 c 0
 412 440 415 428 443 428 c 0
 519 428 721 525 751 541 c 0
 815 576 894 624 922 646 c 0
 950 668 992 719 1013 757 c 0
 1034 796 1062 828 1076 828 c 0
 1090 828 1111 818 1122 805 c 0
 1131 795 1135 776 1135 745 c 0
 1135 712 1125 637 1125 606 c 0
 1125 573 1131 557 1147 541 c 0
 1161 526 1167 513 1167 501 c 0
 1167 470 1125 451 1083 451 c 0
 1039 451 994 472 994 519 c 0
 994 543 985 558 971 558 c 0
 958 558 912 534 866 506 c 0
 778 449 615 385 523 344 c 0
 495 331 461 322 450 322 c 0
 439 322 416 306 401 289 c 0
 382 268 376 243 376 144 c 0
 376 -8 382 -208 382 -325 c 0
 382 -371 378 -380 361 -380 c 0
 335 -380 305 -372 296 -359 c 0
 292 -349 282 -284 278 -213 c 0
 264 -48 222 100 159 215 c 0
 134 260 99 320 84 347 c 0
 72.1786110232 368.278500158 62.8415818213 393.283539979 62.8415818213 409.778209771 c 0
 62.8415818213 414.213402567 63.5166481892 418.033296378 65 421 c 0
 69 435 90 448 107 448 c 0
 122 448 157 437 181 424 c 0
 206 411 250 400 278 400 c 2
 327 400 l 1
 338 508 l 1
 342 567 351 640 355 672 c 0
 357 686 358 697 358 707 c 0
 358 732 351 742 335 742 c 0
 322 742 302 735 276 725 c 0
 247 712 183 701 140 701 c 0
 81 701 48 702 48 738 c 0
 48 779 80 820 120 820 c 0
EndSplineSet
Ligature2: "liga" f i
EndChar

StartChar: uniFB02
Encoding: 64258 64258 132
Width: 1569
VWidth: 2700
Flags: HW
LayerCount: 2
Fore
SplineSet
230 423 m 0
 205 423 197 409 197 388 c 0
 197 356 216 310 224 279 c 2
 244 207 l 1
 257 255 l 2
 261 268 263 291 263 317 c 0
 263 366 254 423 230 423 c 0
669 1453 m 0
 652 1453 630 1437 601 1418 c 0
 520 1361 472 1247 440 1135 c 0
 426 1086 415 1041 415 1037 c 0
 415 1033 424 1028 437 1028 c 0
 448 1028 495 1068 541 1116 c 0
 587 1164 641 1243 663 1292 c 0
 684 1337 698 1387 698 1409 c 0
 698 1439 681 1453 669 1453 c 0
1026 735 m 0
 1026 663 1070 583 1154 583 c 0
 1224 583 1303 599 1353 626 c 0
 1389 646 1441 661 1466 661 c 0
 1501 661 1521 656 1521 641 c 0
 1521 634 1516 624 1508 612 c 0
 1461 551 1328 477 1201 477 c 0
 1122 477 1061 508 1015 550 c 2
 964 596 l 1
 966 778 l 2
 966 796 967 814 967 831 c 0
 967 908 964 963 961 963 c 0
 958 963 901 914 839 854 c 0
 698 720 618 641 460 539 c 0
 401 501 346 462 342 454 c 0
 338 446 330 258 327 38 c 0
 323 -264 315 -365 301 -375 c 0
 290 -382 267 -380 252 -372 c 0
 237 -364 214 -332 201 -304 c 0
 188 -273 174 -179 167 -94 c 0
 157 73 134 287 79 396 c 0
 64 431 48 472 48 487 c 0
 48 530 101 533 153 533 c 0
 248 533 268 552 278 657 c 0
 285 707 295 773 299 801 c 0
 301 814 302 824 302 831 c 0
 302 851 291 853 252 853 c 0
 197 853 160 869 160 917 c 0
 160 932 167 951 178 958 c 0
 188 965 202 961 205 951 c 0
 208 940 226 932 248 932 c 0
 310 932 330 1007 341 1070 c 0
 345 1106 364 1184 384 1243 c 0
 411 1331 435 1366 509 1443 c 0
 590 1527 605 1537 664 1537 c 0
 717 1537 738 1527 763 1495 c 0
 780 1472 789 1454 789 1432 c 0
 789 1424 788 1416 786 1406 c 0
 755 1220 631 1061 495 962 c 0
 442 924 398 892 398 892 c 1
 398 892 360 653 360 619 c 0
 360 615 360 614 363 614 c 0
 374 614 410 628 451 648 c 0
 497 670 606 752 691 829 c 0
 855 975 1000 1141 1104 1310 c 0
 1135 1359 1168 1428 1181 1460 c 0
 1195 1500 1210 1531 1236 1531 c 0
 1262 1531 1307 1486 1307 1466 c 0
 1307 1455 1275 1395 1239 1329 c 0
 1203 1263 1150 1164 1122 1105 c 0
 1094 1048 1058 940 1045 869 c 0
 1033 813 1026 771 1026 735 c 0
EndSplineSet
Ligature2: "liga" f l
EndChar

StartChar: uniFB03
Encoding: 64259 64259 133
Width: 1581
VWidth: 2624
Flags: HW
LayerCount: 2
Fore
SplineSet
1396 1168 m 0
 1396 1216 1418 1276 1464 1276 c 0
 1490 1276 1498 1264 1498 1230 c 0
 1498 1203 1505 1165 1509 1144 c 0
 1518 1114 1512 1105 1485 1105 c 0
 1435 1105 1396 1116 1396 1168 c 0
908 -71 m 0
 914 -71 913 -67 913 -59 c 0
 913 14 865 234 858 291 c 0
 854 325 840 354 828 354 c 0
 816 352 781 342 753 328 c 0
 719 313 707 308 707 292 c 0
 707 284 710 273 716 258 c 0
 728 225 868 -71 908 -71 c 0
694 1395 m 0
 680 1395 659 1387 644 1378 c 0
 629 1369 584 1313 546 1255 c 0
 507 1195 463 1112 448 1072 c 0
 434 1032 423 993 423 984 c 0
 423 975 432 969 444 969 c 0
 454 969 501 1006 543 1051 c 0
 621 1135 680 1227 706 1341 c 0
 715 1381 710 1395 694 1395 c 0
1043 -290 m 0
 1043 -336 1022 -375 998 -375 c 0
 976 -375 949 -350 922 -315 c 0
 894 -279 800 -115 714 49 c 0
 614 240 571 333 571 364 c 0
 571 385 613 403 639 412 c 0
 666 420 724 440 766 460 c 0
 830 487 847 507 856 546 c 0
 860 574 867 646 867 706 c 0
 867 766 861 816 852 816 c 0
 844 816 818 785 792 747 c 0
 740 666 512 435 424 390 c 0
 388 370 347 342 332 328 c 0
 311 306 304 264 304 135 c 0
 304 25 315 -74 336 -158 c 0
 348 -203 363 -263 363 -310 c 0
 363 -350 353 -380 320 -380 c 0
 304 -380 276 -359 262 -332 c 0
 248 -306 226 -218 206 -138 c 0
 185 -58 150 60 124 126 c 0
 100 190 73 250 64 259 c 0
 54 269 48 288 48 304 c 0
 48 340 200 389 216 411 c 0
 226 423 240 511 249 610 c 0
 255 678 258 720 258 748 c 0
 258 793 249 801 225 820 c 0
 203 836 184 863 184 877 c 0
 184 891 202 900 224 900 c 0
 292 900 299 931 320 999 c 0
 359 1131 448 1319 540 1411 c 0
 588 1459 645 1499 669 1507 c 0
 676.502577388 1509.14359354 684.292341855 1510.13843876 692.196152423 1510.13843876 c 0
 713.789764467 1510.13843876 736.234628196 1502.71281292 756 1491 c 0
 794 1467 800 1450 800 1363 c 0
 800 1289 787 1243 754 1180 c 0
 697 1074 598 947 490 891 c 0
 380 839 381 820 357 679 c 0
 345 617 332 552 328 531 c 0
 327 524 327 518 327 513 c 0
 327 490 337 480 352 480 c 0
 366 480 385 488 404 501 c 0
 497 563 650 723 720 823 c 0
 759 880 820 972 854 1029 c 0
 926 1149 926 1215 962 1353 c 0
 974 1401 989 1459 993 1485 c 0
 1002 1523 1014 1529 1068 1537 c 0
 1100 1540 1128 1546 1150 1546 c 0
 1183 1546 1217 1523 1217 1479 c 0
 1217 1449 1196 1406 1134 1296 c 0
 1068 1180 1026 1083 1004 991 c 0
 979 882 956 759 956 644 c 0
 956 614 955 591 971 591 c 0
 1012 591 1160 713 1209 751 c 0
 1279 805 1349 871 1365 895 c 0
 1382 923 1411 963 1443 963 c 0
 1472 963 1495 932 1495 899 c 0
 1495 850 1474 772 1474 717 c 0
 1474 670 1483 628 1509 609 c 0
 1523 599 1533 571 1533 549 c 0
 1533 515 1524 508 1478 508 c 0
 1402 508 1384 523 1362 583 c 0
 1354.58342613 603.024749443 1350.46718634 625.799777283 1350.46718634 640.31035636 c 0
 1350.46718634 645.364847808 1350.96662955 649.416573868 1352 652 c 0
 1354 661 1357 697 1341 697 c 0
 1321 697 1259 659 1152 582 c 0
 1036 496 968 434 960 408 c 0
 958 402 957 391 957 376 c 0
 957 232 1009 -40 1029 -155 c 0
 1037 -204 1043 -255 1043 -290 c 0
EndSplineSet
Ligature2: "liga" f f i
EndChar

StartChar: c_k.liga
Encoding: 993082 993082 134
Width: 2220
VWidth: 3315
Flags: HW
LayerCount: 2
Fore
SplineSet
962 701 m 0
 962 588 915 523 792 523 c 0
 754 523 726 535 726 554 c 0
 726 565 736 579 760 595 c 0
 787 614 808 651 808 678 c 0
 808 748 769 772 716 772 c 0
 621 772 478 695 418 656 c 0
 340 605 257 528 232 488 c 0
 205 442 192 378 192 304 c 0
 192 175 230 103 344 103 c 0
 384 103 467 121 532 148 c 0
 724 218 882 367 998 542 c 0
 1057 629 1137 754 1173 819 c 0
 1226 914 1310 1182 1310 1309 c 0
 1310 1328 1325 1377 1342 1419 c 0
 1365 1474 1379 1491 1414 1491 c 0
 1475 1491 1491 1489 1491 1409 c 0
 1491 1391 1491 1368 1490 1340 c 0
 1486 1142 1351 817 1319 635 c 0
 1308 579 1303 530 1303 499 c 0
 1303 477 1303 459 1316 459 c 0
 1366 459 1587 723 1612 752 c 0
 1652 801 1703 842 1724 842 c 0
 1761 842 1793 806 1793 765 c 0
 1793 751 1790 736 1781 722 c 0
 1760 676 1614 507 1614 441 c 0
 1614 317 1751 248 1887 248 c 0
 1956 248 2007 268 2089 268 c 0
 2147 265 2172 253 2172 236 c 0
 2172 216 2135 189 2079 165 c 0
 2015 136 1968 126 1897 126 c 0
 1707 126 1595 176 1520 287 c 0
 1493 329 1466 363 1456 363 c 0
 1446 363 1405 338 1361 308 c 0
 1317 278 1262 255 1241 255 c 0
 1171 255 1169 320 1158 407 c 0
 1150 462 1147 485 1140 485 c 0
 1135 485 1128 471 1116 446 c 0
 1082 374 788 139 722 99 c 0
 661 61 441 -28 346 -28 c 0
 234 -28 128 42 88 124 c 0
 63 168 48 250 48 315 c 0
 48 378 63 458 80 490 c 0
 128 585 373 794 472 842 c 0
 533 870 607 884 698 884 c 0
 820 884 840 878 897 821 c 0
 933 785 962 733 962 701 c 0
EndSplineSet
Ligature2: "dlig" c k
EndChar

StartChar: Q_u.liga
Encoding: 993083 993083 135
Width: 2264
VWidth: 3131
Flags: HW
LayerCount: 2
Fore
SplineSet
951 906 m 0
 951 890 955 852 959 852 c 0
 963 852 971 878 985 939 c 0
 1014 1075 1032 1107 1056 1228 c 0
 1057.74234614 1241.59029991 1058.63467666 1254.5734458 1058.63467666 1265.72230562 c 0
 1058.63467666 1286.56726022 1055.51530772 1301 1049 1301 c 0
 1017 1301 986 1111 986 1075 c 0
 986 1009 951 973 951 906 c 0
737 898 m 0
 737 864 734 799 734 758 c 0
 734 684 740 625 752 596 c 0
 766 562 789 538 803 538 c 0
 825 538 830 582 830 742 c 0
 830 898 825 948 801 968 c 0
 786 982 772 1004 772 1019 c 0
 772 1033 790 1048 810 1056 c 0
 839 1063 862 1112 862 1160 c 0
 862 1255 798 1389 754 1430 c 0
 720 1466 688 1476 628 1476 c 0
 514 1476 437 1412 376 1347 c 0
 298 1264 203 1041 174 902 c 0
 160 837 149 702 147 602 c 0
 147 502 155 376 167 322 c 0
 187 217 217 186 322 186 c 0
 434 186 524 247 606 305 c 0
 655 341 694 380 694 392 c 0
 694 406 670 466 643 529 c 0
 610 603 598 641 598 707 c 0
 598 730 599 756 602 789 c 0
 607 901 617 941 646 963 c 0
 663.958315233 975.570820663 689.979157617 983.304125036 707.411745674 983.304125036 c 0
 709.393660404 983.304125036 711.264567948 983.204168477 713 983 c 0
 731 979 737 962 737 898 c 0
1779 808 m 0
 1832 808 1848 723 1848 657 c 0
 1848 533 1823 432 1763 364 c 0
 1721 322 1695 284 1695 220 c 0
 1695 201 1697 181 1702 157 c 0
 1714 94 1719 87 1779 87 c 0
 1815 87 1876 109 1918 138 c 0
 1959 167 2028 220 2069 256 c 0
 2108 293 2158 322 2182 322 c 0
 2209 322 2219 314 2216 290 c 0
 2213 270 2142 201 2062 133 c 0
 1948 38 1892 6 1814 -11 c 0
 1772 -20 1741 -26 1716 -26 c 0
 1696 -26 1680 -22 1666 -16 c 0
 1640 -4 1594 55 1563 118 c 1
 1505 227 l 1
 1347 213 l 2
 1315 211 1285 209 1256 209 c 0
 1105 209 984 240 864 276 c 1
 772 307 l 1
 670 230 l 1
 614 189 532 141 488 121 c 0
 446 101 366 86 306 86 c 0
 172 86 116 125 75 215 c 0
 55 263 48 366 48 563 c 0
 48 750 57 880 77 958 c 0
 118 1106 205 1294 283 1398 c 0
 366 1505 478 1573 634 1592 c 0
 635.709985955 1592.22799813 637.822841292 1592.33903418 640.277824204 1592.33903418 c 0
 659.357955993 1592.33903418 699.103966292 1585.63201124 731 1575 c 0
 768 1565 833 1524 874 1483 c 0
 907.797644884 1450.85102072 935.479568651 1428.89490997 944.162220294 1428.89490997 c 0
 946.012513138 1428.89490997 947 1429.89199362 947 1432 c 0
 947 1466 1067 1575 1104 1575 c 0
 1126 1575 1152 1559 1162 1539 c 0
 1169 1527 1172 1502 1172 1466 c 0
 1172 1432 1169 1389 1163 1338 c 0
 1141 1142 1079 827 1014 677 c 0
 988 621 968 545 968 511 c 0
 968 467 985 431 1027 390 c 0
 1083 337 1097 332 1252 332 c 0
 1342 332 1419 339 1427 344 c 0
 1429 348 1430 363 1430 386 c 0
 1430 452 1411 580 1411 648 c 0
 1411 688 1418 715 1440 715 c 0
 1448 715 1460 712 1473 703 c 0
 1515 676 1530 480 1544 424 c 0
 1549 398 1566 382 1578 385 c 0
 1590 388 1614 458 1636 538 c 0
 1658 618 1685 706 1697 732 c 0
 1714 763 1745 808 1779 808 c 0
EndSplineSet
Ligature2: "dlig" Q u
EndChar

StartChar: s_s.liga
Encoding: 993084 993084 136
Width: 1539
VWidth: 2698
Flags: HW
LayerCount: 2
Fore
SplineSet
1249 842 m 0
 1275 842 1314 813 1314 783 c 0
 1314 767 1306 747 1288 710 c 0
 1267 668 1249 621 1249 603 c 0
 1251 588 1261 544 1273 510 c 0
 1285 476 1341 388 1395 316 c 0
 1461 229 1491 171 1491 138 c 0
 1491 68 1462 46 1387 46 c 0
 1334 46 1268 67 1268 112 c 0
 1268 141 1287 161 1315 165 c 0
 1336 168 1353 178 1353 182 c 0
 1353 190 1315 240 1267 297 c 0
 1221 354 1174 426 1162 458 c 0
 1152 488 1138 513 1129 513 c 0
 1121 513 1096 480 1072 441 c 0
 1027 360 795 98 720 48 c 0
 696 31 667 19 643 19 c 0
 615 19 594 35 594 74 c 0
 594 101 609 121 642 136 c 0
 681 155 696 181 696 211 c 0
 696 249 671 294 636 340 c 0
 600 388 563 426 559 426 c 0
 555 426 511 382 463 328 c 0
 417 272 325 172 259 104 c 0
 178 17 127 -22 100 -22 c 0
 81 -22 48 -13 48 3 c 0
 48 19 82 61 141 114 c 0
 198 168 294 269 351 338 c 0
 409 408 471 492 486 526 c 0
 508 586 564 732 616 756 c 0
 623 760 631 762 639 762 c 0
 673 762 706 725 706 691 c 0
 706 687 706 682 705 678 c 0
 689 630 657 618 657 569 c 0
 657 557 659 542 664 524 c 0
 674 488 715 424 753 382 c 2
 823 304 l 1
 864 342 l 2
 886 363 948 450 1002 537 c 0
 1058 624 1128 726 1161 768 c 0
 1194 807 1231 842 1249 842 c 0
EndSplineSet
Ligature2: "dlig" s s
EndChar

StartChar: e_i.liga
Encoding: 993085 993085 137
Width: 968
VWidth: 2170
Flags: HW
LayerCount: 2
Fore
SplineSet
508 567 m 0
 508 585 488 599 464 599 c 0
 407 599 264 476 238 443 c 0
 221 423 206 400 206 394 c 0
 206 387 215 381 226 381 c 0
 237 381 281 395 325 412 c 0
 369 429 430 465 460 493 c 0
 491 522 508 551 508 567 c 0
920 150 m 0
 920 105 885 65 840 65 c 0
 816 65 807 77 785 126 c 2
 757 190 l 1
 696 126 l 1
 614 37 499 -18 342 -18 c 0
 213 -18 129 23 77 95 c 0
 55 125 48 155 48 220 c 0
 49 287 58 321 88 375 c 0
 110 413 164 477 216 520 c 0
 265 562 331 612 362 634 c 0
 393 654 437 671 462 671 c 0
 487 671 524 659 544 642 c 0
 572 620 580 603 580 561 c 0
 580 515 570 500 504 439 c 0
 425 366 320 321 200 310 c 0
 148 306 143 302 132 256 c 0
 130 246 129 236 129 226 c 0
 129 163 171 99 212 78 c 0
 240 65 316 53 371 53 c 0
 491 53 583 108 656 175 c 0
 698 212 737 243 744 243 c 0
 751 243 758 273 764 310 c 0
 768 346 781 389 791 408 c 0
 801 427 817 443 828 443 c 0
 845 443 848 419 848 325 c 0
 848 217 852 207 880 195 c 0
 907 185 920 171 920 150 c 0
828 808 m 0
 828 844 845 863 871 863 c 0
 872 863 872 863 873 863 c 0
 886 863 920 827 920 799 c 0
 920 782 908 768 870 768 c 0
 833 768 828 772 828 808 c 0
EndSplineSet
Ligature2: "dlig" e i
EndChar

StartChar: t_t.liga
Encoding: 993086 993086 138
Width: 1462
VWidth: 2655
Flags: HW
LayerCount: 2
Fore
SplineSet
354 497 m 0
 350 539 347 556 325 556 c 0
 318 556 308 554 296 550 c 0
 283.740473581 545.096189432 277.492786683 541.63522035 277.492786683 533.956755695 c 0
 277.492786683 525.977061151 284.240288533 513.442471389 298 490 c 0
 315 465 335 442 343 442 c 0
 353 442 357 465 354 497 c 0
489 21 m 0
 489 -2 470 -20 450 -20 c 0
 433 -20 414 -10 404 0 c 0
 395 10 378 65 365 118 c 0
 335 257 297 320 235 434 c 0
 204 489 158 542 118 571 c 0
 76 598 48 628 48 657 c 0
 48 682 64 692 85 692 c 0
 102 692 122 686 141 676 c 0
 182 654 220 637 273 637 c 0
 287 637 302 638 319 641 c 2
 369 650 l 1
 376 959 l 2
 380 1128 394 1295 404 1327 c 0
 413 1359 431 1399 444 1413 c 0
 456 1426 476 1439 486 1439 c 0
 503 1439 516 1414 516 1387 c 0
 516 1369 514 1345 508 1325 c 0
 482 1217 462 969 454 833 c 0
 451 789 450 759 450 739 c 0
 450 699 457 696 473 696 c 0
 490 696 529 715 567 737 c 0
 674 807 747 913 816 1037 c 0
 877 1150 907 1248 930 1369 c 0
 936 1409 947 1424 967 1424 c 0
 1006 1424 1024 1395 1024 1353 c 0
 1024 1343 1023 1333 1021 1322 c 0
 1008 1232 955 882 947 781 c 0
 944 760 943 740 943 723 c 0
 943 718.058823529 942.972318339 713.588235294 942.972318339 709.545898636 c 0
 942.972318339 679.228373702 944.529411765 673 971 673 c 0
 989 673 1015 675 1043 680 c 0
 1086 689 1170 719 1230 748 c 0
 1291 777 1356 800 1376 800 c 0
 1397 800 1414 790 1414 781 c 0
 1414 771 1391 747 1364 729 c 0
 1298 686 1124 613 1030 593 c 1
 930 567 922 550 922 429 c 0
 922 365 933 315 960 255 c 0
 981 209 998 157 998 143 c 0
 998 118 974 96 948 96 c 0
 938 96 926 99 917 108 c 0
 904 121 886 160 876 194 c 0
 864 240 829 284 748 361 c 0
 688 419 640 474 640 482 c 0
 640 490 654 509 674 526 c 0
 692 544 740 574 782 594 c 0
 852 626 856 632 868 701 c 0
 873 732 876 786 876 835 c 0
 876 848 877 860 876 872 c 2
 870 970 l 1
 843 918 l 2
 796 831 665 691 570 644 c 0
 522 621 471 589 458 577 c 0
 436 559 432 531 432 421 c 0
 432 329 443 247 465 159 c 0
 479 103 489 48 489 21 c 0
EndSplineSet
Ligature2: "dlig" t t
EndChar

StartChar: a.ss01
Encoding: 993070 993070 139
Width: 1263
VWidth: 3350
Flags: HW
LayerCount: 2
Fore
SplineSet
452 496 m 0
 452 541 545 630 545 656 c 0
 545 689 491 728 468 728 c 0
 463 728 425 713 385 690 c 0
 335 663 293 614 248 526 c 0
 203 440 182 368 182 310 c 0
 182 252 198 198 229 153 c 0
 266 98 313 75 366 75 c 0
 420 75 481 100 542 139 c 2
 643 206 l 1
 634 359 l 1
 630 444 623 517 621 519 c 0
 620 520 619 520 617 520 c 0
 595 520 502 485 467 485 c 0
 458 485 452 488 452 496 c 0
1184 216 m 0
 1193 216 1215 197 1215 177 c 0
 1215 156 1186 130 1129 94 c 0
 1055 47 1012 31 927 31 c 0
 851 31 807 43 767 74 c 2
 713 117 l 1
 608 51 l 1
 516 -6 454 -27 339 -27 c 0
 229 -27 177 4 124 81 c 0
 86 139 48 204 48 288 c 0
 48 311 51 336 58 362 c 0
 96 490 149 606 232 701 c 0
 273 750 337 798 371 809 c 0
 398 817 417 819 434 819 c 0
 465 819 487 810 531 810 c 0
 554 810 594 785 625 756 c 2
 677 706 l 1
 722 746 l 1
 747 771 775 789 788 789 c 0
 799 789 826 772 846 749 c 0
 867 726 875 684 875 635 c 0
 875 536 843 409 824 353 c 0
 809 309 802 284 802 264 c 0
 802 208 870 150 911 132 c 0
 924 127 936 125 949 125 c 0
 977 125 1010 136 1066 164 c 0
 1122 193 1173 216 1184 216 c 0
EndSplineSet
EndChar

StartChar: a.ss02
Encoding: 993071 993071 140
Width: 1299
VWidth: 3148
Flags: HW
LayerCount: 2
Fore
SplineSet
174 231 m 0
 174 157 182 120 248 120 c 0
 281 120 317 135 356 171 c 0
 412 220 424 255 449 383 c 0
 464 473 477 566 477 609 c 0
 477 668 436 731 388 731 c 0
 334 731 268 623 246 578 c 0
 217 515 174 342 174 231 c 0
264 -3 m 0
 119 -3 48 77 48 225 c 0
 48 396 102 574 172 689 c 0
 230 783 283 844 386 853 c 0
 424 853 559 787 559 751 c 0
 559 740 572 731 586 731 c 0
 622 731 669 809 712 809 c 0
 745 809 762 775 762 726 c 0
 762 629 665 401 631 356 c 0
 615 331 601 281 601 245 c 0
 601 138 702 75 820 75 c 0
 844 75 869 77 894 83 c 0
 930 88 1016 120 1088 151 c 0
 1151 178 1192 190 1216 190 c 0
 1237.13436738 190 1252.00180067 171.199197713 1252.00180067 153.378741278 c 0
 1252.00180067 147.589653544 1250.43281631 141.904023299 1247 137 c 0
 1238 123 1166 83 1087 43 c 0
 968 -15 915 -27 809 -27 c 0
 656 -27 583 14 507 77 c 0
 489 94 479 104 466 104 c 0
 450 104 430 88 385 52 c 0
 332 10 305 -3 264 -3 c 0
EndSplineSet
EndChar

StartChar: d.ss01
Encoding: 993072 993072 141
Width: 1369
VWidth: 2880
Flags: HW
LayerCount: 2
Fore
SplineSet
551 254 m 0
 551 297 568 368 568 408 c 0
 568 432 563 451 552 472 c 0
 524 524 500 542 428 542 c 1
 334 536 246 438 201 362 c 0
 174 314 150 252 150 222 c 0
 150 153 223 63 291 63 c 0
 377 63 471 99 519 147 c 0
 542.611712392 170.611712392 554.751964659 194.988188793 554.751964659 215.447884214 c 0
 554.751964659 218.383856467 554.501968534 221.239173061 554 224 c 0
 552 230 551 240 551 254 c 0
920 1344 m 0
 912 1344 886 1298 862 1246 c 0
 793 1090 754 922 728 708 c 0
 721 639 717 591 717 559 c 0
 717 521.817869624 725.991355484 496.863982708 738.150466904 496.863982708 c 0
 746.266280574 496.863982708 755.793370946 507.981265716 765 534 c 0
 799 628 891 964 912 1078 c 0
 924 1144 934 1232 934 1272 c 0
 934.232756351 1276.53874884 934.343617784 1280.99623441 934.343617784 1285.32989897 c 0
 934.343617784 1318.23401155 927.952596421 1344 920 1344 c 0
1065 255 m 0
 1119 255 1198 264 1250 264 c 0
 1295 264 1321 258 1321 245 c 0
 1321 236 1309 224 1282 206 c 0
 1248 184 1208 175 1095 175 c 0
 959 175 876 184 814 213 c 1
 734 248 l 1
 654 154 l 1
 567 55 467 -22 308 -22 c 0
 196 -22 132 12 84 74 c 0
 58 107 48 144 48 204 c 0
 48 252 61 312 81 350 c 0
 151 473 240 626 429 626 c 0
 433 626 437 626 441 626 c 0
 483 626 536 616 560 602 c 0
 584 588 607 578 616 576 c 0
 624 576 628 615 628 663 c 0
 628 822 698 1087 744 1216 c 0
 770 1290 819 1380 858 1428 c 0
 896 1474 938 1516 952 1520 c 0
 966 1523 988 1516 1002 1504 c 0
 1017 1490 1025 1453 1025 1379 c 0
 1025 1134 958 860 902 669 c 0
 894 642 866 558 840 483 c 1
 792 350 l 1
 831 318 l 2
 885 276 959 255 1065 255 c 0
EndSplineSet
EndChar

StartChar: e.ss01
Encoding: 993073 993073 142
Width: 1223
VWidth: 3250
Flags: HW
LayerCount: 2
Fore
SplineSet
687 742 m 0
 676 742 634 722 587 702 c 0
 540 682 453 614 394 555 c 0
 336 494 290 432 290 418 c 0
 290 410 296 406 308 406 c 0
 354 406 469 459 495 472 c 0
 580 510 702 578 702 681 c 0
 702 715 696 742 687 742 c 0
1150 174 m 0
 1166 174 1175 156 1175 144 c 0
 1175 131 1132 103 1078 74 c 0
 939 7 711 -27 506 -27 c 0
 501 -27 495 -27 490 -27 c 0
 237 -27 94 58 52 261 c 0
 49 275 48 287 48 298 c 0
 48 331 62 352 99 389 c 0
 130 420 200 501 254 564 c 0
 353 681 478 787 617 837 c 0
 643 846 667 851 690 851 c 0
 783 851 846 779 846 679 c 0
 846 656 831 606 813 574 c 0
 797 540 727 475 657 432 c 0
 589 387 466 329 385 304 c 0
 304 279 230 254 221 245 c 0
 210 236 212 212 225 187 c 0
 277 107 400 69 536 69 c 0
 700 69 943 115 1029 146 c 0
 1081 163 1130 174 1150 174 c 0
EndSplineSet
EndChar

StartChar: e.ss02
Encoding: 993074 993074 143
Width: 1199
VWidth: 3546
Flags: HW
LayerCount: 2
Fore
SplineSet
565 588 m 0
 565 635 556 691 538 691 c 0
 521 691 469 654 421 602 c 0
 365 544 305 468 281 428 c 0
 262.470129473 396.087445203 253.477928439 377.951524118 253.477928439 367.864817923 c 0
 253.477928439 358.354980122 261.470996024 356 277 356 c 0
 343 356 487 430 523 464 c 0
 549 488 565 532 565 588 c 0
565 836 m 0
 673 836 703 722 703 598 c 0
 703 412 645 368 493 290 c 0
 415 250 325 218 295 218 c 0
 263 218 243 204 243 184 c 0
 243 164 271 136 307 122 c 0
 341 108 473 94 599 94 c 0
 626 94 650 94 671 94 c 0
 824 94 851 103 963 168 c 0
 1030 208 1096 233 1122 233 c 0
 1146 233 1155 204 1149 188 c 0
 1143 170 1063 118 971 72 c 0
 818 -3 721 -30 524 -30 c 0
 355 -30 216 11 121 80 c 0
 68 121 48 172 48 225 c 0
 48 351 163 494 229 574 c 0
 279 636 353 716 389 748 c 0
 447 800 489 836 565 836 c 0
EndSplineSet
EndChar

StartChar: i.ss01
Encoding: 993075 993075 144
Width: 967
VWidth: 2204
Flags: HW
LayerCount: 2
Fore
SplineSet
322 114 m 0
 322 130 332 161 320 161 c 0
 313 161 265 126 213 85 c 0
 161 44 105 10 88 10 c 0
 60 10 48 19 48 32 c 0
 48 43 58 58 76 71 c 0
 135 114 293 240 343 296 c 0
 368 324 411 396 440 457 c 0
 471 524 508 581 536 601 c 2
 580 636 l 1
 550 672 l 2
 533 694 524 728 524 758 c 0
 524 801 536 862 571 862 c 0
 582 862 603 848 621 835 c 0
 647 815 652 797 652 751 c 0
 651 715 639 679 621 654 c 0
 606.177234267 633.787137637 599.071709294 619.475694679 599.071709294 606.783660626 c 0
 599.071709294 600.638133984 600.737620788 594.872282582 604 589 c 0
 614 570 613 555 595 530 c 0
 559 477 499 366 469 301 c 0
 446 254 422 185 422 125 c 0
 422 74 449 62 503 62 c 0
 548 62 591 71 626 88 c 0
 648 100 711 141 765 178 c 0
 819 215 871 240 887 240 c 0
 901.347742489 240 919.175864669 224.359550564 919.175864669 211.170627336 c 0
 919.175864669 195.889806804 903.951752898 178.88809443 871 161 c 0
 812 130 660 13 592 -4 c 0
 566 -11 514 -18 478 -18 c 0
 392 -18 367 -3 337 53 c 0
 328 73 322 96 322 114 c 0
EndSplineSet
EndChar

StartChar: m.ss01
Encoding: 993076 993076 145
Width: 1736
VWidth: 3625
Flags: HW
LayerCount: 2
Fore
SplineSet
620 589 m 0
 620 609 619 625 609 625 c 0
 585 625 501 561 373 448 c 0
 227 319 131 253 99 253 c 0
 71 253 48 264 48 279 c 0
 48 294 61 323 76 342 c 0
 91 363 599 813 641 813 c 0
 656 813 686 794 705 773 c 0
 741 734 757 668 757 596 c 0
 757 554 752 509 742 467 c 0
 733.477696338 429.037010958 727.356373162 388.673041431 727.356373162 372.415533079 c 0
 727.356373162 367.688974335 727.873774392 365 729 365 c 0
 734 365 781 408 836 466 c 0
 893 527 958 579 983 589 c 0
 993 592 1001 594 1009 594 c 0
 1074 594 1100 499 1108 418 c 1
 1118 306 l 1
 1260 439 l 1
 1338 513 1421 580 1446 593 c 0
 1461 602 1477 606 1492 606 c 0
 1552 606 1603 543 1623 502 c 0
 1663 422 1659 156 1680 53 c 0
 1685.09227722 26.5201584608 1688.22530162 8.68407934697 1688.22530162 -3.32528914868 c 0
 1688.22530162 -26.6911603906 1676.36522775 -28 1644 -28 c 0
 1614 -28 1575 -13 1560 4 c 0
 1530 38 1511 397 1479 429 c 0
 1474 434 1469 437 1462 437 c 0
 1441 437 1407 409 1336 340 c 0
 1271 277 1192 190 1160 144 c 0
 1126 96 1078 51 1051 40 c 0
 1037 33.5 1023 30.25 1009.375 30.25 c 0
 995.75 30.25 982.5 33.5 970 40 c 0
 948 52 938 67 938 115 c 0
 938 158 951 276 951 325 c 0
 951 361 947 382 941 382 c 0
 930 382 886 336 848 279 c 0
 806 222 745 144 711 106 c 0
 677 68 629 36 608 36 c 0
 578 36 552 50 552 78 c 0
 552 118 567 229 588 350 c 0
 609 462 620 545 620 589 c 0
EndSplineSet
EndChar

StartChar: n.ss01
Encoding: 993077 993077 146
Width: 1567
VWidth: 3468
Flags: HW
LayerCount: 2
Fore
SplineSet
163 129 m 0
 102 129 48 210 48 282 c 0
 48 397 146 507 214 572 c 0
 290 639 473 786 570 822 c 0
 604 835 644 844 658 844 c 0
 658.57967926 844.072459908 659.18823593 844.108166748 659.824290893 844.108166748 c 0
 676.744288218 844.108166748 713.123128566 818.84064148 743 788 c 0
 777 754 802 702 811 646 c 0
 820 599 834 560 847 560 c 0
 858 560 873 568 878 579 c 0
 909 624 1104 723 1178 723 c 0
 1228 723 1272 708 1317 668 c 1
 1384 615 l 1
 1371 450 l 1
 1366 358 1353 250 1348 209 c 0
 1346 197 1344 185 1344 174 c 0
 1344 108 1385 68 1450 68 c 0
 1481.3874416 68 1519.5479372 55.0696241879 1519.5479372 30.1751854582 c 0
 1519.5479372 23.3442748667 1516.67473276 15.612558396 1510 7 c 1
 1495 -5 1415 -27 1371 -27 c 0
 1335 -27 1313 -11 1265 34 c 1
 1191 101 l 1
 1223 248 l 2
 1241 327 1256 423 1256 457 c 0
 1256 529 1235 601 1168 601 c 0
 1143 601 1099 587 1072 569 c 0
 1043 549 971 486 912 428 c 0
 847 365 775 266 730 180 c 0
 690 103 651 25 638 12 c 0
 625 -2 595 -15 566 -15 c 0
 540 -15 506 -2 506 19 c 0
 506 44 539 131 583 225 c 0
 667 394 681 450 681 612 c 0
 681 678 669 710 633 710 c 0
 612 710 582 699 541 678 c 0
 437 626 233 445 181 342 c 0
 164 304 157 277 157 252 c 0
 157 225 166 200 181 167 c 0
 192 140 186 129 163 129 c 0
EndSplineSet
EndChar

StartChar: o.ss01
Encoding: 993078 993078 147
Width: 862
VWidth: 3525
Flags: HW
LayerCount: 2
Fore
SplineSet
557 687 m 0
 537 687 501 660 476 626 c 0
 451 594 421 563 407 563 c 0
 393 563 355 541 324 512 c 0
 293 485 252 453 229 440 c 0
 202 426 188 397 188 356 c 0
 188 277 235 161 287 132 c 0
 312 119 361 111 402 111 c 0
 523 111 592 210 639 305 c 0
 670 365 681 407 681 462 c 0
 681 535 656 614 630 645 c 0
 610 668 577 687 557 687 c 0
467 820 m 0
 573 809 651 794 683 771 c 0
 764 713 810 625 814 485 c 0
 814 314 732 180 638 86 c 0
 579 27 492 -27 391 -27 c 0
 365 -27 338 -23 310 -15 c 0
 270 -2 206 28 166 55 c 0
 84 108 48 234 48 364 c 0
 48 463 69 565 108 638 c 0
 137 694 191 759 229 786 c 0
 272 816 297 826 357 826 c 0
 385 826 419 823 467 820 c 0
EndSplineSet
EndChar

StartChar: r.ss01
Encoding: 993079 993079 148
Width: 1595
VWidth: 3585
Flags: HW
LayerCount: 2
Fore
SplineSet
175 274 m 0
 175 261.076923077 175.319526627 249.857988166 175.319526627 240.244879381 c 0
 175.319526627 208.201183432 171.769230769 194 141 194 c 0
 113 194 90 222 69 283 c 0
 56 320 48 341 48 363 c 0
 48 391 60 418 88 473 c 0
 162 619 261 684 417 764 c 0
 487 798 556 828 569 828 c 0
 582 828 614 813 637 796 c 0
 664 779 694 735 709 699 c 0
 725.970665017 655.466554956 737.497030013 641.332330027 761.656062971 641.332330027 c 0
 770.239280094 641.332330027 780.417040036 643.116405008 793 646 c 0
 890 674 1190 720 1323 720 c 0
 1407 720 1470 707 1500 686 c 0
 1527 669 1547 638 1547 619 c 0
 1547 601 1539 593 1499 593 c 0
 1463 593 1377 604 1326 604 c 0
 1158 604 957 553 850 505 c 1
 732 457 718 435 690 294 c 0
 677 231 665 138 665 87 c 0
 665 9 661 -29 610 -29 c 0
 491 -29 480 108 460 217 c 0
 458 235 456 250 456 264 c 0
 456 304 468 334 500 380 c 0
 541 438 570 513 570 589 c 0
 570 629 555 652 516 652 c 0
 508 652 500 652 491 650 c 0
 396 622 259 511 215 418 c 0
 191 373 175 313 175 274 c 0
EndSplineSet
EndChar

StartChar: s.ss01
Encoding: 993080 993080 149
Width: 701
VWidth: 3158
Flags: HW
LayerCount: 2
Fore
SplineSet
48 85 m 0
 48 105 77 128 102 128 c 0
 120 128 143 121 179 107 c 0
 223 90 295 77 337 77 c 0
 408 77 482 112 482 175 c 0
 482 194 459 224 432 243 c 0
 330 316 135 438 135 605 c 0
 135 687 244 774 307 808 c 0
 346 827 411 845 453 847 c 0
 497 847 556 828 592 808 c 0
 624 788 653 762 653 750 c 0
 653 732 589 681 561 681 c 0
 546 681 532 690 506 711 c 0
 477 732 459 741 438 741 c 0
 425 741 411 737 393 731 c 0
 333 709 269 672 269 599 c 0
 269 570 283 527 300 503 c 0
 315 479 382 426 443 384 c 0
 506 342 572 281 587 250 c 0
 602 219 616 175 616 155 c 0
 616 80 513 7 448 -15 c 0
 423 -22 394 -25 364 -25 c 0
 274 -25 171 2 120 27 c 0
 85 45 48 62 48 85 c 0
EndSplineSet
EndChar

StartChar: t.ss01
Encoding: 993081 993081 150
Width: 1138
VWidth: 3282
Flags: HW
LayerCount: 2
Fore
SplineSet
48 637 m 0
 48 679 107 690 166 690 c 0
 210 690 255 697 260 707 c 0
 265 717 285 789 300 869 c 0
 315 947 350 1107 377 1229 c 0
 404 1351 435 1462 447 1477 c 0
 459 1491 479 1503 494 1503 c 0
 516 1503 581 1452 581 1433 c 0
 581 1428 566 1393 549 1352 c 0
 518 1275 448 962 448 828 c 0
 448 821 448 814 448 808 c 0
 452 738 455 723 485 723 c 0
 583 723 693 785 758 828 c 0
 785 850 823 864 838 864 c 0
 869 864 882 851 882 832 c 0
 882 818 875 801 861 785 c 0
 796 720 654 644 542 612 c 0
 452 585 433 575 423 524 c 0
 404 449 419 335 365 296 c 0
 340.969220567 279.037096871 331.425355013 265.571035023 331.425355013 241.125744358 c 0
 331.425355013 230.984562915 333.067876304 218.95383085 336 204 c 0
 348 134 367 90 443 90 c 0
 470 90 530 104 576 119 c 0
 715 172 832 230 929 342 c 0
 973 395 1028 439 1047 439 c 0
 1079 439 1090 423 1090 401 c 0
 1090 383 1083 361 1072 340 c 0
 1058 311 996 243 936 189 c 0
 824 92 623 -26 441 -26 c 0
 253 -26 214 67 214 242 c 0
 214 282 216 327 219 376 c 2
 231 575 l 1
 164 575 l 2
 123 575 48 598 48 637 c 0
EndSplineSet
EndChar

StartChar: copyright
Encoding: 169 169 151
Width: 842
Flags: HW
LayerCount: 2
Fore
SplineSet
346 383 m 0
 291 383 246 417 246 464 c 0
 246 482 257 514 271 533 c 0
 303 581 360 652 408 684 c 0
 429 699 462 709 489 709 c 0
 491 709 493 709 495 709 c 0
 537 709 585 689 585 655 c 0
 585 630 538 597 512 597 c 0
 503 597 495 605 495 614 c 0
 495 623 486 631 476 631 c 0
 466 631 429 603 396 569 c 0
 355 527 337 497 337 478 c 0
 337 455 342 450 365 450 c 0
 425 450 513 475 546 508 c 0
 565 526 591 540 605 540 c 0
 627 540 635 531 635 518 c 0
 635 507 629 494 621 479 c 0
 584 413 455 383 346 383 c 0
122 405 m 0
 122 279 174 214 299 214 c 0
 389 214 497 253 561 284 c 0
 651 325 675 357 710 447 c 0
 727 492 735 539 735 597 c 0
 735 601 735 606 735 610 c 0
 735 729 702 810 604 829 c 0
 568 835 551 841 532 841 c 0
 518 841 502 838 476 830 c 0
 394 801 274 713 218 648 c 0
 161 580 122 515 122 405 c 0
527 924 m 0
 551 930 583 935 612 935 c 0
 634 935 654 932 668 923 c 0
 704 895 745 803 770 755 c 0
 789 716 794 693 794 612 c 0
 794 604 794 595 794 586 c 0
 794 490 788 455 768 405 c 0
 715 272 582 202 433 161 c 0
 397 152 332 144 291 144 c 0
 186 144 126 181 82 246 c 0
 50 294 48 304 48 405 c 0
 48 500 52 519 80 572 c 0
 129 669 162 700 252 774 c 0
 329 833 434 902 527 924 c 0
EndSplineSet
EndChar

StartChar: registered
Encoding: 174 174 152
Width: 1027
Flags: HW
LayerCount: 2
Fore
SplineSet
575 848 m 0
 575 902 542 985 496 985 c 0
 483 985 468 979 451 967 c 0
 402 932 392 905 392 818 c 2
 392 744 l 1
 449 744 l 2
 481 744 521 752 538 761 c 0
 569 776 575 796 575 848 c 0
483 1059 m 0
 541 1059 559 1047 598 1005 c 0
 631 966 659 915 659 854 c 0
 659 796 636 742 605 716 c 0
 587 700 562 688 551 688 c 0
 531 688 523 683 523 675 c 0
 523 665 537 651 555 637 c 0
 584 614 613 605 664 600 c 0
 718 595 730 592 730 577 c 0
 730 553 715 542 678 531 c 0
 659 525 646 521 633 521 c 0
 618 521 603 526 578 536 c 0
 550 547 499 580 466 611 c 0
 433 640 403 665 400 665 c 0
 395 665 392 631 390 589 c 2
 386 512 l 1
 353 512 l 2
 324 512 315 520 290 569 c 0
 270 611 264 638 264 692 c 0
 264 696 264 701 264 705 c 0
 264 749 274 816 284 856 c 0
 294 894 302 946 302 970 c 0
 302 1004 306 1015 325 1021 c 0
 339 1026 354 1024 360 1018 c 0
 369 1009 386 1015 414 1034 c 0
 440 1053 456 1059 483 1059 c 0
522 1228 m 0
 510 1228 471 1219 437 1205 c 0
 389 1187 354 1161 290 1095 c 0
 233 1038 193 984 169 935 c 0
 135 865 111 785 111 692 c 0
 111 633 123 574 144 523 c 0
 169 462 177 452 234 424 c 0
 277 401 293 395 338 395 c 0
 495 395 631 436 726 492 c 0
 782 527 861 599 892 658 c 0
 905 683 910 712 910 743 c 0
 910 836 869 946 822 996 c 0
 780 1046 786 1071 742 1118 c 0
 723 1136 697 1151 686 1151 c 0
 675 1151 658 1161 649 1175 c 0
 634 1196 566 1228 527 1228 c 0
 525 1228 524 1228 522 1228 c 0
331 1216 m 0
 380 1251 447 1285 523 1285 c 0
 637 1285 750 1220 818 1173 c 0
 855 1149 889 1112 889 1064 c 0
 889 1058 888 1052 888 1045 c 0
 888 1028 903 987 921 948 c 0
 950 888 979 799 979 723 c 0
 979 701 974 685 964 658 c 0
 950 621 918 578 868 528 c 0
 778 438 650 370 506 341 c 0
 459 332 410 327 362 327 c 0
 301 327 244 336 203 358 c 0
 147 386 91 450 65 505 c 0
 52 533 48 573 48 659 c 0
 48 668 48 678 48 688 c 0
 48 809 51 838 74 897 c 0
 127 1030 220 1142 331 1216 c 0
EndSplineSet
EndChar

StartChar: logicalnot
Encoding: 172 172 153
Width: 941
Flags: HW
LayerCount: 2
Fore
SplineSet
174 638 m 0
 192 638 215 638 233 638 c 0
 334 638 369 643 484 674 c 0
 613 709 711 725 827 732 c 0
 856 732 893 713 893 680 c 0
 893 659 885 620 866 534 c 0
 846 439 832 336 831 275 c 2
 829 173 l 1
 793 169 l 2
 790 169 787 169 784 169 c 0
 752 169 738 188 738 219 c 0
 738 231 740 245 744 260 c 0
 754 305 797 563 797 635 c 0
 797 657 792 663 769 663 c 0
 760 663 747 662 729 660 c 0
 697 655 592 632 496 607 c 0
 353 571 303 563 216 563 c 0
 124 563 79 566 51 600 c 0
 48 607 47 618 49 625 c 0
 54 633 90 638 174 638 c 0
EndSplineSet
EndChar

StartChar: paragraph
Encoding: 182 182 154
Width: 654
Flags: HW
LayerCount: 2
Fore
SplineSet
127 883 m 0
 127 823 160 821 235 821 c 0
 246 821 255 821 264 821 c 0
 323 821 331 830 339 889 c 0
 340 899 341 913 341 928 c 0
 341 948 340 970 338 986 c 0
 330 1037 329 1038 288 1038 c 0
 220 1035 192 1010 158 962 c 0
 141 937 127 902 127 883 c 0
426 395 m 0
 426 349 410 268 410 226 c 0
 410 186 406 176 383 165 c 0
 367 158 346 155 335 160 c 0
 324 164 320 173 320 219 c 0
 320 326 334 546 338 632 c 2
 344 742 l 1
 226 746 l 2
 119 749 103 753 77 777 c 0
 51 801 48 814 48 875 c 0
 48 944 50 949 101 1007 c 0
 130 1040 168 1075 185 1086 c 0
 201 1096 244 1107 280 1112 c 0
 339 1120 345 1123 360 1157 c 0
 371 1184 381 1202 404 1202 c 0
 451 1202 450 1119 463 1081 c 0
 465 1070 471 1061 476 1061 c 0
 481 1062 501 1085 521 1112 c 0
 541 1140 568 1163 579 1163 c 0
 596 1163 606 1149 606 1129 c 0
 606 1108 602 1067 595 1026 c 0
 586 968 582 875 582 699 c 0
 582 622 583 503 583 433 c 0
 583 279 579 231 570 219 c 0
 562 209 543 201 529 201 c 0
 514 201 500 208 498 215 c 0
 497 221 496 323 496 465 c 0
 496 548 496 654 496 741 c 0
 496 912 494 1038 490 1038 c 0
 485 1038 473 1021 464 1000 c 0
 450 973 435 917 435 877 c 0
 435 860 440 854 454 847 c 0
 468 839 478 822 478 807 c 0
 478 792 468 774 454 766 c 0
 442 757 427 730 421 705 c 0
 415 680 410 608 410 545 c 0
 410 483 414 428 421 421 c 0
 425 417 426 408 426 395 c 0
EndSplineSet
EndChar

StartChar: divide
Encoding: 247 247 155
Width: 982
Flags: HW
LayerCount: 2
Fore
SplineSet
525 479 m 0
 525 452 505 439 477 439 c 0
 450 439 436 460 425 482 c 0
 416 497 412 519 417 529 c 0
 422 543 435 545 471 543 c 0
 525 540 525 531 525 479 c 0
889 804 m 0
 924 804 934 794 934 763 c 0
 934 722 897 718 841 713 c 0
 802 710 701 696 617 683 c 0
 507 665 411 658 279 658 c 0
 166 658 86 663 72 671 c 0
 58 678 48 692 48 705 c 0
 48 721 68 737 89 737 c 0
 94 737 100 736 105 733 c 0
 112 728 197 727 296 727 c 0
 430 728 516 735 640 755 c 0
 731 771 817 788 833 795 c 0
 847 801 871 804 889 804 c 0
412 946 m 0
 412 989 433 1012 468 1012 c 0
 491 1012 537 967 537 943 c 0
 537 917 483 876 459 876 c 0
 423 876 412 904 412 946 c 0
EndSplineSet
EndChar

StartChar: multiply
Encoding: 215 215 156
Width: 650
Flags: HW
LayerCount: 2
Fore
SplineSet
569 987 m 0
 594 987 601 970 601 938 c 0
 601 912 588 895 527 838 c 0
 485 797 436 753 419 739 c 0
 401 725 387 708 387 700 c 0
 387 693 424 657 468 621 c 0
 532 569 545 555 545 530 c 0
 545 502 537 480 517 480 c 0
 502 480 470 504 421 556 c 0
 379 600 337 637 328 637 c 0
 302 637 139 488 131 467 c 0
 126 449 114 438 100 438 c 0
 76 438 57 469 57 493 c 0
 57 507 71 531 89 547 c 0
 106 563 149 597 185 624 c 0
 219 649 254 679 254 688 c 0
 254 698 230 726 197 752 c 0
 163 779 114 826 90 857 c 0
 66 887 48 919 48 929 c 0
 48 939 66 962 80 962 c 0
 96 962 122 938 197 860 c 0
 274 780 297 757 315 757 c 0
 321 757 325 760 331 763 c 0
 380 786 484 896 515 942 c 0
 538 975 553 987 569 987 c 0
EndSplineSet
EndChar

StartChar: uni203D
Encoding: 8253 8253 157
Width: 654
Flags: HW
LayerCount: 2
Fore
SplineSet
354 553 m 0
 375 553 401 539 416 525 c 0
 435 506 446 456 446 407 c 0
 446 378 437 369 405 343 c 0
 373 317 342 298 305 298 c 0
 255 298 224 330 224 381 c 0
 224 434 251 475 285 510 c 0
 315 542 332 553 354 553 c 0
326 785 m 0
 347 785 355 945 355 970 c 0
 355 987 352 1001 346 1001 c 0
 341 1001 321 982 302 959 c 0
 275 927 265 904 264 873 c 0
 264 845 272 822 287 807 c 0
 300 794 317 785 326 785 c 0
131 1118 m 0
 108 1118 48 1167 48 1185 c 0
 48 1195 72 1225 103 1252 c 0
 161 1302 246 1363 345 1363 c 0
 358 1363 374 1363 392 1362 c 0
 494 1358 518 1359 533 1291 c 0
 535 1281 535 1272 535 1263 c 0
 535 1208 508 1169 475 1137 c 0
 452 1115 432 1084 430 1065 c 0
 427 1046 421 971 418 902 c 2
 412 773 l 1
 445 773 l 2
 462 773 500 781 526 790 c 0
 552 799 582 807 590 807 c 0
 599 807 606 798 606 785 c 0
 606 743 526 727 478 719 c 0
 401 708 419 695 405 640 c 0
 403 625 391 614 380 614 c 0
 349 614 330 631 330 666 c 0
 330 670 330 673 330 677 c 0
 330 704 323 710 280 728 c 0
 228 751 185 797 185 862 c 0
 185 929 232 991 277 1026 c 0
 303 1046 330 1077 338 1093 c 0
 346 1107 349 1127 349 1159 c 0
 349 1173 349 1190 347 1209 c 0
 341 1277 340 1293 327 1293 c 0
 324 1293 321 1292 317 1291 c 0
 285 1280 153 1216 133 1194 c 0
 125.469879518 1185.56626506 122.838873567 1178.22122224 122.838873567 1171.36368613 c 0
 122.838873567 1155.45420235 137 1142.1686747 137 1124 c 0
 137 1120 135 1118 131 1118 c 0
EndSplineSet
EndChar

StartChar: arrowright
Encoding: 8594 8594 158
Width: 1067
Flags: HW
LayerCount: 2
Fore
SplineSet
702 906 m 0
 718 906 742 891 760 867 c 0
 785 835 803 826 845 819 c 0
 904 810 993 780 1013 738 c 0
 1021 720 1022 703 1014 692 c 0
 1008 683 978 665 946 655 c 0
 915 644 854 615 812 592 c 0
 771 569 729 553 712 553 c 0
 687 553 682 566 675 613 c 0
 667 667 667 682 633 682 c 0
 621 682 604 680 580 677 c 0
 542 671 415 667 297 667 c 0
 273 667 251 667 232 667 c 0
 108 667 79 670 66 684 c 0
 56 693 48 705 48 711 c 0
 48 729 76 752 100 752 c 0
 103 752 107 752 110 751 c 0
 146 742 240 738 334 738 c 0
 428 738 524 742 563 748 c 2
 660 763 l 1
 664 820 l 1
 665 852 670 884 672 892 c 0
 674 899 688 906 702 906 c 0
EndSplineSet
EndChar

StartChar: arrowleft
Encoding: 8592 8592 159
Width: 974
Flags: HW
LayerCount: 2
Fore
SplineSet
267 766 m 0
 304 766 379 736 379 706 c 0
 379 698 367 682 353 673 c 0
 341 664 336 657 336 652 c 0
 336 640 361 636 388 636 c 0
 398 636 409 637 419 638 c 0
 496 646 777 687 841 708 c 0
 867 716 881 720 890 720 c 0
 911.842419007 720 925.402003499 685.212095036 925.402003499 660.865570619 c 0
 925.402003499 658.460635603 925.269697624 656.157580993 925 654 c 0
 922 627 918 626 813 619 c 0
 691 612 530 578 419 571 c 0
 350 566 350 566 350 529 c 0
 348 487 331 471 292 471 c 0
 279 471 256 484 241 500 c 0
 226 516 206 528 197 528 c 0
 169 528 65 570 54 589 c 0
 50 595 48 602 48 609 c 0
 48 627 60 643 72 647 c 0
 80 649 116 660 153 670 c 0
 210 687 220 696 235 730 c 0
 247 758 252 766 267 766 c 0
EndSplineSet
EndChar

StartChar: longs
Encoding: 383 383 160
Width: 596
Flags: HW
LayerCount: 2
Fore
SplineSet
523 763 m 0
 536 763 544 747 544 735 c 0
 544 704 485 687 463 676 c 0
 448 670 415 660 389 652 c 0
 351 641 339 632 330 604 c 0
 324 585 317 550 312 527 c 0
 306 491 301 484 278 484 c 0
 262 484 248 476 245 465 c 0
 236 423 232 373 232 319 c 0
 232 227 253 60 278 9 c 0
 287 -9 295 -35 295 -46 c 0
 295 -65 279 -91 257 -91 c 0
 231 -91 214 -59 201 -31 c 0
 173 25 152 199 152 309 c 0
 152 368 163 458 171 490 c 0
 175 507 177 520 177 530 c 0
 177 559 159 563 111 571 c 0
 62 579 50 585 48 605 c 0
 46 623 52 632 71 635 c 0
 86 638 120 645 148 650 c 2
 199 659 l 1
 218 733 l 2
 235 801 293 982 321 1033 c 0
 330 1052 486 1276 512 1276 c 0
 525 1276 548 1258 548 1237 c 0
 548 1215 530 1175 477 1069 c 0
 423 959 392 880 380 820 c 0
 371 777 366 739 366 728 c 0
 366 725 366 724 369 724 c 0
 392 724 499 763 523 763 c 0
EndSplineSet
EndChar

StartChar: pfote
Encoding: 993087 993087 161
Width: 1041
Flags: HW
LayerCount: 2
Fore
SplineSet
881 1036 m 0
 899.065713228 1022.23564706 920.83176653 1000.33054597 920.83176653 969.648036875 c 0
 920.83176653 964.664492666 920.257551474 959.449389719 919 954 c 0
 906.373730903 902.523672143 848.467649837 869.913932607 780.097739882 869.913932607 c 0
 778.074026623 869.913932607 776.041145702 869.942502938 774 870 c 0
 713 872 662 898 636 939 c 0
 628.134293028 951.36039667 624.76674005 963.878623305 624.76674005 975.956126425 c 0
 624.76674005 1006.87159121 646.832133715 1034.89928023 672 1050 c 0
 697.644085216 1065.55460907 729.827247815 1072.62609071 762.23423042 1072.62609071 c 0
 806.914261147 1072.62609071 852.01974198 1059.18420642 881 1036 c 0
776 1328 m 0
 776.909299704 1328.015155 777.81997745 1328.02273075 778.731726938 1328.02273075 c 0
 831.767819637 1328.02273075 888.430363767 1302.38863325 888.430363767 1251.80554047 c 0
 888.430363767 1245.87913201 887.652562812 1239.61025125 886 1233 c 0
 872 1173 807 1125 728 1117 c 0
 722.442418563 1116.39213953 716.816970816 1116.0934478 711.183244783 1116.0934478 c 0
 655.61598684 1116.0934478 599.243374691 1145.15171281 599.243374691 1193.214974 c 0
 599.243374691 1196.39445206 599.490065718 1199.65709748 600 1203 c 0
 612 1278 698 1326 776 1328 c 0
645 858 m 0
 674.749180643 840.420938711 707.241172492 803.185063783 707.241172492 765.764240062 c 0
 707.241172492 747.838455637 699.78517097 729.870230647 681 714 c 0
 658.918379194 694.954602055 629.294227175 686.65159705 598.289101399 686.65159705 c 0
 521.442453152 686.65159705 436.112437215 737.657232765 436.112437215 802.527369379 c 0
 436.112437215 806.306962559 436.402106411 810.13362146 437 814 c 0
 444.072037736 863.504264151 492.474856103 883.139224654 544.341385456 883.139224654 c 0
 580.483203271 883.139224654 618.306871069 873.605213836 645 858 c 0
498 1457 m 0
 511.8 1460.6 525.6 1462.4 538.76 1462.4 c 0
 586.709037793 1462.4 626.161811785 1438.50425806 626.161811785 1390.71277418 c 0
 626.161811785 1386.03722582 625.784203408 1381.13296776 625 1376 c 0
 615 1310 540 1256 469 1251 c 0
 465.722893703 1250.78152625 462.478602317 1250.67342992 459.275272659 1250.67342992 c 0
 409.851574688 1250.67342992 370.17879368 1276.40570135 370.17879368 1319.49212227 c 0
 370.17879368 1324.74214201 370.767818615 1330.2498202 372 1336 c 0
 386 1398 438 1442 498 1457 c 0
489 966 m 0
 459 908 352 803 263 771 c 0
 250.725201402 766.55567637 239.167029109 764.485177375 228.515061646 764.485177375 c 0
 188.835114665 764.485177375 161.730193248 793.216626305 157 835 c 0
 156.533133752 839.435229354 156.229740574 843.434530521 156.229740574 847.583023953 c 0
 156.229740574 861.206187612 159.501496858 876.438223071 171 914 c 0
 182.082482158 950.304682933 187.177237988 976.53246058 187.177237988 999.157369061 c 0
 187.177237988 1035.73601594 173.860281384 1062.89728267 151 1108 c 0
 131 1147 126 1162 122 1185 c 0
 120.946752106 1190.68753863 120.448169775 1196.18649096 120.448169775 1201.4781626 c 0
 120.448169775 1246.42795514 156.423641155 1276.42129916 194 1280 c 0
 195.201010127 1280.08578644 196.57128445 1280.127417 198.090620434 1280.127417 c 0
 214.281962568 1280.127417 247.402020254 1275.39949494 273 1269 c 0
 315 1259 359 1240 402 1215 c 0
 457.94017457 1182.18176425 508.317143575 1115.42797455 508.317143575 1042.12481966 c 0
 508.317143575 1017.14911399 502.468943304 991.413100573 489 966 c 0
EndSplineSet
Comment: "Gerne den Vorschlag von Christine Fraunhofer hier umgesetzt!"
EndChar

StartChar: pfote.lig
Encoding: 993088 993088 162
Width: 5764
Flags: HW
LayerCount: 2
Fore
SplineSet
887 281 m 0
 901.605110718 268.972261761 920.63878737 250.301674624 920.63878737 224.354123922 c 0
 920.63878737 220.099345423 920.127006721 215.648902723 919 211 c 0
 908.369353771 167.510992699 859.445846308 139.899513226 802.015662553 139.899513226 c 0
 800.020294213 139.899513226 798.014656931 139.932844769 796 140 c 0
 745 141 700 163 678 198 c 0
 671.406826114 208.439191987 668.587084684 218.953852622 668.587084684 229.087868808 c 0
 668.587084684 255.842973499 688.241467358 279.944880415 710 293 c 0
 731.760914127 306.39133177 758.950696187 312.427423114 786.292749852 312.427423114 c 0
 824.287417904 312.427423114 862.576122948 300.771709994 887 281 c 0
797 529 m 0
 797.910714286 529.017857143 798.823022959 529.026785714 799.736504647 529.026785714 c 0
 844.887405853 529.026785714 892.904043823 507.213799098 892.904043823 463.587825864 c 0
 892.904043823 458.669164071 892.293670682 453.473222117 891 448 c 0
 879 397 824 357 757 350 c 0
 752.158698698 349.462077633 747.245057279 349.197440157 742.316725174 349.197440157 c 0
 695.476336492 349.197440157 647.308910641 373.102640862 647.308910641 413.488872817 c 0
 647.308910641 416.249687766 647.534003316 419.087520727 648 422 c 0
 658 486 731 527 797 529 c 0
686 129 m 0
 711.112602653 114.068182206 738.989162116 82.5526235557 738.989162116 50.7115571725 c 0
 738.989162116 35.6391485789 732.742769459 20.4938023936 717 7 c 0
 698.31431127 -8.93779332843 673.285842065 -15.8899809834 647.081134084 -15.8899809834 c 0
 581.798573887 -15.8899809834 509.21587352 27.2576735807 509.21587352 82.1131498869 c 0
 509.21587352 85.369697191 509.471677868 88.6675065548 510 92 c 0
 515.849204647 134.114273456 556.253736241 150.568650663 599.794758056 150.568650663 c 0
 630.692953956 150.568650663 663.170625556 142.282545131 686 129 c 0
561 638 m 0
 572.913399093 641.081051489 584.911179325 642.643242454 596.369382367 642.643242454 c 0
 636.552280829 642.643242454 670.099229751 623.430754247 670.099229751 583.136958431 c 0
 670.099229751 578.982733918 669.742650069 574.60443043 669 570 c 0
 661 514 597 467 537 463 c 0
 533.77424449 462.746999568 530.584494166 462.622017573 527.441629613 462.622017573 c 0
 485.87959605 462.622017573 452.516985848 484.478974681 452.516985848 521.170604196 c 0
 452.516985848 525.571067059 452.9968549 530.18490352 454 535 c 0
 466 588 510 625 561 638 c 0
553 221 m 0
 527 172 436 82 361 55 c 0
 350.7352258 51.2292666206 341.040944171 49.4771992598 332.082630142 49.4771992598 c 0
 298.277471843 49.4771992598 274.952574061 74.4268334486 271 110 c 0
 270.57793555 113.587547825 270.3340095 116.81881885 270.3340095 120.069742505 c 0
 270.3340095 132.22368725 273.743418925 144.652321225 284 177 c 0
 293.479282665 207.712875836 297.782813659 229.943269766 297.782813659 249.08804723 c 0
 297.782813659 280.434372681 286.245689495 303.50862101 267 342 c 0
 250 376 245 388 241 407 c 0
 240.028279902 411.966569391 239.56948027 416.758279532 239.56948027 421.360026935 c 0
 239.56948027 459.379325138 270.886880393 484.431875599 303 488 c 0
 304.238336961 488.103194747 305.679007881 488.153143715 307.2934404 488.153143715 c 0
 321.323530207 488.153143715 348.476673921 484.38083152 370 479 c 0
 406 470 444 454 480 433 c 0
 527.555210961 405.507143663 569.589186352 348.751738804 569.589186352 286.528604632 c 0
 569.589186352 265.011586957 564.562742293 242.840735442 553 221 c 0
2431 833 m 0
 2446.5523864 820.039678001 2466.58397137 799.614025056 2466.58397137 771.723041163 c 0
 2466.58397137 767.333595724 2466.08782827 762.75924867 2465 758 c 0
 2454.35708225 711.55817708 2402.52445603 682.90281918 2341.2030589 682.90281918 c 0
 2339.14565483 682.90281918 2337.07756944 682.935075955 2335 683 c 0
 2281 685 2234 708 2210 745 c 0
 2202.79891972 756.078585039 2199.74014727 767.233879483 2199.74014727 777.977230128 c 0
 2199.74014727 806.023492442 2220.58590341 831.262327894 2243 845 c 0
 2266.26252256 859.380468494 2295.42844465 865.889737627 2324.74739418 865.889737627 c 0
 2364.74776374 865.889737627 2405.03297301 853.773621595 2431 833 c 0
2336 1095 m 0
 2336.93075788 1095.01723626 2337.86300121 1095.02585695 2338.79633056 1095.02585695 c 0
 2386.52246427 1095.02585695 2437.0883729 1072.48426264 2437.0883729 1026.71638577 c 0
 2437.0883729 1021.45190881 2436.41934114 1015.88012756 2435 1010 c 0
 2422 956 2365 914 2294 906 c 0
 2288.95974232 905.478594033 2283.85907038 905.221500466 2278.75179729 905.221500466 c 0
 2228.36602762 905.221500466 2177.33778121 930.243893588 2177.33778121 973.357241359 c 0
 2177.33778121 976.162220394 2177.55377754 979.043776232 2178 982 c 0
 2188 1050 2266 1093 2336 1095 c 0
2218 672 m 0
 2245.08638193 656.425330391 2274.46548913 622.967403686 2274.46548913 589.325185086 c 0
 2274.46548913 573.286026988 2267.78770349 557.204979878 2251 543 c 0
 2231.01939256 525.794476927 2204.18481214 518.292331339 2176.13825116 518.292331339 c 0
 2107.29175983 518.292331339 2031.14228967 563.497685801 2031.14228967 621.349295308 c 0
 2031.14228967 624.855494329 2031.4220004 628.408145324 2032 632 c 0
 2038.48703733 676.81953061 2081.83899403 694.51204507 2128.21472276 694.51204507 c 0
 2160.47782258 694.51204507 2194.20437862 685.949157359 2218 672 c 0
2086 1211 m 0
 2098.36915404 1214.19203975 2110.77810932 1215.79202985 2122.63927279 1215.79202985 c 0
 2166.0075222 1215.79202985 2202.05250696 1194.40224109 2202.05250696 1151.23453222 c 0
 2202.05250696 1147.02976571 2201.71051916 1142.61837454 2201 1138 c 0
 2192 1079 2124 1031 2060 1026 c 0
 2056.78409906 1025.76178512 2053.60011792 1025.64415618 2050.45798375 1025.64415618 c 0
 2006.25392474 1025.64415618 1970.33193335 1048.92447898 1970.33193335 1087.25195579 c 0
 1970.33193335 1091.94720198 1970.87101765 1096.86826205 1972 1102 c 0
 1984 1158 2032 1197 2086 1211 c 0
2078 769 m 0
 2051 717 1955 622 1875 594 c 0
 1864.00620094 589.983034958 1853.59347696 588.111577925 1843.96027878 588.111577925 c 0
 1808.02903625 588.111577925 1782.94290394 614.148122211 1779 652 c 0
 1778.57793555 655.79858005 1778.3340095 659.1963487 1778.3340095 662.606828323 c 0
 1778.3340095 675.35729105 1781.74341893 688.2854179 1792 723 c 0
 1801.8991088 755.362471065 1806.43473071 778.737477622 1806.43473071 798.920074474 c 0
 1806.43473071 831.747049385 1794.43574653 856.128506945 1774 897 c 0
 1756 932 1751 947 1747 967 c 0
 1746.05232359 972.054274207 1745.60358639 976.942235342 1745.60358639 981.647538565 c 0
 1745.60358639 1021.62808843 1778.00130041 1048.42118952 1812 1052 c 0
 1813.12381266 1052.08644713 1814.39708743 1052.12805562 1815.80238155 1052.12805562 c 0
 1830.65319867 1052.12805562 1860.24762531 1047.48131724 1884 1042 c 0
 1922 1033 1962 1017 2000 994 c 0
 2050.65689784 964.201824798 2095.20926838 903.881013035 2095.20926838 837.842624853 c 0
 2095.20926838 815.23345293 2089.98714414 791.954105794 2078 769 c 0
3975 484 m 0
 3991.33242914 470.246375458 4012.83726187 449.842517744 4012.83726187 420.882909978 c 0
 4012.83726187 416.152945744 4012.2635862 411.194743248 4011 406 c 0
 3999.37703609 356.602403389 3944.59927121 326.905911573 3880.2875526 326.905911573 c 0
 3878.20135159 326.905911573 3876.10511818 326.937160651 3874 327 c 0
 3817 329 3767 353 3742 392 c 0
 3734.53206174 403.616792848 3731.34824653 415.38659009 3731.34824653 426.759237807 c 0
 3731.34824653 456.503894183 3753.12748009 483.531806118 3777 498 c 0
 3801.14022912 512.56737964 3831.34355965 519.166111704 3861.76982547 519.166111704 c 0
 3904.44656994 519.166111704 3947.5619098 506.183987819 3975 484 c 0
3875 761 m 0
 3875.91935484 761.016129032 3876.84027055 761.024193548 3877.76239468 761.024193548 c 0
 3928.19612243 761.024193548 3982.24462112 736.900617954 3982.24462112 688.653466765 c 0
 3982.24462112 683.089770988 3981.52588903 677.205282066 3980 671 c 0
 3966 614 3905 569 3830 561 c 0
 3825.11206054 560.51921907 3820.16633351 560.282430126 3815.20809516 560.282430126 c 0
 3761.93321707 560.282430126 3707.21392115 587.619474066 3707.21392115 633.35842567 c 0
 3707.21392115 636.487133615 3707.46995545 639.701944996 3708 643 c 0
 3719 715 3801 759 3875 761 c 0
3751 315 m 0
 3779.34941427 298.125348646 3809.97685941 263.026450362 3809.97685941 227.539918308 c 0
 3809.97685941 210.452724081 3802.87576702 193.275655455 3785 178 c 0
 3764.06564332 160.095616002 3736.0750197 152.282452483 3706.79642014 152.282452483 c 0
 3633.97254205 152.282452483 3553.18056437 200.618809891 3553.18056437 262.237726082 c 0
 3553.18056437 265.783397406 3553.44807256 269.37304826 3554 273 c 0
 3561.07427842 320.161856119 3607.07276861 338.825628621 3656.14121129 338.825628621 c 0
 3690.30688485 338.825628621 3725.96091529 329.777164746 3751 315 c 0
3611 884 m 0
 3624.09197806 887.424055801 3637.26509217 889.144254711 3649.86566152 889.144254711 c 0
 3695.24180121 889.144254711 3733.19315062 866.836625242 3733.19315062 821.458202324 c 0
 3733.19315062 816.87446224 3732.80592116 812.055323651 3732 807 c 0
 3723 745 3651 693 3584 688 c 0
 3580.79580832 687.775144443 3577.62321665 687.664048935 3574.49075152 687.664048935 c 0
 3527.40876399 687.664048935 3489.39179706 712.761729482 3489.39179706 753.909607348 c 0
 3489.39179706 758.724780359 3489.91239971 763.759744054 3491 769 c 0
 3504 828 3554 869 3611 884 c 0
3602 418 m 0
 3573 363 3472 262 3388 232 c 0
 3376.45546503 227.801987282 3365.52774593 225.850946688 3355.42029564 225.850946688 c 0
 3317.37424583 225.850946688 3290.95049682 253.495031795 3287 293 c 0
 3286.58578644 296.727922061 3286.34314575 300.155591591 3286.34314575 303.656114601 c 0
 3286.34314575 317.057611845 3289.89949494 331.526911935 3301 368 c 0
 3311.66287892 402.273539379 3316.52489116 427.120670412 3316.52489116 448.616333533 c 0
 3316.52489116 483.566830219 3303.67140135 509.657197294 3282 553 c 0
 3263 590 3258 605 3254 626 c 0
 3252.90039589 631.607980946 3252.3811738 637.022501222 3252.3811738 642.223617375 c 0
 3252.3811738 684.3223987 3286.39841643 712.439841643 3322 716 c 0
 3323.3270951 716.102084238 3324.89387761 716.152062518 3326.66630466 716.152062518 c 0
 3342.25627444 716.152062518 3373.75627444 712.285410332 3398 706 c 0
 3438 696 3479 679 3520 655 c 0
 3572.91268596 623.69953788 3620.27140975 560.186095105 3620.27140975 490.535909108 c 0
 3620.27140975 466.727161473 3614.7375451 442.201335682 3602 418 c 0
5482 1016 m 0
 5500.48708005 1001.91460568 5524.39911452 980.854269953 5524.39911452 948.725459493 c 0
 5524.39911452 944.358240406 5523.95730284 939.786514194 5523 935 c 0
 5512 881 5452 848 5381 847 c 0
 5320 847 5268 870 5240 910 c 0
 5231.18850512 922.629809325 5227.46690366 935.690965549 5227.46690366 948.397967734 c 0
 5227.46690366 978.953779729 5248.98636086 1007.46176291 5273 1023 c 0
 5300.10868293 1040.62064391 5334.97443982 1048.64701213 5369.75773339 1048.64701213 c 0
 5411.96075523 1048.64701213 5454.04238049 1036.83116748 5482 1016 c 0
5367 1304 m 0
 5369.80430818 1304.14021541 5372.62172327 1304.21052731 5375.44356682 1304.21052731 c 0
 5427.78751401 1304.21052731 5481.65523006 1280.01718154 5481.65523006 1229.02383189 c 0
 5481.65523006 1223.94885674 5481.12168719 1218.60843594 5480 1213 c 0
 5468 1153 5406 1103 5327 1092 c 0
 5319.67421777 1090.96981187 5312.21741238 1090.46371638 5304.7660621 1090.46371638 c 0
 5250.00505319 1090.46371638 5195.53867365 1117.79785514 5195.53867365 1165.32260516 c 0
 5195.53867365 1167.82605892 5195.68980966 1170.38553859 5196 1173 c 0
 5205 1249 5289 1299 5367 1304 c 0
5253 830 m 0
 5284.02153026 813.455183861 5318.36965182 776.00036528 5318.36965182 737.619522379 c 0
 5318.36965182 720.32490646 5311.39542901 702.842265705 5294 687 c 0
 5271.06010372 666.118812359 5239.21116722 657.001017623 5205.98296991 657.001017623 c 0
 5129.82937235 657.001017623 5046.4311869 704.892369767 5046.4311869 768.827613154 c 0
 5046.4311869 771.850335993 5046.61759836 774.908920106 5047 778 c 0
 5052.56039248 830.514817899 5104.68858345 851.348264695 5159.28540237 851.348264695 c 0
 5193.0584911 851.348264695 5227.77621154 843.376251453 5253 830 c 0
5085 1423 m 0
 5100.52543206 1427.56630355 5116.20724759 1429.89111083 5131.05761606 1429.89111083 c 0
 5177.47836007 1429.89111083 5215.7748343 1407.17485812 5215.7748343 1359.19770896 c 0
 5215.7748343 1355.29906531 5215.52195284 1351.23361746 5215 1347 c 0
 5208 1281 5134 1225 5063 1217 c 0
 5058.06943105 1216.50694311 5053.2063913 1216.26374423 5048.43862719 1216.26374423 c 0
 5000.20312154 1216.26374423 4961.7194438 1241.15608343 4961.7194438 1284.04511787 c 0
 4961.7194438 1288.50474937 4962.13552873 1293.15896086 4963 1298 c 0
 4974 1360 5025 1405 5085 1423 c 0
5093 932 m 0
 5065 873 4962 765 4874 730 c 0
 4860.76193458 724.658324479 4848.17113185 722.175392551 4836.55329528 722.175392551 c 0
 4798.14745666 722.175392551 4770.37427267 749.309078376 4765 790 c 0
 4764.22128074 794.93188866 4763.77945241 799.324751819 4763.77945241 803.98310943 c 0
 4763.77945241 817.270979055 4767.37445014 832.719081282 4777 869 c 0
 4786.21046591 903.007874138 4790.52673861 928.231298923 4790.52673861 949.827103516 c 0
 4790.52673861 989.193569971 4776.18430113 1016.5059056 4751 1063 c 0
 4730 1102 4723 1117 4718 1139 c 0
 4716.5 1145.625 4715.796875 1152 4715.796875 1158.09570312 c 0
 4715.796875 1200.765625 4750.25 1229.75 4787 1235 c 0
 4789.92197014 1235.41742431 4793.84583781 1235.6170448 4798.48976155 1235.6170448 c 0
 4816.09621319 1235.6170448 4844.05265242 1232.74772708 4867 1228 c 0
 4910 1219 4953 1203 4997 1179 c 0
 5055.91579861 1147.62925009 5109.56264091 1079.37580606 5109.56264091 1003.35598817 c 0
 5109.56264091 980.02170892 5104.50812816 955.955695354 5093 932 c 0
EndSplineSet
Ligature2: "liga" S a m t p f o t e
Comment: "Hier wurde die Pfote aus +ACIA-pfote+ACIA +APwA-bernommen, vervielf+AOQA-ltigt und transformiert."
EndChar

StartChar: .notdef
Encoding: 9633 9633 163
Width: 1377
Flags: HW
LayerCount: 2
Fore
SplineSet
855 651 m 2
 855 678 877 692 908 692 c 2
 909 692 l 2
 913 692 917 692 922 691 c 1
 933 611 l 1
 929 611 l 2
 903 611 855 620 855 646 c 2
 855 651 l 2
819 709 m 2
 819 740 842 769 874 769 c 2
 875 769 l 2
 887 769 899 765 912 758 c 1
 920 707 l 1
 908 707 897 709 886 709 c 0
 864 709 844 702 827 679 c 1
 822 689 819 694 819 707 c 2
 819 709 l 2
703 679 m 1
 687 701 658 707 624 707 c 0
 617 707 611 708 605 707 c 1
 648 689 665 675 665 641 c 0
 665 626 642 614 625 614 c 0
 593 614 582 654 582 683 c 0
 582 712 594 731 622 731 c 0
 636 731 652 724 670 709 c 1
 665 728 663 756 652 769 c 1
 657 770 661 770 665 770 c 2
 667 770 l 2
 701 770 712 746 712 709 c 0
 712 695 708 690 703 679 c 1
674 1085 m 1
 758 964 l 1
 725 904 l 1
 656 999 l 1
 674 1085 l 1
774 1261 m 2
 774 1303 733 1365 733 1414 c 2
 733 1422 l 1
 738 1467 l 1
 772 1467 l 1
 788 1389 804 1311 820 1233 c 0
 828 1196 835 1160 843 1123 c 1
 832 1102 821 1081 810 1060 c 2
 783 1010 l 1
 686 1151 l 1
 697 1212 l 1
 709 1210 719 1208 728 1208 c 0
 763 1208 774 1229 774 1258 c 2
 774 1261 l 2
855 1467 m 1
 1050 611 l 1
 990 611 l 1
 819 1467 l 1
 855 1467 l 1
745 709 m 0
 745 756 717 797 669 797 c 2
 668 797 l 2
 658 797 648 795 638 792 c 1
 625 807 615 823 615 844 c 0
 615 852 616 860 620 870 c 1
 639 938 l 1
 707 836 l 1
 715 827 721 821 728 821 c 0
 735 821 743 828 754 847 c 2
 858 1042 l 1
 909 777 l 1
 894 786 877 791 861 791 c 0
 814 791 787 751 787 704 c 0
 787 653 822 616 855 597 c 0
 878 584 907 576 947 576 c 2
 1190 576 l 1
 1195 584 1238 602 1238 611 c 0
 1109 606 l 1
 1108 607 l 1
 904 1469 l 1
 943 1469 1019 1473 1022 1493 c 1
 931 1493 l 2
 762 1493 634 1504 484 1504 c 0
 377 1504 292 1422 268 1339 c 0
 259 1302 255 1267 255 1228 c 0
 255 1108 328 1019 328 911 c 0
 328 903 327 895 327 888 c 0
 321 838 286 746 264 746 c 0
 263 746 261 746 260 747 c 0
 260 748 264 764 264 779 c 0
 264 809 237 824 213 824 c 0
 180 824 158 793 158 763 c 2
 158 759 l 1
 162 728 191 704 221 704 c 0
 309 704 390 795 424 855 c 0
 431 873 434 886 434 900 c 0
 434 1028 294 1092 294 1212 c 0
 294 1217 297 1219 299 1219 c 0
 307 1219 318 1170 325 1154 c 0
 350 1094 404 998 458 957 c 0
 490 931 527 942 561 921 c 1
 561 936 l 2
 561 1025 485 1084 429 1116 c 0
 396 1135 370 1147 356 1185 c 0
 339 1234 336 1240 330 1263 c 0
 329 1265 329 1266 329 1267 c 0
 329 1269 330 1270 332 1270 c 0
 359 1236 385 1225 408 1225 c 0
 452 1225 504 1270 504 1304 c 0
 504 1307 503 1309 500 1310 c 0
 482 1289 459 1279 438 1279 c 0
 395 1279 368 1321 368 1361 c 0
 368 1384 376 1409 394 1434 c 0
 415 1462 437 1474 470 1474 c 1
 459 1447 442 1414 442 1386 c 0
 442 1346 479 1326 516 1326 c 0
 576 1326 614 1385 614 1431 c 2
 614 1440 l 2
 614 1441 613 1440 613 1440 c 2
 607 1440 587 1407 587 1407 c 1
 578 1390 553 1372 532 1372 c 0
 503 1372 492 1405 492 1431 c 0
 492 1449 495 1472 511 1472 c 0
 571 1472 648 1468 714 1468 c 1
 703 1426 l 2
 694 1394 644 1358 621 1332 c 0
 606 1315 595 1297 595 1278 c 2
 595 1272 l 2
 595 1243 609 1220 645 1220 c 2
 651 1220 l 1
 617 1046 l 1
 563 1119 l 2
 559 1123 558 1126 558 1130 c 0
 558 1141 570 1154 570 1171 c 0
 570 1200 536 1225 512 1225 c 2
 509 1225 l 2
 475 1225 438 1201 438 1166 c 0
 438 1138 455 1103 482 1103 c 0
 527 1103 528 1085 548 1061 c 0
 566 1039 604 990 604 990 c 1
 572 883 l 1
 557 840 530 817 497 798 c 0
 474 785 451 772 434 738 c 1
 469 742 490 749 507 749 c 0
 527 749 537 732 537 712 c 0
 537 687 519 666 501 652 c 0
 459 618 417 608 344 577 c 1
 346 577 547 579 619 579 c 0
 694 579 745 636 745 709 c 0
90 1609 m 1
 1287 1609 l 1
 1287 -381 l 1
 90 -381 l 1
 90 1609 l 1
EndSplineSet
EndChar

StartChar: exclamdown
Encoding: 161 161 164
Width: 253
VWidth: 3429
Flags: HW
LayerCount: 2
Fore
SplineSet
62 783 m 0
 62 817 105 860 141 860 c 0
 151 860 161 856 174 850 c 0
 197.015154995 839.93086969 205.546397818 832.965434845 205.546397818 817.198356766 c 0
 205.546397818 811.043075485 204.246211251 803.546397818 202 794 c 0
 195 759 165 717 131 717 c 0
 100 717 62 747 62 783 c 0
68 -380 m 0
 55 -380 48 -365 48 -339 c 0
 48 -317 58 -219 71 -124 c 0
 83 -41 88 24 88 83 c 0
 88 147 81 203 68 267 c 0
 65.6666666667 281.666666667 64.4444444444 292.666666667 64.4444444444 300.814814815 c 0
 64.4444444444 317.111111111 69.3333333333 322 80 322 c 0
 92 322 114 308 130 292 c 0
 151 268 156 245 156 150 c 0
 156 139 156 126 156 112 c 0
 156 -37 137 -232 103 -333 c 0
 96 -358 80 -380 68 -380 c 0
EndSplineSet
Comment: "Umgedrehtes Ausrufezeichen."
EndChar

StartChar: uni00B9
Encoding: 185 185 166
Width: 388
Flags: HW
LayerCount: 2
Fore
SplineSet
289 1197 m 0
 269 1197 268 1211 268 1248 c 0
 268 1296 292 1392 297 1432 c 0
 299 1446 299 1457 297 1457 c 0
 295 1457 267 1430 233 1397 c 0
 200 1364 159 1329 143 1318 c 0
 121 1304 101 1293 78 1293 c 0
 63 1293 52 1298 48 1309 c 0
 47 1314 55 1316 73 1316 c 0
 93 1316 107 1320 129 1334 c 0
 171 1361 267 1458 295 1500 c 0
 309 1521 323 1535 329 1535 c 0
 329 1535 l 0
 334 1534 340 1526 340 1516 c 0
 340 1466 293 1314 293 1263 c 0
 293 1238 300 1228 300 1211 c 0
 300 1203 296 1197 289 1197 c 0
EndSplineSet
Comment: "superscript two, nicht referenziert."
EndChar

